<svg width="38" height="38" viewBox="0 0 38 38" fill="none" xmlns="http://www.w3.org/2000/svg">
<circle cx="19.5" cy="19.5" r="18.5" fill="black"/>
<circle cx="18.5" cy="18.5" r="18" fill="#DEF348" stroke="black"/>
<path fill-rule="evenodd" clip-rule="evenodd" d="M8.09958 18.2261C7.98543 18.3325 7.92129 18.4768 7.92129 18.6272C7.92129 18.7776 7.98543 18.9219 8.09958 19.0283L13.2647 23.8417C13.3789 23.948 13.5337 24.0078 13.6952 24.0078C13.8566 24.0078 14.0114 23.948 14.1256 23.8417C14.2398 23.7353 14.3039 23.591 14.3039 23.4405C14.3039 23.2901 14.2398 23.1458 14.1256 23.0394L9.9995 19.1944L27.4689 19.1952C27.6305 19.1952 27.7856 19.1353 27.8999 19.0288C28.0142 18.9223 28.0784 18.7778 28.0784 18.6272C28.0784 18.4766 28.0142 18.3321 27.8999 18.2256C27.7856 18.1191 27.6305 18.0592 27.4689 18.0592L9.9995 18.06L14.1256 14.215C14.2398 14.1086 14.3039 13.9643 14.3039 13.8139C14.3039 13.6634 14.2398 13.5191 14.1256 13.4127C14.0114 13.3064 13.8566 13.2466 13.6952 13.2466C13.5337 13.2466 13.3789 13.3064 13.2647 13.4127L8.09958 18.2261Z" fill="black"/>
</svg>
