<svg width="39" height="38" viewBox="0 0 39 38" fill="none" xmlns="http://www.w3.org/2000/svg">
<circle cx="20.5" cy="19.5" r="18" transform="rotate(180 20.5 19.5)" fill="black" stroke="black"/>
<circle cx="18.5" cy="18.5" r="18" transform="rotate(180 18.5 18.5)" fill="#DEF348" stroke="black"/>
<path fill-rule="evenodd" clip-rule="evenodd" d="M27.9004 18.7739C28.0146 18.6675 28.0787 18.5232 28.0787 18.3728C28.0787 18.2224 28.0146 18.0781 27.9004 17.9717L22.7353 13.1583C22.6211 13.052 22.4663 12.9922 22.3048 12.9922C22.1434 12.9922 21.9886 13.052 21.8744 13.1583C21.7602 13.2647 21.6961 13.409 21.6961 13.5595C21.6961 13.7099 21.7602 13.8542 21.8744 13.9606L26.0005 17.8056L8.5311 17.8048C8.36945 17.8048 8.21443 17.8647 8.10013 17.9712C7.98583 18.0777 7.92161 18.2222 7.92161 18.3728C7.92161 18.5234 7.98583 18.6679 8.10013 18.7744C8.21443 18.8809 8.36945 18.9408 8.5311 18.9408L26.0005 18.94L21.8744 22.785C21.7602 22.8914 21.6961 23.0357 21.6961 23.1861C21.6961 23.3366 21.7602 23.4809 21.8744 23.5873C21.9886 23.6936 22.1434 23.7534 22.3048 23.7534C22.4663 23.7534 22.6211 23.6936 22.7353 23.5873L27.9004 18.7739Z" fill="black"/>
</svg>
