<svg width="38" height="38" viewBox="0 0 38 38" fill="none" xmlns="http://www.w3.org/2000/svg">
<path fill-rule="evenodd" clip-rule="evenodd" d="M18.5002 37C28.7175 37 37.0002 28.7173 37.0002 18.5C37.0002 13.6458 35.1306 9.22817 32.0722 5.92804C35.7182 9.30699 38.0002 14.137 38.0002 19.5C38.0002 29.7173 29.7175 38 19.5002 38C14.1372 38 9.30718 35.718 5.92822 32.072C9.22835 35.1304 13.6459 37 18.5002 37Z" fill="black"/>
<circle cx="18.5" cy="18.5" r="18" stroke="black"/>
<path fill-rule="evenodd" clip-rule="evenodd" d="M9.43064 18.2261C9.31648 18.3325 9.25235 18.4768 9.25235 18.6272C9.25235 18.7776 9.31648 18.9219 9.43064 19.0283L14.5958 23.8417C14.7099 23.948 14.8648 24.0078 15.0262 24.0078C15.1877 24.0078 15.3425 23.948 15.4566 23.8417C15.5708 23.7353 15.6349 23.591 15.6349 23.4405C15.6349 23.2901 15.5708 23.1458 15.4566 23.0394L11.3306 19.1944L28.8 19.1952C28.9616 19.1952 29.1166 19.1353 29.2309 19.0288C29.3452 18.9223 29.4094 18.7778 29.4094 18.6272C29.4094 18.4766 29.3452 18.3321 29.2309 18.2256C29.1166 18.1191 28.9616 18.0592 28.8 18.0592L11.3306 18.06L15.4566 14.215C15.5708 14.1086 15.6349 13.9643 15.6349 13.8139C15.6349 13.6634 15.5708 13.5191 15.4566 13.4127C15.3425 13.3064 15.1877 13.2466 15.0262 13.2466C14.8648 13.2466 14.7099 13.3064 14.5958 13.4127L9.43064 18.2261Z" fill="black"/>
</svg>
