<svg xmlns="http://www.w3.org/2000/svg" width="441" height="350.13" viewBox="0 0 1024 768" fill-rule="evenodd" fill="#000" xmlns:v="https://vecta.io/nano"><path d="M555.886 337.572c-1.134-1.652-3.154-2.481-4.757-3.572.718 1.646.78 2.144.052 3.714-.561 1.211-.936 2.501-1.477 3.724-.371.837-.964 1.682-1.2 2.541-.277 1.005-.133 2.027-.504 3.021 4.379-1.183 8.27-3.952 12-6.523-.695-.101-2.532-.069-3.118-.578-.479-.415-.578-1.718-.997-2.327m105.406-14.773c1.91 1.521 1.91 1.521 1.976 4.105-1.607-.978-2.14-2.176-1.976-4.105m-92.559 6.786c-.882.073-1.096-2.48-1.292-3.227l.87-.121c.398.428 1.967 3.221.422 3.348m132.776 26.117c1.25-6.927 2.774-13.812 4.804-20.555a160.47 160.47 0 0 1 3.312-9.807c1.044-2.798 3.03-5.836 3.377-8.771-3.16 2.855-5.734 6.429-8.459 9.699-2.605 3.128-5.337 6.196-7.796 9.439-1.001 1.321-1.905 2.837-1.969 4.533-.068 1.86.999 2.997 1.764 4.563.802 1.639 1.342 3.657 1.737 5.428.434 1.938-.248 2.883-.912 4.639-1.422-.701-2.647-1.089-3.685-2.358-1.103-1.347-2.035-2.861-3.077-4.256l-6.826-9.112c-4.53-6.119-8.498-12.295-11.896-19.104-3.441-6.893-6.522-13.972-9.876-20.909-.706-1.46-.997-3.062-2.88-3.059-1.393.003-2.575.867-3.884 1.209-.323.095-.654.152-.99.172a2.46 2.46 0 0 1-.163.965c-.344.419-.469.251-.948.225-.555-.03-.954-.377-1.56-.337-.841.057-1.658.612-2.449.863v-1.919c-2.511 1.289-8.592 5.603-9.913.712-.114.891.125 2.496-.75 3.067-.578.378-1.31-.017-1.936.064-.783.101-1.479.665-2.206.934-.049-1.316-1.054-1.167-2.03-1.345-1.263-.229-2.367-.93-3.67-.706-1.294.224-2.233.804-3.534.106-.874-.469-1.689-1.125-2.569-1.621-.895-.503-1.053-.852-1.437-1.744-.424-.989-.347-.765-1.356-.485-2.161.599-3-2.005-3.38-3.77-.928-4.318.136-9.035 2.984-12.404 3.664-4.335 7.545-8.587 12.334-11.719 4.426-2.893 9.129-6.472 14.295-7.874-4.124-9.23-10.002-17.827-15.241-26.466-1.5.344-2.399 1.158-4.001.903-1.264-.2-1.207-.103-1.675 1.212-.419 1.175-.648 1.345-1.769 1.704-1.165.374-.239-.352-1.106.564-.387.408-.598.852-1.079 1.188-1.761 1.233-4.063.523-5.974 1.291-1.321.531-.67 1.207-1.346 2.121-.716.966-1.931.463-2.922.307-2.067-.325-2.69.372-3.126 2.317-.324 1.441-.539 2.19-2.086 2.493-.877.173-2.239-.527-2.801.039-.215.216-.125.822-.224 1.101-.181.508-.498.922-.86 1.317-.735.8-1.739 1.459-2.737 1.878-.95.398-1.952.175-2.854.523-1.419.545-1.074 2.054-1.026 3.25-.805-.194-.992-.171-1.473-.776-.22-.277-.1-.743-.533-.862-.374-.101-2.39 1.14-2.676 1.495-.836 1.036.011 2.5-.204 3.707-.211 1.2-1.188 2.105-1.959 2.988l-.757-2.186c-.376.487-.9.836-1.061 1.447-.085.318.174.744.03 1.067-.407.904-.813.331-1.572.363-.667.028-2.462.537-2.146 1.581.214.703 1.602.541 1.437 1.496-.2 1.162-1.707.401-2.318.643-.799.316-.483.998-.756 1.691-.48 1.217-1.448 1.325-2.452 1.922-.992.59-1.377 1.304-1.832 2.317-.567 1.264-.508.923-1.731.812-.751-.069-1.145.084-1.443.778-.244.566.173 1.265-.04 1.785-.263.643-1.624 1.372-2.095 2.026-1.277 1.774-1.827 3.966-2.869 5.87a20.49 20.49 0 0 1-1.572 2.428c-.774 1.033-1.257.836-2.302 1.39-1.693.898-1.199 3.268-1.385 4.832-.097.809-.296 1.553-.872 2.163-.344.364-1.563.78-1.323 1.506.291.878 1.265-.061 1.081 1.309-.147 1.092-1.39 1.988-1.667 3.081-.191.752.06 1.468-.135 2.227-.213.827-.861 1.455-1.172 2.234s.18 1.771-.089 2.365c-.313.692-1.46.514-1.768 1.413-.337.982.451 2.527.593 3.531.09.642.429 1.34-.114 1.868-.461.45-1.556.369-1.084 1.483.218.516 1.037.408 1.127 1.187.068.6-.624 1.51-.999 1.916-1 1.08-2.892 1.98-1.529 3.355.234.237.523.126.745.447.259.374.294 1.045.442 1.473a11.33 11.33 0 0 0 1.489 2.88c2.396 3.376 6.363 4.966 9.002 8.031 3.219-3.204 6.513-6.33 9.544-9.714 2.571-2.871 5.059-5.843 8.001-8.353 1.519-1.297 3.257-2.342 4.521-3.914 1.207-1.5 1.651-3.387 2.57-5.054 1.803-3.271 4.402-6.019 6.336-9.209 3.791 2.471 2.208 8.779 1.116 12.318-.667 2.164-1.611 4.238-2.72 6.212-.939 1.672-2.258 3.334-2.709 5.231-.367 1.538.171 2.832 1.061 4.084 1.278 1.793 2.773 3.472 4.119 5.221l9.829 12.762c1.187-1.714 3.144-.592 4.721-.263 2.31.483 4.695.311 7.033.532 2.451.231 4.933.639 7.363 1.033 2.175.352.73 1.361 1.782 2.562 2.225-4.012 6.481-1.475 9.955-1.122 2.181.223 4.496.106 6.634.379 2.16.275 4.294 1.012 6.529 1.227 4.215.404 8.026 1.858 12.163 2.613 2.186.4 4.39.681 6.574 1.083.775.142 2.143.214 2.577 1.012.513.947-.531 2.947-.813 3.801-.423 1.274-.721 3.226-1.576 4.286-.663.82-.832.321-1.686.285-.988-.042-.586.171-1.269.934-.843.944-2.025.951-3.197 1.056-.534.048-1.601-.049-2.016.323-.582.522-.078.557-.124 1.357-.077 1.399-2.011 2.441-3.141 2.99-.724.352-1.502.64-2.319.581-.514-.037-1.125-.531-1.641-.326-.732.291-.676 1.672-1.099 2.256-.784 1.081-1.837.279-2.866.826-1.232.654-1.931 2.208-3.102 2.978-2.32 1.525-4.99 1.693-6.145-1.168-.462.958-1.552 2.444-1.144 3.409.363.855 1.509 1.487 2.282 1.907 2.265 1.23 4.486 2.457 6.657 3.858 4.991 3.22 9.79 6.746 15.127 9.4 5.253 2.612 10.774 5.427 16.572 6.57 5.954 1.171 12.039.431 17.572-2.035-.825-1.648-.952-2.709-1.002-4.591l-.108-5.333c-.043-3.549-.024-7.099.101-10.647.249-7.113 1.025-14.145 2.289-21.149m62.908-5.082c-.537-1.909-1.146-3.899-1.265-5.884-.087-1.432.444-3.56-.409-4.807-.361-.53-1.01-.715-1.22-1.352-.169-.512.089-1.537.02-2.1-.177-1.464-.758-2.831-1.295-4.195-1.217-3.091-1.252-6.336-2.27-9.469-.556-1.717-1.6-3.183-2.211-4.872-.557-1.538-.839-3.16-1.016-4.78-.188-1.727-.185-3.44-.601-5.138l-1.22-4.728c-.834-3.793-1.801-7.507-3.129-11.163-.502-1.382-.867-3.697-2.092-4.626-.89-.674-2.06-.499-3.095-.43-1.177.08-2.143.135-2.926 1.118-1.001 1.255-1.638 2.619-2.796 3.797-1.181 1.2-2.654 2.236-3.716 3.537-.834 1.023-.356 1.372.539 2.244-1.159.151-2.114-.169-2.958.709-.86.894-1.512 2.376-2.058 3.473-1.23 2.472-1.37 4.695-1.736 7.371l-.979-1.526c-.415 1.126-1.016 2.295-2.208 2.759-1.461.569-1.418.384-1.421 2.022-.007 2.354-1.959 3.835-3.191 5.616-.693 1-1.36 2.138-1.814 3.262-.581 1.438-.213 2.382-.073 3.854.209 2.203-1.914 3.888-3.192 5.45-.399.486-.624.725-.848 1.319-.165.442.064.721-.268 1.191-.601.851-1.856.623-2.338 1.668-.453.979.175 1.964.274 2.932.158 1.546-.774 2.972-1.282 4.382-.552 1.532-.977 3.116-1.182 4.732-.117.931-.166 1.872-.131 2.81.016.434.351 1.524.065 1.918-.368.511-1.174-.074-1.51.492-.691 1.163 1.887 1.533 2.39 1.713-.597.378-1.384.642-1.87 1.176-.642.707-.245 1.127-.511 1.919-.291.865-1.33 1.099-1.654 1.864-.332.783.317.951.654 1.602.826 1.588.084 3.965-.243 5.594-.131.654-.07 2.355-.479 2.861-.261.323-.846.204-1.074.488-.479.594.025.833.221 1.516.248.863.206 1.78-.025 2.643-.218.816-.75 1.569-.899 2.399-.162.912.291 1.222.602 2.067.693 1.886.206 4.219-.03 6.141-.276 2.236.508 4.348-.076 6.418L704 389.8l.591 2.956.291 1.457c-.122.632.091.882.635.75 1.069.308 2.719-1.376 3.602-1.873 2.65-1.497 5.51-2.571 8.262-3.865 2.859-1.343 5.251-3.157 7.871-4.869 2.698-1.763 5.544-3.274 8.174-5.14 11.377-8.074 23.711-14.884 35.574-22.229-3.323.376-3.927-4.027-4.587-6.37m14.072-91.853c1.781.518 1.373 2.026.697 3.336-.685-.647-1.892-1.405-2.213-2.33-.397-1.148.493-1.304 1.517-1.006m49.769 44.612c-.095.457-.198 2.327-.549 2.617-.319.262-1.959-.108-2.393-.131-1.375-.072-2.424.207-3.726.529-2.238.554-2.642-.839-2.652-2.922-1.721 3.396-4.586 5.096-8.247 5.751-1.637.293-3.39.643-5.049.714-1.238.053-2.633-.056-3.858-.269-.777-.135-1.484-.613-2.217-.751-1.604-.3-.16.856-1.318 1.164-.297.078-1.42-.407-1.86-.433-.709-.042-1.423.075-2.132.039-1.608-.084-2.133-.979-3.407-1.669-.668-.361-1.124-.31-1.84-.209-.787.11-.189.372-1.107.21-.296-.052-.832-.384-1.075-.494-1.739-.781-3.099-1.476-4.44-2.83-.982-.991-2.22-1.657-3.198-2.639-.353-.354-.545-.787-.857-1.153-.405-.475-.433-.355-.94-.708-.58-.403-1.03-.63-1.383-1.268-.603-1.088-.579-2.592-.674-3.8-.322-4.115.415-7.781 2.371-11.41 2.122-3.939 3.882-8.106 6.367-11.841 2.248-3.378 5.068-6.55 7.836-9.515.782-.839 1.634-1.816 2.582-2.47.616-.424 1.42-.614 2.002-1.078 1.382-1.105.709-3.131.709-4.667.436.773 1.12 1.927 2.165 1.673.687-.166.71-.94 1.208-1.243.383-.234.833-.116 1.258-.16-1.672-8.202-3.824-16.479-6.516-24.411l-21.863 21.926c-3.686 3.836-7.088 7.929-10.756 11.78L751 275.723c1.06 1.026 2.274 1.721 2.997 3.043.665 1.213 1.43 2.134 2.345 3.173 2.069 2.349 3.058 5.847 4.338 8.675.253.556.321.723.254 1.226-.041.306-.357.578-.363.952-.007.474.218.789.5 1.149.264.338 1.041.721 1.105 1.161.077.525-.462.876-.641 1.367-.791 2.162 1.806 3.691 2.684 5.386.482.931.706 1.872.086 2.803-.507.762-1.626 1.057-1.032 2.216.371.726 1.405.327 1.252 1.336-.083.541-1.126 1.048-.149 1.641.79.479 1.73-.378 1.361 1.107-.164.663-1.052 1.33-.799 2.072.248.722 1.541.84 2.055 1.405.648.714.941 1.907 1.068 2.835.438 3.164 1.166 6.036 1.892 9.144.486 2.081-.766 2.118-2.616 2.132 1.247 1.749 2.474 3.503 3.806 5.189 1.303 1.65 1.639 4.21 2.25 6.206l2.162 7.207c.325 1.095.55 2.165.115 3.267-.5 1.267-.492 1.273-.261 2.586 5.77-3.308 11.216-6.987 16.69-10.767l7.848-5.473c2.043-1.46 4.056-3.044 5.37-5.222 3.05-5.058 7.537-9.023 11.616-13.29 2.074-2.17 4.006-4.865 6.541-6.512 2.452-1.595 5.054-3.007 7.528-4.592l-2.746-3.769m-182.582 67.947c2.351-1.12 4.518-2.626 6.804-3.872 1.982-1.082 3.785-1.604 5.489-3.102.713-.628 1.382-.864 2.219-1.278 1.062-.526 1.871-1.459 2.814-2.157-2.408-.937-4.769-2.387-7.429-2.419-1.181-.014-2.269.407-3.45.188-1.201-.223-2.137-.838-3.092-1.548-1.732-1.285-2.501-1.094-4.378-.032-.448.254-1.06.821-1.606.805-.883-.026-.75-.569-1.132-1.175-.349-.55.094-.614-.543-.631-.384-.01-.557.52-.986.604-.813.158-2.347-.637-3.161-.785-1.368-.247-2.42.049-3.773.134-1.405.09-2.773-.236-4.091-.685l-3.571-1.352c-1.582-.477-1.904.143-3.366.48-2.226.511-4.384-2.693-6.422-1 2.989 4.355 7.08 8.029 10.858 11.73 2.033 1.988 4.091 3.936 6.321 5.706 1.005.799 2.032 1.573 3.055 2.35l1.393 1.064c.83.641.754.833 1.542.464 1.06-.496 1.88-1.546 3.042-2.05 1.148-.497 2.333-.903 3.463-1.441m1.484-95.413c.085 1.959 1.302 3.564-.416 5.222l-.152-2.918c-.053-1.013-.564-2.114.568-2.304m-1.915-8.537c-.29.851-.659 1.467-1.471 1.901-1.16.62-2.766-.385-3.574.497-.812.889-.718 2.974-1.777 3.7-.339.232-.715.07-1.118.373-.346.26-.361.878-.714 1.15-.578.446-1.072-.01-1.618.25-.612.292-.712.989-.875 1.601-.159.6-.156 1.375-.597 1.844-.536.571-1.778.975-2.433 1.382L624 284.468c.701.71 2.25 1.518 2.43 2.565.122.714-.373.793.22 1.356.269.255 1.219.528 1.544.69 1.335.67 2.689 1.26 4.15 1.577 1.738.379 3.478.2 5.208.614 1.818.434 3.609.769 5.486.727 1.602-.036 3.116-.483 4.703-.62 2.976-.256 6.834.011 9.259-2.086-.241-2.154-.48-3.791-1.281-5.842l-2.246-5.633c-1.538-3.78-3.105-7.426-5.06-10.998-.399 2.503-1.355-.792-2.298-.818-.694-.019-.7.869-.873 1.371M810 294.557c1.31.325 2.362.491 3.589 1.055.908.417 1.254.639 2.046-.075.43-.386.509-.962 1.061-1.251.545-.285 1.287-.192 1.87-.222L823 293.9l-5.099-4.9c-.265.453-.972 2.123-1.492 2.231-.156.032-.642-.491-.904-.511-.28-.022-.482.104-.726.213-.629.279-.909.924-1.611 1.096-.688.17-1.469-.149-2.167-.166-.191.658-.681 1.846-1.002 2.695m-2.078-21.198c.296-1.223-.341-2.485-.147-3.728l-.421-.632c-.328.733-.539 1.455-.984 2.135-.371.567-.952 1.043-1.203 1.689-.456 1.172.116 2.136.69 3.176.768-.858 1.782-1.47 2.065-2.64"/><path d="M797.813 276.001c-1.032.024-.639.505-.779 1.275-.089.486-.328.918-.593 1.327-.53.823-1.803 1.65-1.077 2.763.619.945.652-.235 1.167.229.54.485-3.026 4.123-3.56 4.323-.29.108-.607-.222-.881.01-.247.211.088 2.306.077 2.733-.027 1.121-.101 2.328.81 3.13 1.06.93 2.805.965 4.059 1.494.859.362 1.664.88 2.571 1.124.955.256 1.777-.276 2.6-.153.619.092 1.828 1.097 2.454 1.396.841.402 1.003.464 1.822.152.451-.172 1.332-.505 1.637-.897.462-.593.109-.584.17-1.391.111-1.472 1.651-1.301 2.709-1.717-2.093-.627-3.249-2.876-4.279-4.711-.454-.809-1.378-1.776-1.624-2.683-.306-1.136.541-1.869 1.05-2.817-.693.282-3.414 1.532-2.104.055.408-.459 2.932-1.208 1.904-2.404-.619-.718-1.423.75-2.138.607-.83-.166-1.814-1.556-2.507-2.015-.836-.554-2.47-1.853-3.488-1.831M546.76 318.047c.051-3.504.621-6.989 1.637-10.34 2.088-6.883 6.514-12.915 7.938-20.014.685-3.416.463-6.881 1.122-10.305.692-3.608.664-7.303.794-10.963.13-3.606.261-7.213.215-10.822-.016-1.295-.38-3.094-.051-4.346.275-1.051.695-.657 1.586-1.036-.62-.381-1.89-.57-2.025-1.363-.091-.545.439-1.14.413-1.74-.021-.492-.258-.988-.401-1.448-.782-2.526-1.892-6.412-.453-8.837-.866-.146-1.216-.415-2.017-.049-.866.395-1.726 1.272-2.476 1.868-1.491 1.184-2.973 2.385-4.313 3.743-2.522 2.56-4.593 5.508-6.79 8.339l-6.708 8.386c-1.752 2.154-4.529 5.433-6.97 2.532-.732.974-1.197 1.954-2.396 2.426-1.463.577-2.088 1.175-3.144 2.413-.212.25-.845 1.312-1.119 1.411-.555.202-.237-.175-.672-.455-.684-.441-1.009-.741-1.253.478-.109.541.181 1.051-.083 1.587-.245.499-1.008.996-1.469 1.267-1.075.631-2.295.57-3.446.957-1.9.638-3.113 3.521-5.198 2.14-.758-.502-1.357-1.285-2.346-.752-.736.397-.862 1.381-1.923.992-.556-.203-1.011-.933-1.658-1.169-.456-.167-.945-.234-1.424-.291-1.061-.128-2.139-.083-3.167-.413-2.238-.718-3.776-2.702-5.3-4.376-1.136-1.249-.785-2.031-.469-3.617.269-1.35.55-2.697.882-4.032.657-2.651 1.508-5.267 2.781-7.691 1.48-2.819 3.642-5.184 5.618-7.656 4.111-5.14 7.989-10.561 12.45-15.403.838-.909 2.273-1.897 2.119-3.283-.167-1.522-1.895-.782-2.955-.518-2.844.708-5.459 2.084-8.172 3.149-1.501.59-3.509 1.74-5.116.984-1.516-.713-3.917-2.626-3.069-4.378.65-1.345 1.355-2.319 1.7-3.84.309-1.356.498-2.741.782-4.103.67-3.235 1.529-6.429 2.493-9.588 1.837-6.031 4.079-11.926 6.102-17.894-8.295.747-15.855 3.16-23.65 5.947.369.759 1.061 1.847.782 2.735-.343 1.094-1.82.728-2.185 1.48-.433.889.88 1.4.491 2.54-.327.958-1.267 2.065-1.811 2.926 2.551 1.645 1.559-1.773 3.349-2.007.496 2.72-.648 4-1.706 6.289-.942 2.039 1.223 1.844 1.668 3.368-1.246.207-2.1-.365-2.644 1.104-.233.626.117 2.914-.629 2.977-.55.047-.376-.955-.82-1.049-.553-.116-1.969 1.879-2.317 2.252 1.509 0 2.333.16 3.762.732-.927.905-1.861 1.792-2.824 2.66.881.364 2.378.446 2.829 1.427.418.913-.217 2.561-.306 3.506.376-.566.925-1.904 1.509-2.268.767-.479.987-.005.94 1.045-.088 1.93-2.606 1.806-2.958 3.344-.35 1.523 1.83.463 1.886 1.975.032.862-.974 1.6-.476 2.512-1.115-.625-1.251-.994-1.857-2.213-.425 1.543-1.344 3.986-.839 5.588.413 1.308 1.276.985.287 2.252-.367.469-.874.838-.887 1.478-.029 1.478 2.083 2.622.443 3.937-.637.511-1.325.568-1.649 1.455-.28.766.006 1.79-.222 2.625-.451 1.658-1.655 2.89-2.858 4.048-1.074 1.035-2.054 2.236-3.229 3.136-.637.489-.873.776-1.304 1.413-.184.271.041.527-.206.779-.289.294-1.025.263-1.415.339-1.282.25-2.839.767-3.267 2.193-1.564-1.184-3.156.256-4.673.724-.756.233-1.448.291-2.162-.107-1.139-.635-1.086-.729-2.451-.531-3.804.549-6.94-3.414-9.058-6.08-1.541-1.94-2.39-4.355-2.791-6.778-.474-2.847-.966-5.672-1.227-8.55-.546-6.032-.34-11.971-.124-18.013-7.031 3.707-13.617 8.536-19.913 13.364-6.279 4.814-11.65 10.838-17.294 16.389 1.435.093 2.82.602 4.26.63.709.015 1.405-.071 2.057-.366a4.13 4.13 0 0 0 .982-.63c.259-.523.623-.613 1.09-.272 1.413-.116 2.72-.409 4.137-.613 1.794-.259 3.702.282 5.463.587 3.295.57 6.79.191 9.973 1.214 2.785.896 5.686 2.177 8.367 3.336 2.58 1.116 4.845 3.558 7.032 5.303 1.261 1.006 2.65 1.435 3.977 2.259 1.284.796 2.259 2.53 3.167 3.703 2.191 2.835 4.637 5.452 6.831 8.271.98 1.26 1.866 2.627 2.422 4.132.286.768.31 1.63.585 2.379.245.671.709 1.057 1.116 1.627l4.038-10.855c.535-1.384 2.926-8.029 4.796-5.481 1.61 2.193.698 6.698.195 9.145l-2.154 9.816c-1.457 6.484-2.793 13.028-4.648 19.411-.12.413-.359.914-.39 1.342-.053.743-.311.321.199.839.261.265.879.186 1.125.502.451.577.296 2.584.263 3.286-.062 1.333-.807 1.918-1.156 3.105-.303 1.037.213 2.102.223 3.148.026 2.591-1.32 5.409-1.787 7.975-.298 1.628.639 4.206-1.646 4.518.568.958-.104 1.365-.603 2.072-.62.878-.661 1.763-1.054 2.775-.347.892-.884 1.506-.979 2.392-.086.805.271 1.575-.006 2.392-.325.964-.94 1.076-1.752 1.495-.784.407-.554-.067-.827.723-.12.348.04 1.15-.035 1.553-.355 1.897-1.866 3.166-3.127 4.495-.472.498-1.083 1.652-1.661 1.959-.846.449-2.113-.33-2.889.085-.712.381-1.457 3.42-1.719 4.159l-1.615 4.734-5.779 17.378c.919-.022 2.453-1.034 3.343-.62 1.02.475.363 1.874.747 2.637.274.546 1.869.463 2.619.503 1.248.068 1.815-.291 2.938-.616 1.939-.563 4.376-.366 6.396-.585 4.47-.486 9.069-.622 13.464-1.603 4.209-.938 8.243-2.498 12.373-3.712-1.928-1.014-2.287-3.514-2.839-5.416-.305-1.053-.419-1.886-1.011-2.841-.686-1.107-1.279-2.23-1.713-3.464-1.686-4.791-1.763-10.729-1.193-15.722 1.166-10.203 4.8-19.756 10.402-28.318 2.679-4.094 5.777-7.869 9.206-11.355 3.5-3.557 7.093-7.449 11.201-10.315 1.861-1.299 4.034-1.755 5.661-3.303 1.249-1.186 3.249-1.448 4.781-2.286 2.139-1.171 3.956-2.092 6.362-2.585 1.771-.363 3.76-1.267 5.605-1.037 1.262.157.79.747 1.532 1.328.98.768.625-.315 1.351-.586.612-.229.998.355 1.509.54.233.085 1.271.069 1.217.036.562.34.468 1.543.788 2.111.345.613.855 1.028 1.07 1.722.288.929.091 1.633-.3 2.423-.431.872-1.081 1.301-.04 2.147-2.597 1.709-.994 5.141-2.949 7.211-.664.703-2.158 1.686-2.136 2.778.025 1.179 2.14 1.644 1.052 2.821-.991 1.069-3.127.563-4.273 1.515-1.156.961-.771 2.612-.875 3.933-.08 1.011-1.064 2.231-.655 3.206.268.641.734.546.754 1.245.017.566-.452 1.318-.607 1.866l-1.298-.568c-.206.763-.56 1.501-.656 2.29-.113.927.265 1.374.459 2.199s-.253 2.268-.335 3.259c-.095 1.134-.207 2.325-1.013 3.205-.477.522-1.134.603-1.649 1.007-.48.376-.626.881-.954 1.381l2.237-.659c-.302 1.424-.838 2.001-1.787 3.121l-.469-2.467c-.271.863-.76 1.549-.713 2.48.04.795.397 1.558.401 2.377.006 1.598-1.173 2.645-.69 4.182.583 1.859.703 2.835.127 4.737-.505 1.667-1.212 3.327-1.336 5.082-.138 1.982.755 3.688.569 5.701-.085.933-.474 1.591.565 1.694.927.093 1.934-.673 2.734-1.055l11.844-5.703c-.736-1.024-.555-1.056-.096-2.317l1.034-2.849 2.219-6.044c1.402-3.741 3.28-7.437 3.964-11.398.618-3.576.299-7.142.351-10.742M305.304 605.621l-3.917-2.471 2.283-1.742c.825-.629 1.196-1.216 1.683.021.512 1.301-.099 2.844-.05 4.192m-1.661-9.489c1.839 2.148-1.596 2.769-2.92 3.04.215-1.034.979-5.31 2.92-3.04m40.276-7.559c-.595-1.826-1.561-6.872-4.318-6.559-.66.075-1.255.733-2.037.789-.668.048-1.324-.131-1.985-.187-1.449-.122-3.006-.039-4.393.422-1.613.538-2.803 1.303-4.558 1.416-1.253.082-2.571-.023-3.794.332-2.095.606-1.954 2.465-1.66 4.309-.355-.402-.758-.71-1.015-1.182-.29-.534-.292-1.134-.743-1.6-.894-.927-1.923-.488-3.028-.409-1.25.09-2.853-.746-4.052-.277-.533.208-.849.805-1.404 1.054-.493.22-1.036.258-1.562.321-1.18.138-2.388.531-3.457.509-1.515-.031-2.794-.129-4.296.278l-4.142 1.338c-1.555.426-3.162.467-4.74.777-3.147.618-6.247 2.031-9.463 2.212l-4.99.359c-.518.082-1.686.055-2.108.345-.471.323-.792 1.665-1.059 2.216-2.884 5.954-4.976 12.289-7.278 18.484l-7.182 19.327c-1.132 3.027-2.577 6.045-3.515 9.132-.867 2.855 2.504 4.866 4.296 6.663 4.388 4.398 8.825 8.745 13.807 12.478 5.017 3.76 10.691 6.289 16.401 8.809 5.859 2.586 12.015 4.063 18.344 4.956 3.252.459 6.524.772 9.797 1.035 3.281.265 6.062-.189 9.297-.605-.32-.747-1.362-2.056-1.239-2.886.035-.233.513-.621.626-.895.154-.374.139-.77.149-1.163.045-1.883-.692-3.709 1.722-4.38l.241 3.084c1.167-1.755.43-3.639-.278-5.407l-2.459 2.051c.168-.499 1.541-3.668 1.161-3.967s-1.061.495-1.468.114c-.331-.311.038-1.047-.066-1.445-.168-.639-.86-1.13-.853-1.829.011-.932 1.206-1.652 1.771-2.252.828-.879 1.165-1.508 1.161-2.709-.006-1.66.772-1.569 1.983-2.677 1.959-1.79 2.08-4.255 1.071-6.613l2.6-.199-2.417-6.069c-.779-2.004.284-3.057.809-4.927l3.569 3.532c.337-3.806 1.346-7.647.869-11.484-.148-1.19-.37-1.119.176-2.008.393-.639.948-1.135 1.293-1.829.677-1.364.881-2.888 1.017-4.385.127-1.391.066-2.92.461-4.269.297-1.019 1.273-1.59 1.508-2.721.407-1.961-2.722-5.383-.902-6.836.928-.74 2.082-.032 2.752-1.242.574-1.038.797-2.471 1.134-3.595.537-1.792.789-3.185.141-4.987l-1.695-4.751m28.735-91.813c-.458-1.047-1.172-1.235-2.255-1.444-4.659-.896-9.361-.901-14.064-1.333-1.336-.122-2.667-.311-3.972-.636-1.092-.274-2.122-.882-3.194-1.137-2.136-.51-4.256.904-6.391.801-1.092-.053-2.015-.704-3.056-.977-.853-.224-1.629-.048-2.499.007-1.686.108-3.386.022-5.063-.152-2.067-.215-4.125-.577-6.128-1.124-1.327-.361-3.335-.748-4.318-1.762-2.238 3.433-4.12 7.027-5.74 10.783-1.578 3.653-3.673 7.107-5.597 10.59-3.918 7.098-6.724 14.72-9.375 22.353 1.461-.671 2.52-1.355 3.618.162 1.035 1.433 2.263.964 3.938 1.234 2.687.434 2.978 3.409 3.567 5.631l2.608-3.246c.698.777 1.819 1.18 2.387 2.074.364.572.159 1.102.375 1.647.2.507.712.712 1.098 1.071 2.662-3.403 5.161 2.999 5.482 5.189l1-2.546c.473.513 1.118.952 1.488 1.55.231.373.22 1.04.465 1.35.367.462.608.259 1.136.386.848.205.685.157 1.176.812 1.482 1.976 3.689 3.497 4.939 5.623 1.569 2.674 3.707 5.428 4.649 8.383.54 1.693.776 3.281 1.658 4.856.463.83 1.266 1.54 1.684 2.349.521 1.007-.397 1.422-.294 2.322.102.908 1.608 1.79 2.356 2.072 1.176.443 2.569.304 3.81.339 1.597.047 3.491-.012 5.041-.472 1.351-.402 1.246-1.095 1.617-2.286.439-1.412 1.208-2.764 1.82-4.108.911-1.999 1.352-3.332-1.374-3.931 1.565-.262 4.121-.722 3.623-2.818-.238-1.007-1.146-1.683-1.006-2.794.14-1.133 1.015-1.514 1.851-2.103 1.581-1.113 2.718-3.191 3.291-4.991.319-1.001.405-1.781.069-2.785-.531-1.583-.811-2.877-.943-4.566l2.163.23c-.158-.639-.182-1.147-.474-1.734-.096-.191-.596-.341-.568-.611.049-.469.684-.458.961-.787.716-.845.924-2.818 1.221-3.842.282-.973.431-2.154.961-3.027.986-1.627 2.204.668 1.958-1.641-.125-1.17-.215-2.904-1.673-3.074-1.736-.202-2.235.482-2.073-1.599.114-1.472-.282-4.632 1.296-5.423.752-.377 1.991-.331 2.83-.402 1.005-.085 1.796.447 2.72.416 1.55-.053 1.461-2.263 1.64-3.387.786-4.995 1.182-10.08.695-15.125-.192-1.992-.316-4.498-1.135-6.369"/><path d="M413.046 299.57c-.102-3.646-.102-3.646 1.921-5.028.535 2.32-.796 3.486-1.921 5.028m36.757 9.305c.437-.868 2.237-.614 2.998-.603-.355.735-1.592 2.525-1.969 3.891-.419-.792-1.456-2.44-1.029-3.287m-4.725 25.824c.791-.626.606-.595.984-1.351.292-.586.222-.893.848-1.283 1.268-.786 1.464-.783 1.79-2.461.284-1.462.167-3.547.809-4.9.46-.97 1.978-1.059 2.005-2.277.05-2.366-4.228-3.572-3.412-5.958.244-.71 1.014-.932 1.342-1.542.199-.373.063-.861.129-1.259.147-.891.392-1.085 1.215-1.319-.09.408-.096.771.044 1.041.54 1.046 2.692-.207 3.18-.928 1.012-1.488.078-3.959-.255-5.511-.452-2.111-.384-3.716-.216-5.832l2.752 3.019c.499-1.523.587-2.342 1.984-3.295 1.296-.883 1.799-1.468 2.631-2.778.316-.498.53-1.05 1.156-1.226.613-.171 1.622.49 2.136.235.319-.159.664-1.809.772-2.105l1.029-2.806c-1.962-4.955-3.565-10.207-6.497-14.713-2.686-4.128-6.575-7.465-10.505-10.397-1.96-1.463-3.944-2.952-6.003-4.276-2.068-1.332-4.3-1.813-6.506-2.806s-4.751-2.028-7.204-2.152c-1.248-.063-2.452.229-3.701.064-1.383-.182-2.711-.65-4.084-.883-.004 7.181-2.618 14.464-5.062 21.144-1.112 3.04-2.707 5.845-3.876 8.862l-3.612 9.058c-2.635 6.17-5.04 12.607-8.437 18.411-.301.515-.643.881-.463 1.337.052.131.483.392.595.507a5.52 5.52 0 0 1 .859 1.198c.558 1.014.815 2.156 1.226 3.228.943 2.455 2.627 4.864 3.928 7.163 1.488 2.627 3.479 4.923 5.67 7 1.031.978 2.556 1.879 3.175 3.175.485 1.016.505 2.209.848 3.272l.36-2.548c.901 1.911 3.222 2.089 4.901 3.041 2.126 1.207 3.976 2.694 6.243 3.669 2.285.983 4.666 1.774 7.129 2.177 1.226.199 2.508.348 3.752.294 1.273-.056 2.187-.672 3.339-1.124-3.616-3.117-2.3-8.524-.237-12.119l1.904 4.19c.418-.994 1.849-1.931 1.212-3.097-.385-.706-.884-.524-.996-1.341-.086-.621.331-1.471.635-2 .273.74.384 1.417.484 2.202m-10.54 23.251c-.813-1.794-4.16-2.21-5.841-2.554-2.776-.57-5.434-2.211-7.93-3.516-2.39-1.251-4.411-2.419-6.346-4.283-.903-.869-1.651-1.055-2.766-1.555-1.07-.478-1.799-1.228-2.572-2.087-1.617-1.793-3.728-3.152-4.954-5.259-1.243-2.138-2.966-3.504-4.494-5.43-1.786-2.254-3.055-4.861-4.609-7.269-2.786 3.001-3.54 7.684-5.23 11.326-2.105 4.538-4.118 9.12-6.095 13.716-3.544 8.245-6.988 16.541-10.074 24.97-.113.31-.72 1.34-.616 1.673.103.326.888.682 1.136.947.651.692 1.062 1.54 1.586 2.331.96 1.444 2.056 2.794 3.241 4.058 2.675 2.855 5.788 5.528 9.193 7.466 1.479.843 3.588 2.512 5.282 2.367 2.179-.186 3.835-.333 6.025.161 2.135.481 3.996.901 6.196.841.858-.023 1.75-.137 2.571.201.587.242 1.006.914 1.67.943.833.038 1.332-.748 2.101-1.032.672-.248 1.392-.285 2.1-.25 1.036.051 3.451.984 4.28.184.896-.863.555-3.358 2.232-3.685 1.246-.244 3.768 2.034 4.785 2.673-.44-1.324-1.951-3.914-1.13-5.303.355-.603.849-.71 1.561-.566.828.168.898.76 1.556 1.129 3.571 2.006 3.252-7.531 3.134-8.991l-2.722-.156c0 .836.263 2.711-.298 3.052-.464.282-2.149 0-2.734 0 1.241 1.18 1.822 2.19-.051 3.198-1.275.687-2.855-.076-2.99-1.646-.142-1.643 2.423-1.894 1.951-3.517-.63-2.178-2.549 1.511-2.898 2.154-.512-1.89-.191-3.62 1.076-5.114 1.501-1.772 3.209-1.879 5.339-1.318.203-.895.662-1.512.908-2.328.293-.975-.154-.742-.583-1.589-.699-1.378.7-1.857.964-3.041.157-.707-.132-1.326-.477-1.917-.384-.658-1.127-1.111-.027-1.471.817-.267 1.782.516 2.553-.189.835-.765.528-2.36.982-3.311.683-1.436 1.443-.549 2.551-.146.832.303 1.082.274 1.182-.645.051-.459-.012-.918-.364-1.243-.575-.53-1.37-.152-2.019-.329-.881-.241-.925-.797-1.26-1.592 1.536-.136 1.559.353 2.95.941 1.107.467 2.32.398 3.435-.011-.773-.277-1.715-.347-2.406-.827-.878-.611-.678-1.324-1.056-2.158"/><path d="M530.244 305.993l4.26-8.564c.829-1.751 2.622-4.171.494-5.615-1.435-.973-4.058-2.34-5.871-1.605-1.539.624-2.384 4.264-4.502 1.877-.386 1.101-1.699.921-2.487 1.517-.585.443-.532.892-.886 1.46-.367.588-.984.991-1.438 1.505a11.91 11.91 0 0 0-1.373-2.132c-.483.812-.37 1.306-.637 2.125-.153.473-.287.8-.782.984-1.132.423-2.245-.964-2.819-1.729.34 1.193.516 2.583-.299 3.624-.634.808-1.664.965-2.258 1.809-.667.946-.71 1.664-1.907 2.053-.23.075-1.033.28-1.281.275-.264-.006-.393-.46-.503-.457-.365.01-.986.459-1.32.615.745.939.453 1.331-.351 1.942-.975.741-.921.818-1.4 1.954-.229.541-.497 1.03-1.03 1.328s-1.25.044-1.696.355c-.902.629-.801 2.261-1.512 3.057-.958 1.072-2.169 1.815-3.053 3.015-.894 1.21-1.608 2.539-2.291 3.875-1.326 2.59-3.099 5.005-3.278 7.95-.074 1.213.028 2.827-.531 3.951-.564 1.138-1.784 1.598-2.256 2.92-.397 1.12-.646 2.517-.787 3.694-.17 1.422.719 2.497.1 3.876-.59 1.313-.707 2.257-.821 3.707-.107 1.345-1.167 2.259-.516 3.408.633 1.115 1.283 1.933 1.461 3.277.194 1.458-.04 1.987-1.304 2.602.766 1.298 1.602 2.304 2.024 3.772.404 1.406.932 2.629 1.826 3.803 1.768 2.323 4.002 3.548 3.962 6.781l24.069-8.053c-3.095-.582-1.513-6.007-1.311-8.034.37-3.713.769-7.444 1.306-11.138.463-3.178 1.365-6.26 1.858-9.437.255-1.645.5-3.3.931-4.912.375-1.403 1.166-2.72 1.482-4.097.718-3.125 1.16-6.03 2.461-9.018 1.246-2.861 2.786-5.578 4.269-8.319M296.545 582.617c.63-.44 1.224-.355 1.959-.435 1.897-.206 3.537-.625 5.39-1.168 2.217-.65 4.575-1.026 6.852-1.42 2.181-.378 4.393-.288 6.524-.927s3.838-1.239 6.08-1.327c2.454-.096 3.894-1.238 5.902.81 1.799-2.51 4.398-2.494 7.264-2.89 1.028-.143 2.223-.004 2.453-1.231.214-1.142-.695-2.656-1.191-3.583-2.635-4.921-4.861-10.126-8.367-14.513-3.436-4.302-7.885-9.069-12.74-11.757-2.632-1.456-5.669-2.258-8.458-3.353-3.024-1.189-5.983-2.538-8.967-3.821-1.552 1.662-1.679 3.672-2.456 5.779-.725 1.965-1.968 3.694-2.629 5.685-1.322 3.988-2.452 7.938-4.104 11.819-3.493 8.205-6.883 16.379-10.057 24.717 4.996-.776 9.864-1.264 14.909-1.579.989-.062.923-.306 1.635-.805M561 276.251c1.432.152 3.125.521 4.032 1.75 3.88-5.619 8.543-10.639 13.393-15.43 4.712-4.655 9.496-9.256 14.66-13.413 10.447-8.406 21.982-15.154 33.915-21.203l-11.312-13.107c-3.557-4.04-7.745-7.448-11.899-10.847-.334 3.372-.92 6.823-.89 10.214.03 3.417.498 6.818.544 10.234.039 2.776-.05 5.735-.764 8.43-.551 2.086-1.795 5.136-4.075 5.801-3.108.907-8.378-.631-10.703-2.816-2.003-1.882-3.062-4.687-4.653-6.888-1.089-1.505-2.233-2.147-4.067-1.55-2.745.895-5.389 2.525-7.966 3.815l-8.734 4.395c.199.143 1.386.752 1.436 1.022.017.084-.664 1.491-.684 1.767-.08 1.093.449 2.141.778 3.152.35 1.077.63 2.197.584 3.34-.049 1.214-.718 2.046-.957 3.158-.253 1.172.612 1.586 1.058 2.608.458 1.046.477 2.176.278 3.285-.162.903-.712 1.836-.705 2.748.005.491.423 1.037.276 1.542s-.742.786-1.087 1.12c1.573 1.034 1.866.883 1.243 2.571-.449 1.214-.288 2.414-.091 3.659.108.677.807 2.482.335 3.165-.431.627-1.85.137-2.503.114.241 1.263.583 1.131 1.175 2.178.387.682.349 1.567.309 2.327-.105 1.968-1.315 2.187-2.928 2.859m-231.433 208.36c2.112.619 4.144 1.08 6.346 1.228 1.905.128 3.873.181 5.645.991.65.297 1.358 1.103 2.065 1.091.846-.014.582-.591 1.174-.966.566-.357.986.044 1.541.194.826.225 1.656.216 2.513.244l7.107.186 6.322.415 6.722.001c-1.764-3.391-3.246-6.946-6-9.662-1.396-1.376-2.567-2.914-3.889-4.357-1.312-1.431-2.926-2.452-4.381-3.715-1.53-1.328-2.773-2.714-4.557-3.733-.736-.42-1.568-.975-2.373-1.223-.665-.206-1.322-.118-1.936-.48-.721-.426-1.366-1.307-2.063-1.812-.731-.529-1.506-.989-2.293-1.426-1.573-.875-3.212-1.627-4.738-2.587A309.83 309.83 0 0 0 324 485.541c1.711-1.362 3.528-1.528 5.565-.93"/><path d="M452.325 218.853c.439.52.93 1.04 1.223 1.66.337.714.14 1.402.345 2.085.253.841 1.225 1.216.635 2.272-.401.72-1.362.889-1.638 1.731-.497 1.51 1.229 2.9 1.914 4.089.407.709.691 1.46.53 2.28-.099.502-.536.875-.652 1.318-.198.778-.001-.012.09.78.094.819.429 1.68.491 2.542.064.896-.25 1.859-.083 2.727.363 1.904 1.741 4.539 2.846 6.14.957 1.388 1.747 1.881 3.32 1.259 8.399-3.317 10.096-12.415 11.797-20.187 1.009-4.607 1.579-9.05 1.632-13.76.054-4.929.436-9.862.073-14.787-1.39.399-3.129.541-4.092 1.737-.515.639-.526 1.442-1.018 2.022-.677.797-2.081 1.474-2.955 2.128l-13.206 9.878-1.843 1.379c-.633.473-.806.397-.704 1.084.08.541.957 1.224 1.297 1.625m58.972 27.454c-.791 1.031-2.29 1.264-3.252 2.215-.932.922-1.468 2.091-1.914 3.295-.593 1.596-1.232 2.75-1.273 4.48-.038 1.608-.548 3.083-.791 4.653-.163 1.064-.106 1.39.968 1.702 1.494.433 3.306.395 4.837.239 7.337-.75 13.124-6.433 17.578-11.749 5.105-6.093 9.161-12.918 13.549-19.507-2.102-1.187-4.378-2.072-6.384-3.423-1.887-1.272-3.573-2.871-5.429-4.212-.254.773-.254 1.656-.572 2.404-.362.852-.867.993-1.64 1.477-1.393.872-2.522 2.068-3.415 3.427-.82 1.249-1.226 2.841-2.214 3.946-.926 1.035-2.265 1.448-3.315 2.274-1.544 1.216-2.819 3.389-4.064 4.909-1.015 1.239-1.72 2.635-2.668 3.871m-136.839 66.857c.284.771.874 1.852.444 2.67-.787 1.493-1.567-.71-2.341-1.067l.654 3.812c.222.844.52 1.703.362 2.59-.169.949-.946 1.481-.956 2.444-.009.896.462 1.814.598 2.699-1.474-.174-1.793-.365-2.688.749.366.113 1.275.191 1.566.429.425.348.204.181.301.828.129.863-.033 2.294-.063 3.222-.034 1.073-.648.877-1.112 1.613-.323.513-.241 1.503-.159 2.071.114.783.764 1.645.669 2.432-.115.953-1.016 1.009-1.465 1.721-.586.936-.069 1.622.193 2.583.358 1.316.304 2.693.477 4.037 6.436-12.966 11.477-26.59 18.686-39.153l.524-.92-.638-.378c-.096-.63-.069-1.413-.126-2.114-.124-1.516-.542-2.988-.735-4.494-.215-1.683.159-3.301-.004-4.968-.056-.577-.19-1.149-.203-1.731-.021-.879.458-1.524.528-2.3.069-.794-.395-1.852-.399-2.705-.003-.671.069-1.338.166-2.001.255-1.773.786-3.493 1.055-5.265.55-3.639.586-7.339 1.208-10.972-.971 1.431-2.067 2.772-3.03 4.21s-1.578 3.012-2.448 4.489c-.736 1.249-1.63 2.391-2.581 3.481-.793.908-.782.849-.465 1.977.136.483.323 1.05.245 1.563-.336 2.205-3.632 1.46-3.154 3.862.242 1.213 1.155 2.328.66 3.625-.444 1.163-1.777 1.757-2.283 2.912-.557 1.272.189 2.148.237 3.384.042 1.077-.439 1.914-1.175 2.649-1.009 1.01-.964 1.672-1.223 3.103-.228 1.255-.69 2.492-1.331 3.593s-1.43 1.432-1.094 2.669c.245.895.779 1.772 1.102 2.649m-15.329 19.855c1.104 4.231 2.804 8.305 5.138 11.98.397-2.146 1.025-4.211 1.134-6.404.106-2.171.18-4.323.418-6.486.447-4.048 1.199-8.052 2.026-12.034L373 295l-7.841 12.521-3.786 6.126c-1.029 1.67-2.909 3.761-3.197 5.744-.328 2.246-.109 4.884-.033 7.157.074 2.211.435 4.339.992 6.472"/><path d="M396.008 282.951c.046.573.447 1.206.559 1.794.133.699.126 1.417.144 2.125l.172 5.13c3.455-4.756 5.305-10.413 8.419-15.374 1.347-2.148 2.836-4.225 3.826-6.569 1.086-2.574 2.089-5.137 3.342-7.642l2.066-4.096c.325-.657.668-.966.319-1.606a1.78 1.78 0 0 0-.915-.69c-.896-.19-1.417.867-2.128 1.226-.969.49-2.189.323-3.207.666-2.343.789-4.59 2.251-6.884 3.208-.73.305-1.257.425-1.2 1.301.051.778.854.62.027 1.297-.447.366-1.033.196-1.547.145 0 1.68.345 2.698-.475 4.196-.656 1.2-.386 2.117-.465 3.384-.09 1.452-.652 2.956-1.197 4.292-.51 1.255-1.27 2.236-.529 3.544.409.721 1.286 1.249.775 2.073-.458.738-1.194.462-1.103 1.594m-9.949 222.494c-2.489-1.477-.133-2.978 0-4.359v4.359zm-3.806-8.436c-.377.018-1.658.154-1.89.544-.102.173.101 1.779.1 2.021l-.064 3.683c.069 1.258.7 2.416.753 3.623.05 1.135-.668 1.741-1.006 2.752-.445 1.332.148 4.998 1.632 5.37.035-.315.1-2.745.318-2.848.71-.336 1.055 1.501 1.257 2.002 1.966-1.945 2.548-4.614 3.47-7.224l3.179-9.01-3.905-.379c-1.259-.166-2.565-.597-3.843-.535h0z"/><path d="M347.821 582.212c-1.103.466-.787 1.797-.752 2.969.047 1.6.582 2.901 1.99 3.82.521-1.384 2.386-4.416 1.844-5.862-.437-1.167-2.062-1.357-3.082-.926M561 249c.727-.663 1.853-1.095 1.988-2.175.133-1.069-.874-2.846-1.192-3.825l-.796 6"/><path d="M399.614 454.553c-1.89-.008.154-3.939.457-4.842.596 1.018 2.022 4.853-.457 4.842m15.751-49.73c.744-.445 2.152-.963 2.557-1.805.47-.975-.494-.966-1.341-1.025-1.001-.07-2.315-.135-3.293.055-1.003.196-1.432.426-2.372-.167-.533-.335-1.037-1.168-1.649-1.29-.636-.127-1.371.546-1.92.801-1.92.887-3.956.313-5.993.41-.769.037-1.408.22-2.121-.111-.911-.424-1.12-.988-2.241-.913-1.817.123-3.208.676-5.07.181-1.154-.307-2.744-1.526-3.986-1.151-1.154.349-1.758 2.165-2.67 2.934-.306-1.583-.473-3.332-1.686-4.519-1.359-1.33-3.56-1.808-5.134-2.9-3.554-2.467-6.128-6.016-8.837-9.322a40.37 40.37 0 0 0-4.092 7.89l-3.26 8.357c-2.21 5.6-4.567 11.146-6.988 16.659-4.915 11.195-10.433 22.083-15.268 33.32 3.307.081 6.537 1.706 9.386 3.265.745.408.777.569 1.256 1.213.232.311.546 1.071.966 1.174.246.061 1.032-.376 1.42-.319.583.085.991.462 1.432.811 2.784 2.192 5.563 4.503 8.203 6.872 1.213 1.087 2.036 2.114 2.859 3.515.907 1.545 1.887 2.528 3.269 3.655 2.231 1.818 3.519 5.009 5.078 7.442.895 1.398 1.768 2.817 2.453 4.332.619 1.371.835 3.017 1.963 4.09 2.383 2.265 6.111.964 8.999 1.339 1.136.147 1.41.468 2.432.009.012-.403.164-.546.459-.431a2.45 2.45 0 0 1 .92.457c.753.409 1.468.903 2.198 1.351l1.275-3.145c-.478-.01-2.204.199-2.473-.521-.226-.605.722-.774 1.079-1.148.396-.415.628-1.768 1.4-1.741.632.023.597.577.588 1.119 1.362.028 1.35-1.158 1.581-2.169.156-.68.377-1.351.553-2.028.118-.457.882-2.325.689-2.717-.486-.978-3.606-.917-1.617-2.108.635-.381 2.123-.259 2.614-.796.391-.429.426-2.189.542-2.779-.928.064-2.043.626-2.612-.2-.822-1.194.378-3.017.984-4.014.785.617 1.274 1.292 2.168.578.959-.766 1.834-2.194 2.191-3.296-1.036-.031-.852.175-1.378-.633-.3-.462-.386-1.263-.535-1.78-.304-1.063-.921-1.872.362-2.156.801-.177 1.002.008 1.235.77.307 1.004.196 2.724.315 3.798 1.255-1.584 2.542-3.288 2.071-5.434-.799.794-.881.579-1.844-.039l-2.862-1.889c1.206-1.094 3.119-.035 4.307-.933.808-.61.395-2.483.45-3.325.068-1.06.528-2.131.465-3.191-.066-1.147-1.381-1.651-.684-2.702.49-.737 1.624-.626 1.837-1.73s-.906-1.774-1.739-2.257c1.233-.401 3.604-.828 2.489-2.479-.527-.781-1.165-.849-1.154-1.957.009-.801.538-1.667.879-2.364.462 1.058 1.143 3.541 2.579 3.457 1.196-.071 2.259-1.145 1.915-2.228-1.061-3.338-4.08-3.581-7.017-4.209.549-2.023 1.997-1.906 3.46-.879.866.607 1.409 1.119 2.512.493 1.149-.652.594-.895.086-1.832-1.035-1.906.398-2.999 1.801-4.11.808-.641 1.199-1.44 1.889-2.135.708-.71 1.851-.867 2.743-1.284-1.068-.522-2.035-1.066-3.224-.659-.79.271-1.368.801-2.27.344-2.019-1.022.603-1.283.872-2.128.153-.479-.366-1.453-.17-2.134.199-.697.633-1.287 1.019-1.887.82-1.275 1.717-2.563 1.228-4.154.989 1.137 1.321 1.387 1.399 2.986.07 1.419.079 2.846.364 4.244.062-2.061 1.953-3.435 2.271-5.417.098-.619-.404-2.133.185-2.463.459-.258 1.401.401 1.888.404-.339-1.883-.395-3.867-1.032-5.686-.623-1.781-2.244-2.466-3.604-3.632"/><path d="M933.692 204.51l-7.449 1.815-9.01 1.529c-2.025.294-3.859.756-5.19 2.449-2.477 3.153-4.971 8.59-1.559 11.936 1.604 1.572 4.416 1.077 6.477 1.731 2.296.729 4.435 1.539 6.842 1.852 11.221 1.458 22.381 4.17 33.36 6.871 5.009 1.232 10.008 2.936 14.797 4.858 2.452.984 4.848 2.13 7.041 3.613 1.874 1.267 4.014 2.516 5.524 4.217-6.004 1.02-12.746 1.139-18.75.12-3.012-.512-6.043-.368-9.08-.598l-9.13-.714c-2.951-.26-5.882-.587-8.811-1.026-1.085-.162-2.183-.323-3.281-.18-.638.083-1.041.277-1.623.144-.489-.111-1.012-.494-1.503-.658-2.248-.751-4.647-.606-6.977-.74-1.747-.1-3.612-.625-5.36-.238-3.075.678-4.476 4.996-5.18 7.644-.443 1.667-.09 3.741.45 5.389.619 1.891 1.757 1.856 3.282 2.714 2.178 1.227 4.088 2.568 6.437 3.525 1.967.802 3.98 1.499 5.928 2.353 4.287 1.877 8.935 3.506 12.973 5.876 2.189 1.286 4.262 2.57 6.558 3.684 2.068 1.002 4.06 2.148 5.949 3.457 3.853 2.671 7.205 5.994 10.062 9.703-1.326 0-2.408.171-3.678-.278-1.559-.55-3.015-1.359-4.594-1.858-3.009-.95-5.958-1.844-8.932-2.927s-6.015-2.156-9.049-3.052c-1.555-.459-3.126-.663-4.703-1.001-1.391-.298-2.626-.923-3.94-1.45-6.309-2.533-13.063-3.752-19.591-5.581-6.356-1.781-12.64-3.629-19.129-4.883-3.021-.584-6.048-1.136-9.097-1.554-2.985-.41-5.585.003-8.47.768-3.036.806-5.79 1.552-8.689 2.828-2.072.912-5.144 1.711-6.759 3.283-.966.942-1.597 1.875-2.827 2.562-.936.524-1.95.888-2.955 1.252-2.276.825-4.431 1.91-6.693 2.764-1.423.537-2.899.962-4.424 1.059-1.457.094-1.966.446-3.274 1.084-2.044.995-4.285 1.461-6.44 2.14-2.146.677-4.588 2.466-6.912 1.651-2.258-.793-3.704-3.701-5.051-5.506-3.547-4.745-6.596-9.445-8.569-15.058l-6.112-17.915-3.184-9.314c-.596-1.721-1.833-3.572-.485-5.162 1.564-1.843 2.121-4.748 3.738-6.812 1.607-2.051 3.418-3.937 5.121-5.907.995-1.15 1.966-2.324 2.852-3.561.726-1.014 1.263-2.256 2.069-3.198.732-.855 1.809-1.358 2.612-2.148.873-.859 1.651-1.877 2.451-2.805 2.102-2.436 4.101-5.018 6.343-7.326 1.85-1.906 3.964-3.602 5.865-5.479 4.118-4.065 8.49-7.859 12.758-11.762l12.449-11.368c3.8-3.656 8.36-6.613 12.62-9.67 4.666-3.349 9.141-6.883 14.166-9.708 4.807-2.703 9.646-3.517 15.012-4.318-.531 1.042-.908 2.145-1.61 3.086-1.039 1.39-2.398 2.63-3.573 3.907l-7.207 7.758c-4.703 5.009-9.628 9.815-14.192 14.952-3.637 4.093-6.464 8.271-7.967 13.589-.792 2.804-1.186 5.812.515 8.389 1.302 1.969 3.441 1.817 5.599 1.624 5.561-.498 11.077-2.391 16.58-3.374 6.119-1.092 12.375-1.361 18.55-2.019 3.1-.33 6.162-1.183 9.262-1.417 1.398-.105 2.778.179 4.175.063 1.39-.116 2.783-.455 4.152-.709 2.879-.535 5.494-.838 8.408-.45 2.898.386 5.666.084 8.564-.155 6.12-.504 12.393.156 18.48.816 5.827.632 11.607 1.334 17.298 2.724l-17.903 4.453c-6.119 1.411-12.438 2.36-18.444 4.18-2.614.792-5.301.906-7.962 1.463h0zM461.874 330.8c.652-2.371 1.314-4.92 2.144-7.286.191-.547.486-.972.795-1.377-.563.938-.96 1.869-1.34 3.128l-1.599 5.535h0zm-1.306 2.426a10.82 10.82 0 0 1 .449-.879 10.82 10.82 0 0 0-.449.879h0zm-.478 1.174c.104-.292.219-.58.34-.864a14.51 14.51 0 0 0-.34.864h0zm1.654-3.147a9.46 9.46 0 0 0-.613.904c.187-.309.386-.613.613-.905v.001zm364.846-22.126c-2.377 1.515-4.689 2.472-6.637 4.57-4.389 4.728-9.118 9.203-13.342 14.076-1.698 1.956-2.554 4.381-4.452 6.202-2.156 2.069-4.786 3.68-7.225 5.385-5.418 3.787-10.782 7.88-16.499 11.202-1.282.744-2.579 1.517-3.902 2.184-.87.438-1.965.674-2.728 1.294-.726.591-1.019 1.467-1.809 2.041-.582.424-1.283.77-1.893 1.157l-15.139 9.363-14.787 9.207c-2.582 1.684-5.021 3.576-7.615 5.237-2.113 1.354-4.32 2.556-6.392 3.973-2.197 1.502-4.248 3.04-6.653 4.217-2.326 1.138-4.745 2.081-7.061 3.24-1.365.682-2.599 1.512-3.899 2.297-.851.513-1.563.438-2.488.754-2.696.923-5.113 2.521-7.864 3.374-11.426 3.54-22.473-1.511-32.433-6.882-5.019-2.707-9.59-6.174-14.398-9.225-2.103-1.333-4.727-2.302-6.65-3.869-.968-.789-1.341-1.619-2.472-2.24-1.025-.561-1.959-1.125-2.883-1.844-4.559-3.548-8.819-7.192-12.887-11.301l-6.608-6.79c-1.697-1.799-3.019-3.985-4.586-5.914-3.769-4.639-7.426-9.346-11.059-14.091l-5.279-6.921c-1.18-1.534-2.958-3.049-3.364-5.035-.374-1.827.698-3.574 1.58-5.081 1.328-2.268 2.595-4.523 3.485-7.007 1.339-3.736 3.382-10.893-.706-13.573-1.504 2.497-3.405 4.717-5.025 7.134-1.63 2.434-2.333 5.509-4.291 7.678-2.057 2.277-4.796 3.928-6.953 6.146-2.15 2.212-4.117 4.594-6.2 6.87-2.181 2.382-4.495 4.633-6.791 6.904-2.158 2.135-4.622 3.85-7.052 5.665-2.542 1.899-5.163 3.591-7.897 5.202-1.181.696-2.396 1.553-3.691 2.019-1.378.494-2.588.792-3.914 1.479-5.398 2.793-10.839 5.473-16.319 8.097-1.471.705-3.021 1.684-4.601 2.075-.606.15-.953.014-1.621.227-.704.224-1.403.619-2.079.917-2.812 1.241-5.683 2.198-8.596 3.175-6.06 2.03-12.215 3.883-18.209 6.1-5.611 2.076-11.068 4.321-16.851 5.93-5.697 1.585-11.713 1.849-17.578 2.424-1.576.155-3.427-.007-4.941.433-1.359.395-2.112.685-3.592.566-2.62-.21-5.067.288-7.666.687 3.957-7.789 6.011-16.66 8.877-24.91.757-2.182 1.677-4.218 2.307-6.437.561-1.984 1.378-3.888 2.362-5.698 1.2-2.208 1.568-4.763 2.369-7.132-.623 1.862-.961 3.844-1.553 5.71l2.491-4.694c.819-1.659.809-2.648.819-4.434 2.126.245 2.206-1.942 2.534-3.501l1.534-7.102c.259-.547.17-1.444.306-2.039.162-.704.432-1.379.672-2.057 1.855-5.256 3.894-10.424 5.241-15.843 1.485-5.976 2.785-12.007 4.121-18.018.709-3.191 1.651-6.443 1.96-9.702.148-1.562.944-6.6-1.268-7.302-1.709-.543-3.541 4.667-3.986 5.813l-3.14 8.403c-.923 2.51-1.638 5.046-2.667 7.518-1.041 2.499-1.405 5.104-2.327 7.64-.541 1.491-1.411 2.587-2.008 4.012-.434 1.041-.594 2.171-.951 3.237-.739 2.211-1.884 4.372-2.718 6.572-1.066 2.81-2.379 5.517-3.548 8.285-1.069 2.532-1.679 5.2-2.684 7.738-.965 2.438-2.463 4.615-3.425 7.075l-3.059 8.15c-2.154 5.587-4.337 11.131-6.025 16.881-.422 1.438-1.142 2.851-1.493 4.133-.318 1.161-.887 2.082-1.343 3.237-.819 2.073-1.16 4.405-1.575 6.589v.001l.124-.708c-.862.036-1.786.224-2.387-.548-.685-.877-.493-2.579-.622-3.631-1.013.133-.617.59-.507 1.506l.169 1.417.426 3.544c.323-.19 1.003-1.292 1.28-1.322.423-.047.884 1.102 1.081 1.67a4.61 4.61 0 0 1-.269.63c-.269.524-.524.89-.729 1.46-.381 1.063-.669 2.144-1.209 3.146a7.96 7.96 0 0 1-.926 1.386c-.27.317-1.15.84-1.297 1.173-.369.833.193 2.912.141 3.883-.067 1.261-.269 2.611-.821 3.763-.232.483-.652.776-.87 1.193-.305.588-.32.892-.391 1.654-.25 2.716-1.29 5.259-2.229 7.792-1.054 2.844-1.876 5.764-2.834 8.64-.905 2.721-2.064 5.338-3.022 8.039-1.115 3.144-2.109 6.33-3.153 9.496-.781 2.371-1.977 4.478-2.816 6.81-.859 2.387-2.07 4.533-2.488 7.015-.463 2.747-1.909 5.496-2.953 8.067-.871 2.148-2.677 4.431-3.036 6.719-.168 1.074.098 2.077-.256 3.144-.307.926-.894 1.715-1.285 2.602-.537 1.219-.137 2.348-.507 3.594-.321 1.084-1.054 1.847-1.646 2.773-1.043 1.634-.689 3.529-1.762 5.234-1.512 2.405-2.047 5.099-2.858 7.831-.399 1.342-.694 2.723-1.052 4.076-.142.538-.213 1.61-.499 2.106-.358.625-.969.381-1.278.74-.268.312-.327 1.32-.444 1.721-.374 1.269-.909 2.501-1.425 3.721-1.109 2.621-2.384 5.172-3.344 7.852l-3.018 8.413-1.459 3.992c-.506 1.296-1.037 1.691-1.886 2.683-.836.975-1.182 2.34-1.965 3.373-.736.969-1.232 1.681-1.554 2.887-.605 2.268-1.053 4.548-1.999 6.716-2.394 5.481-5.378 10.695-7.781 16.182-2.518 5.752-4.907 11.562-7.088 17.45-2.046 5.527-3.355 11.256-5.448 16.763-2.071 5.452-3.852 10.986-5.893 16.452l-6.148 17.102c-.685 2.075-1.145 4.14-1.588 6.23l.429-2.729c-2.021 3.381-3.877 7.058-2.99 11.109.552-.779.972-1.662 1.308-2.6-.128.483-.271.955-.467 1.375-.566 1.203-1.098 2.119-1.483 3.453l-2.552 8.853c-.404 1.424-.781 2.861-1.255 4.263-.421 1.247-1.336 2.328-1.723 3.546-.432 1.362-.284 3.029-.618 4.448-.293 1.247-.72 2.463-1.361 3.577-.496.865-1.207 1.62-1.601 2.544-.479 1.126-.19 2.243-.321 3.428-.164 1.474-.692 2.879-.893 4.345-.194 1.413.466 2.29.717 3.64.262 1.412-.27 2.343-.69 3.632-.359 1.096-.566 2.264-.824 3.386-.111.48-.19 1.986-.53 2.305-.248.233-1.677.27-2.037.333-1.346.236-2.69.496-4.062.496-2.881 0-5.832-.419-8.693-.726-5.791-.621-11.617-1.537-17.171-3.333-5.266-1.703-10.575-4.194-15.462-6.792-4.927-2.62-9.298-6.209-13.416-9.945-2.235-2.029-4.363-4.173-6.493-6.313l-3.082-3.072c-.826-.811-1.897-1.584-1.98-2.837-.094-1.412.926-3.029 1.423-4.304l1.313-3.422 3.132-8.392 6.447-17.391c2.169-5.83 4.396-11.532 7.016-17.172a229.86 229.86 0 0 0 6.877-16.423c1.969-5.267 4.313-10.344 6.545-15.5 1.198-2.769 2.333-5.57 3.251-8.445.767-2.407 1.338-4.68 2.506-6.94.752-1.454 1.365-2.878 1.822-4.453.395-1.363.617-2.531 1.5-3.635 1.863-2.329 2.902-4.959 3.86-7.764 1.867-5.463 4.031-10.986 6.644-16.138 2.647-5.222 5.578-10.232 7.99-15.572 2.427-5.371 5.731-10.2 8.002-15.656 4.686-11.254 11.147-21.616 15.897-32.84 4.678-11.056 10.249-21.678 15.028-32.689 2.497-5.753 4.905-11.544 7.181-17.39l3.282-8.359c1.014-2.504 2.769-4.424 3.49-7.009.739-2.648 1.921-4.685 3.175-7.069 1.294-2.46 1.963-5.429 2.985-8.02 2.236-5.664 4.572-11.293 6.963-16.894 2.459-5.761 5.082-11.44 7.634-17.157.963-2.162 1.504-4.486 2.496-6.633.494-1.067 1.496-1.974 1.939-2.996.205-.474.156-1.134.327-1.642.229-.68.656-1.362.972-2.007 2.561-5.241 5.396-10.279 7.73-15.629 2.386-5.47 4.826-10.934 6.924-16.523 2.073-5.521 4.695-10.728 6.478-16.368.849-2.689 1.697-5.39 2.346-8.135.567-2.394 1.634-5.924 1.093-8.382-.333-1.513-2.091-4.595-3.873-3.201-1.639 1.285-2.625 3.828-3.52 5.635-1.346 2.717-2.773 5.401-3.927 8.209-.92 2.242-1.748 4.403-3.023 6.476-3.071 4.996-5.513 10.227-8.278 15.395-.626 1.17-1.362 2.139-2.212 3.143-.825.974-.592 1.439-.929 2.673-.604 2.21-2.44 3.991-3.371 6.079-1.239 2.781-2.311 5.398-3.862 8.037-1.334 2.271-2.563 4.57-3.667 6.962l-7.387 16.47c-1.296 2.915-2.554 5.854-3.976 8.71-.626 1.254-1.237 2.528-1.914 3.755-.44.798-1.239 1.448-1.61 2.259-.423.92.041 1.697-.319 2.594-.418 1.041-.873 1.464-1.781.856-2.028-1.356-2.433-4.262-3.52-6.333-2.569-4.896-5.018-9.498-5.978-15.037-.531-3.071-.319-6.197-.299-9.295.019-2.75 1.652-4.617 3.087-6.891l10.179-15.989c1.509-2.334 2.825-4.788 4.37-7.094 1.492-2.228 3.484-3.874 5.122-5.942.915-1.152 1.584-2.416 2.56-3.526.821-.936 1.606-1.907 2.276-2.957 1.279-1.999 2.152-4.161 3.556-6.1 3.313-4.576 6.684-9.128 10.174-13.571 1.861-2.37 4.052-3.837 6.354-5.726 2.254-1.849 4.271-3.958 6.349-6 4.002-3.934 7.774-8.042 12.224-11.46 4.555-3.497 9.262-6.839 14.085-9.959 2.376-1.538 5.326-2.696 7.236-4.776.788-.859 1.605-1.66 2.615-2.258.97-.574 2.099-.727 3.042-1.252 2.671-1.486 5.128-3.927 7.557-5.788l7.256-5.556c1.018-.78 2.935-1.701 3.678-2.704.417-.563.366-1.349.838-1.942 1.068-1.342 3.18-1.467 4.678-2.044 2.878-1.108 5.813-1.703 8.833-2.288 2.662-.514 5.203-1.656 7.759-2.552 5.594-1.959 11.39-3.138 17.289-3.669-2.652 7.821-5.663 15.53-7.691 23.549-.821 3.249-.96 7.043-2.329 10.105-.492 1.102-1.81 2.152-1.152 3.398.489.928 1.86 1.93 2.736 2.499 1.816 1.182 4.06-.129 5.845-.843 3.01-1.203 5.927-2.751 9.153-3.304 3.35-.573 6.165-3.746 9.642-3.695 1.454.022 2.634.717 3.724 1.621 1.121.932 2.39 1.68 3.476 2.661 2.388 2.156 5.168 4.008 8.188 5.202 1.048.414 1.941.2 2.912 1.003.723.599 1.298 1.461 2.267 1.683-4.592 4.905-9.047 9.764-12.934 15.268-1.906 2.696-3.324 5.332-4.366 8.469-.493 1.483-.948 2.616-.002 4.05.523.794 1.358 1.448 2.336 1.297 2.363-.364 4.462-3.555 5.772-5.303 1.521-2.03 3.192-3.909 4.776-5.889 3.289-4.111 6.21-8.424 10.307-11.805 1.22-1.006 2.454-2.148 3.806-2.975 1.077-.66 1.838-.156 3.033-.366 2.99-.526 5.675-2.091 8.347-3.442l8.705-4.347c1.526-.744 3.773-2.316 5.565-1.564 2.004.84 3.137 3.977 4.236 5.656 1.054 1.612 2.006 3.015 3.737 3.931 2.84 1.507 8.359 3.336 10.847.437 3.523-4.105 3.165-10.828 2.862-15.861-.187-3.086-.565-6.196-.328-9.288.208-2.72.528-5.433.796-8.15 5.007 4.106 9.739 8.274 13.888 13.264 2.206 2.656 4.495 5.241 6.774 7.836 1.14 1.299 2.167 2.436 2.945 3.966.672 1.318 1.627 2.458 2.624 3.538 2.086 2.258 3.51 5.256 5.1 7.89l4.548 7.68c2.913 5.037 5.642 9.996 7.871 15.374 1.158 2.797 2.732 5.336 3.915 8.118l3.459 8.308c.651 1.604 1.433 3.223 1.94 4.877.352 1.149.041 2.605.463 3.673.405 1.024 1.376 1.922 1.805 3.025.433 1.116.69 2.293 1.133 3.406 2.172 5.45 5.148 10.647 7.579 15.99 2.523 5.544 5.041 11.097 8.059 16.396 3.062 5.376 6.922 10.308 10.616 15.259l5.789 7.793c.668.953 1.263 2.048 2.155 2.817.843.728 1.908 1.013 2.888 1.499.541-1.439 1.278-2.383 1.046-3.98-.196-1.358-.702-2.691-1.123-3.988-.813-2.51-2.945-4.754-2.41-7.537.499-2.594 2.621-4.651 4.23-6.611l6.398-7.752c7.184-8.662 14.811-16.963 22.251-25.424l11.415-12.877c1.756-1.879 3.793-3.408 5.664-5.161 1.534-1.435 2.544-3.247 3.991-4.741 1.072-1.106 2.346-1.913 3.438-3.031l2.659-2.725 5.834-6.009c3.867-4.031 7.481-8.282 11.291-12.364 7.357-7.882 15.14-15.45 22.82-23.011 2.218 6.551 4.051 13.379 5.64 20.111.391 1.656.553 3.38 1.14 4.973.578 1.566 1.334 3.073 1.941 4.63 1.35 3.46 2.383 7.151 4.064 10.448 3.191 6.259 5.997 13.522 10.594 18.911 2.287 2.681 5.421 4.977 8.086 7.281l8.613 7.45c-2.584 1.944-5.147 3.897-7.876 5.636h0zm-237.763 41.592c-.236-.554-.464-.851-.732-1.05.2.119.376.306.605.749.493.951.797 2.047 1.148 3.056-.318-.927-.635-1.854-1.02-2.755h0zm-69.389 49.636c1.983 2.22 4.084 4.338 6.092 6.536 1.852 2.026 3.338 4.249 5.001 6.426a264.29 264.29 0 0 0 11.223 13.699c3.745 4.281 7.789 8.315 11.364 12.743s6.274 9.175 8.951 14.166c1.24 2.313 2.653 4.535 4.329 6.557.784.944 1.837 1.771 2.33 2.907.547 1.258.714 2.778 1.026 4.108l8.321 35.695c1.301 5.776 2.172 11.631 3.43 17.414 1.274 5.856 3.183 11.543 4.387 17.417 2.439 11.898 4.108 23.954 6.728 35.813 2.552 11.546 6.984 22.523 9.391 34.119.339 1.629.826 3.115.449 4.761-.313 1.369-.554 2.571-.578 3.992-.042 2.442-.278 4.366-1.693 6.45-2.79 4.11-6.688 7.686-11.201 9.737-2.421 1.1-4.724 2.581-7.338 3.2-1.259.297-2.481.1-3.727.286-1.266.189-2.31 1.068-3.474 1.546-4.657 1.913-10.601 1.34-15.543 1.344-5.447.005-10.917-.36-15.945-2.639-.411-.187-.817-.384-1.218-.591-.679-.104-.799-.41-.359-.915.002-.551.315-1.181.34-1.763.052-1.24-.318-2.431-.629-3.615-.737-2.81-1.431-5.633-2.074-8.466-2.666-11.751-3.928-23.682-5.567-35.601-.845-6.148-2.074-12.24-3.133-18.353-1.016-5.869-1.625-11.762-2.393-17.664l-2.375-17.632c-.432-3.218-1.365-6.378-1.775-9.582-.31-2.427.332-4.718-.218-7.151-1.294-5.727-1.346-11.665-2.806-17.355-1.504-5.863-3.678-11.624-5.702-17.324l-3.138-8.858c-.618-1.747-1.326-3.62-3.121-4.456-.996-.463-1.981-.411-2.875-1.102-1.099-.848-2.043-2.002-3.02-2.986l-6.306-6.36c-8.217-8.212-16.18-16.821-25.25-24.095-4.215-3.381-8.124-7.194-12.794-9.946l-14.944-8.96a55.41 55.41 0 0 0-7.661-3.76c-2.35-.94-.915-3.187-.236-5.007 1.049-2.814 1.958-5.67 2.835-8.543.663-2.17 1.025-4.98 3.246-6.157 1.453-.77 2.088.127 3.481.562.99.308 2.029.356 3.057.311 2.326-.102 5.005-1.145 7.298-.782 1.535.243 2.298.303 3.849.021 1.383-.25 2.839-.255 4.239-.359 2.587-.193 5.248-.225 7.804-.675 5.594-.984 11.261-2.272 16.625-4.151 5.744-2.013 11.217-4.806 16.722-7.379.37 2.534.733 5.11 1.669 7.51.748 1.921 1.985 4.489 3.818 5.507 4.015 2.23 6.114 6.071 9.089 9.4h0zm83.954 241.454c1.743-.948 2.075.383 3.109 1.812l8.526 11.685 8.345 11.347c2.607 3.546 5.487 6.929 7.881 10.623 2.46 3.791 4.41 7.954 6.297 12.051 1.605 3.486 3.935 7.116 2.251 11.001-1.564 3.606-6.016 5.129-9.256 6.844-4.092 2.167-7.319 3.699-11.949 2.051-8.812-3.137-17.443-7.213-25.792-11.411-7.65-3.848-13.438-9.532-19.779-15.116-3.33-2.932-6.781-5.631-9.895-8.807l-9.583-10.038c-5.074-5.109-10.394-9.627-9.518-17.537 4.841 1.621 9.602 3.657 14.63 4.63 5.298 1.024 10.702 1.65 16.103 1.37 2.328-.121 4.457-.756 6.727-1.207 2.216-.441 4.474.018 6.556-1.07 1.842-.963 2.984-2.106 5.091-2.608 2.144-.511 3.953-1.212 5.775-2.475 1.493-1.035 2.879-2.272 4.48-3.144h0zM450.629 431.93c.05.009.097.028.142.055-.045-.023-.092-.041-.142-.055h0zm-5.641-3.187c.052.032.106.071.16.11-.052-.039-.107-.074-.16-.11h0zM341.233 708.115c2.297 4.078 4.531 8.201 6.696 12.35 1.078 2.065 2.108 4.154 3.125 6.248.939 1.933 1.78 3.432 1.892 5.564-4.525-.505-9.12-3.186-12.963-5.556-4.041-2.49-7.465-5.574-10.894-8.825-3.346-3.171-6.76-6.307-10.342-9.211-1.653-1.34-3.381-2.489-5.207-3.573-.559-.331-1.123-.67-1.577-1.144-.557-.579-.757-1.591-1.433-2.029-1.378-.894-3.533.44-4.768 1.044-1.635.8-3.209 1.757-4.58 2.962-1.572 1.382-2.624 3.153-3.976 4.727-1.269 1.478-2.552 2.889-3.693 4.471-2.585 3.58-5.395 7.388-8.688 10.35-1.502 1.35-3.394 2.423-4.683 3.946-1.233 1.457-2.534 2.75-4.01 3.963-3.267 2.687-6.1 5.375-8.904 8.545-3.091 3.495-6.605 6.626-9.942 9.88-.512-2.06.403-3.784 1.312-5.561 1.058-2.073 1.807-4.313 2.69-6.466a152.33 152.33 0 0 1 6.448-13.744l6.626-12.497c1.78-3.485 4.534-7.786 3.684-11.858-.332-1.588-1.196-3.985-2.911-4.516s-3.428.971-4.806 1.786c-4.038 2.388-8.221 4.269-12.545 6.074-4.313 1.8-8.662 3.55-12.814 5.705-4.027 2.089-7.827 4.588-11.855 6.669-1.991 1.028-4.101 1.791-6.07 2.866-1.897 1.036-3.734 2.179-5.621 3.232-3.731 2.081-7.616 3.535-11.857 4.145 3.024-3.898 7.005-6.757 10.86-9.759 4.496-3.5 8.965-7.025 13.608-10.331l12.502-8.925c1.91-1.447 3.796-2.925 5.621-4.477 1.533-1.304 3.182-2.608 3.552-4.708.333-1.889-.529-4.07-2.133-5.163s-3.635-.843-5.429-.587c-5.048.718-9.968 2.259-14.853 3.679-1.123.327-2.275.861-3.4 1.124-1.135.264-2.473.153-3.635.212-2.18.11-4.356.225-6.523.502-2.264.29-4.575.207-6.825.568-2.048.328-3.472 1.436-5.566 1.386-9.298-.225-17.928 4.944-27.128 4.944l16.498-9.583c2.528-1.454 5.157-2.748 7.599-4.345 2.702-1.768 5.185-3.775 7.976-5.427 9.985-5.91 21.095-10.228 30.204-17.509 2.208-1.766 4.315-3.663 6.447-5.521.482-.42 1.117-1.202 1.691-1.472.914-.429.62-.548 1.423.273.883.905 1.495 2.009 2.228 3.035 2.899 4.067 6.461 7.634 10.481 10.593 4.674 3.438 10.06 5.525 15.297 7.94 5.28 2.433 10.491 5.026 16.021 6.858 5.577 1.847 11.482 2.794 17.304 3.481 6.164.729 11.913.316 18.031-.446.355 4.601.822 8.498 2.99 12.666 2.047 3.933 4.648 7.58 6.824 11.447h0zm23.178-350.5c.451.098 1.024.136 1.454.294-.373-.094-.848-.097-1.125-.175-.115-.032-.219-.078-.328-.119h0zm1.651 2.656c.176-.438.44-.928.484-1.378-.027.444-.267.94-.484 1.378h0zm-52.669 77.857c-6.861 4.082-13.01 9.213-19.655 13.618-3.318 2.198-6.778 4.175-10.326 5.977-1.711.87-3.436 1.733-5.221 2.447-1.547.618-3.036 1.615-4.62 2.084-1.723.51-3.488.202-5.232-.004-1.515-.179-2.986-.082-4.233-1.084-2.249-1.807-3.708-5.421-5.045-7.879-1.911-3.516-4.148-7.183-5.516-10.943-1.276-3.51-2.959-6.719-3.625-10.397 1.179-1.956 1.075-3.992.086-5.987-.455-.917-1.043-1.762-1.581-2.631-.608-.982-.582-1.21-1.676-1.228l3.151 9.79c-1.037-3.211-2.438-6.497-3.151-9.79-.624-2.874-.863-5.661-1.889-8.463-.524-1.424-1.351-2.763-1.759-4.219-.338-1.199-.329-2.466-.49-3.694-.446-3.425-1.326-6.817-1.867-10.236-1.03-6.523-1.691-13.117-2.94-19.604-1.285-6.672-2.94-13.303-4.396-19.941-.555-2.534-1.549-4.705.925-6.432 2.368-1.653 5.002-3.03 7.504-4.469 2.373-1.366 4.735-2.746 7.262-3.808 2.145-.902 4.208-1.761 6.158-3.04 1.215-.795 2.458-.79 3.83-1.233 1.414-.457 2.81-.987 4.211-1.483l7.714-2.744c1.406-.502 4.293-2.343 5.611-.948.683.721.762 2.231.954 3.132l.908 4.461c1.128 5.77 2.21 11.56 3.105 17.371.879 5.702 1.378 11.459 2.264 17.158.217 1.396.924 3.12.783 4.525-.102 1.035-.821 1.583-1.529 2.256-1.798 1.709-3.493 3.503-5.092 5.398-1.77 2.097-3.462 4.265-5.375 6.237-1.864 1.922-3.484 3.65-4.828 5.994-1.128 1.967-2.636 3.814-2.113 6.169.409 1.831.941 3.652 3.116 2.9 2.515-.871 4.689-3.337 6.654-5.05l5.802-5.028c2.173-1.811 4.603-3.339 6.703-5.225 1.825-1.638 3.387-3.543 5.119-5.275 4.154-4.156 8.623-7.881 13.04-11.739 2.037-1.779 3.66-3.954 5.506-5.918 1.819-1.934 3.797-3.714 5.708-5.556 4.146-3.996 8.459-8.019 12.322-12.29 1.85-2.047 3.835-3.958 5.698-5.991.769-.838 1.339-1.944 2.07-2.743.707-.772 1.795-1.27 2.587-1.992 3.464-3.161 5.395-7.56 8.811-10.782.908 1.989 1.55 4.018 2.218 6.1.615 1.92 1.077 4.162 2.157 5.879.503.799 1.357 1.379 1.792 2.21.417.799.306 1.748.6 2.591.563 1.61 1.724 3.306 2.591 4.778.966 1.644 2.335 3.139 3.629 4.53.334.36.67.679 1.039.955-.151-.084-.3-.168-.456-.248 1.03 1.753 1.961 2.56 3.637 3.712l-.14.291c-.867 1.874-1.84 3.61-2.522 5.569-1.177 3.387-2.905 6.556-4.016 9.967-.598 1.835-.831 3.732-1.701 5.471-.766 1.53-1.762 2.932-2.511 4.471-1.75 3.603-2.891 7.555-4.27 11.31-1.424 3.879-3.07 7.629-4.831 11.364-1.747 3.707-3.379 7.471-4.927 11.264-.697 1.71-1.249 3.62-2.349 5.127-1.191 1.63-2.906 2.052-4.714 2.698-7.162 2.56-14.141 6.403-20.667 10.285h0zM227.57 328.123c-4.055-3.432-9.715-2.464-14.695-2.486-5.785-.025-11.543 1.113-17.308 1.501s-11.552.663-17.329.543c-5.152-.108-10.286-.591-15.335-1.641-2.501-.519-4.944-.773-7.483-.993-1.589-.136-3.06-.618-3.859-2.107-1.054-1.967-.781-4.956-.856-7.121-.074-2.122-.38-4.816.465-6.814.833-1.972 2.683-2.94 4.573-3.664l6.964-2.66c9.4-3.601 19.069-7.722 29.196-8.587 2.812-.24 5.635-.265 8.453-.349 2.422-.073 4.66-.661 7.054-.91 4.995-.522 9.879-.636 14.808-1.681 1.354-.287 2.206.433 3.582.653 1.074.172 2.164.141 3.243.063 2.229-.16 4.356-.434 6.593-.244 2.63.224 5.276.362 7.885.768 2.343.365 4.612.998 6.975 1.266 2.552.29 5.136.4 7.65.963 1.271.283 3.206.558 3.954 1.779.991 1.616.248 4.717.15 6.502-.136 2.513-.29 5.029-.264 7.548.028 2.734.436 5.378.964 8.055.38 1.928 1.195 4.192.76 6.18-.24 1.094-1.039 1.611-2.173 1.435-.785-.121-1.43-.89-2.155-.983-1.409-.181-.04.871-.847 1.775-.647.725-1.719.522-2.581.761-.926.258-1.781.711-2.656 1.097-1.983.873-4.041 1.475-5.994 2.438-4.342 2.14-8.468 4.679-12.599 7.192-.692-2.059-1.186-5.176-2.576-6.877-1.197-1.463-3.129-2.193-4.557-3.401h0zm284.537-130.141c.931-2.625 2.157-5.192 2.932-7.866.277-.956.277-2.314 1.256-2.853.813-.447 2.287-.165 3.14-.158l4.739-.012c.789-.004 1.932-.182 2.398.645.48.855-.29 2.423-.305 3.375-.024 1.444.317 2.857.684 4.243 1.563 5.907 3.184 11.743 4.981 17.594-1.792-.805-3.183-2.722-5.226-2.939-1.29-.137-2.282.635-3.472.831-1.017.167-2.029.227-3.041.463-4.544 1.057-8.674 3.413-13.289 4.241.213-1.69.281-3.234.801-4.869.452-1.422.952-2.831 1.438-4.241l2.965-8.453h0zm14.994-39.632c2.183-.965 4.366-3.767 2.322-6.081-1.102-1.247-3.893-.593-5.334-.295-2.022.417-9.787 5.481-10.742 2.037-.628-2.259.497-5.666 1.524-7.651.65-1.258 1.524-2.486 2.569-3.45 1.121-1.036 1.584-.72 2.963-.567 2.276.254 4.391-.449 5.887 1.77.291.43.351 1.018.96 1.107.469.069.75-.513 1.224-.514.767-.002.853.53 1.152 1.125.783 1.555 1.934 4.611 4.265 3.339 2.356-1.286 2.497-5.451 2.5-7.694.006-3.482.241-6.96.43-10.436.149-2.751.391-5.261 2.396-7.334 1.892-1.956 3.358-4.675 5.657-6.173 2.595-1.692 5.972-1.502 8.946-1.73 3.437-.264 6.964-.642 10.403-.289 3.52.361 6.868.526 10.41.366l10.382-.459c3.289-.083 6.728.194 9.985-.16 1.324-.144 3.09-.625 3.965.687.996 1.491.912 4.19 1.192 5.907-3.581-.659-9.423-2.312-10.798 2.748-.416 1.531.872 2.898 2 3.788 1.65 1.3 3.958 1.263 5.96 1.544 1.117.156 2.92.128 3.574 1.25.63 1.077.301 3.086.374 4.271.305 4.924 1.008 9.812 1.52 14.716.489 4.688.858 9.498.15 14.183-.363 2.402-1.346 4.659-1.521 7.08-.108 1.498.126 3.198-1.242 4.189-1.588 1.149-4.321 1.155-6.185 1.565-2.46.542-4.893 1.194-7.313 1.893-3.835 1.109-8.514 1.662-9.897 5.951-1.477 4.578-2.564 9.297-3.992 13.897-.726 2.335-1.738 4.449-2.764 6.663-.397.854-1.02 1.846-.938 2.828.086 1.036.811 2.046 1.21 2.97.875-.456 1.792-.71 2.538-1.381.781-.7 1.405-1.689 2.034-2.528 1.305-1.742 2.232-3.238 4.104-4.371.071.921.289 1.713-.152 2.494-.312.555-1.034 1.12-1.446 1.635-1.151 1.445-2.26 2.927-3.508 4.29-2.486 2.714-5.494 4.949-8.081 7.582-2.593 2.64-5.046 5.739-8.208 7.715-3.048 1.905-6.304 3.479-9.474 5.167 2.785-6.33.858-12.702-2.458-18.394-1.543-2.649-3.419-5.082-5.156-7.602-1.375-1.995-4.032-4.672-3.968-7.236.035-1.364.964-2.542 1.636-3.668.743-1.249 1.32-2.58 1.93-3.9 1.236-2.672 2.849-5.498 3.283-8.44.379-2.576-.202-6.144-1.943-8.206-.7-.827-1.725-.747-2.634-1.309-.893-.553-1.569-1.379-2.302-2.117-.832-.835-1.852-1.412-2.681-2.236-.881-.878-1.498-1.991-2.135-3.048l-4.572-7.487h0zm9.576-55.635c2.62.045 4.01 1.524 5.231 3.631-.818 1.283-3.007 5.153-4.812 3.611-.335-.287-.49-.904-.896-1.236-.382-.313-.861-.477-1.305-.674-1-.443-2.133-.871-2.772-1.831-1.508-2.262 2.972-3.527 4.555-3.502h0zm51.18 98.181c.47-.127 1.921.825 2.383 1.029.85.377 1.908.746 2.66 1.314s1.031 1.418 1.546 2.179c.156 5.699.515 11.44.472 17.155l-.474-17.159c-.334 1.57-.914 3.011-.912 4.633 0 1.643.25 3.335.404 4.967l.955 9.318c-.041 1.791-.122 3.579-.277 5.36l-6.782-9.52c-2.038-2.821-4.7-2.984-7.917-3.242l6.312-12.744c.241-.487 1.21-3.178 1.63-3.292h0zm371.464 9.659c3.394-.939 6.86-2.243 10.358-2.705 3.311-.436 6.251-1.875 9.447-2.812 2.817-.825 5.666-1.53 8.44-2.494 2.108-.732 4.384-1.454 6.043-3.015 1.719-1.617 2.647-4.13 2.328-6.48-.374-2.744-2.4-3.079-4.71-3.866-11.765-4.006-23.672-6.393-35.951-7.977-6.32-.815-12.711-1.83-19.097-1.699-3.309.069-6.581.251-9.888.04-2.994-.191-6.043.929-8.989.346-3.009-.596-5.822.206-8.855.618-3.224.438-6.483.566-9.733.716-2.953.136-6.09.017-8.962.79-2.808.755-4.983 1.297-7.852.362l8.993-9.948c6.178-6.785 12.59-14.077 16.328-22.561 1.602-3.637 2.379-8.878-.293-12.262-2.376-3.01-7.565-2.39-10.876-1.897-4.256.633-8.32 2.151-11.982 4.393-3.531 2.163-7.431 3.929-10.643 6.536-3.155 2.562-6.791 4.257-9.982 6.77l-9.932 7.637c-7.19 5.476-13.162 12.434-19.968 18.353-3.617 3.146-6.984 6.534-10.218 10.068-1.533 1.675-3.122 3.326-4.431 5.186-1.096 1.556-2.049 3.213-3.205 4.729-1.386 1.815-3.126 3.328-4.585 5.086-1.341 1.618-2.574 3.322-3.762 5.053l-3.695 5.503c-.651.959-1.274 2.596-2.585 2.428-1.85-.237-2.874-1.826-4.886-.731-.68.369-1.104.998-1.671 1.496-.794.699-1.706.998-2.632 1.461-1.887.946-3.484 2.352-5.175 3.592-1.792 1.314-3.633 2.398-5.294 3.898-6.978 6.305-13.418 13.061-20.128 19.628-1.622 1.587-3.322 3.095-4.899 4.728-1.254 1.301-2.236 2.846-3.497 4.126-.728.739-1.605 1.038-2.374 1.681-.717.602-1.317 1.549-1.929 2.252l-4.444 5.055c-2.965 3.249-6.241 6.078-9.092 9.45-2.911 3.444-6.193 6.594-9.168 9.997-6.262 7.161-12.143 14.474-17.9 22.043-2.855 3.755-6.068 7.243-8.793 11.094-2.588 3.659-4.777 7.581-6.732 11.61-.552 1.137-1.26 4.526-3.29 3.328-.726-.429-1.214-1.692-1.664-2.394l-1.815-2.856c-2.625-4.154-5.434-8.308-7.509-12.771-3.993-8.592-7.967-17.113-11.251-26.008-1.661-4.501-3.556-8.888-5.447-13.295-1.873-4.368-3.293-8.897-5.12-13.28-3.636-8.719-8.415-16.967-13.169-25.112-4.356-7.464-9.025-15.164-15.084-21.384-3.204-3.288-5.723-7.059-9.109-10.21l-5.201-4.733c-1.239-1.155-2.293-2.87-3.824-3.647-1.083-.549-2.24-.43-3.409-.383-.908.037-1.916-.23-2.79-.151-.789.074-1.107.758-1.869.911-.778.157-1.292-.203-1.904-.626-3.868-2.669-9.155-3.823-13.571-5.423 2.794-1.729 6.221-1.793 9.341-2.522 2.638-.617 5.101-1.705 7.27-3.34 4.778-3.605 5.574-9.303 6.44-14.878.995-6.408 1.766-13.238.913-19.691l-2.665-18.992c-.46-3.071-1.047-6.066-1.963-9.036-.743-2.421-1.703-4.917-1.617-7.484.042-1.268.085-3.226 1.045-4.144.707-.674 1.746-1.033 2.499-1.696 1.762-1.552 3.179-3.444 4.264-5.522.885-1.696 2.316-4.183 1.469-6.144-.919-2.129-3.845-2.52-5.808-3.029-5.812-1.509-11.681-1.266-17.585-2.097-2.836-.398-5.802-1.226-8.649-1.191l-8.418.045c-6.119-.073-12.261-.251-18.36.379a103.81 103.81 0 0 1-4.833.388c-1.309.075-2.249.742-3.453.95-.733.126-1.769-.27-2.506-.328-1.239-.097-2.507-.052-3.73.178-2.594.486-4.606 2.139-7.176 2.656-2.002.403-3.534 1.494-4.557 3.268-2.597 4.495-2.738 10.696-2.965 15.73-.268 5.964.177 11.95-.136 17.904-.076 1.441-.23 2.023-1.754 1.873-2.137-.212-4.011-.783-6.17-.213-4.118 1.087-6.698 4.833-8.304 8.536-1.686 3.883-2.588 8.263-2.302 12.501.249 3.728 1.624 8.549 5.732 9.628 2.206.58 4.418-.34 6.499-.994 1.957-.616 3.741-2.38 4.804.094 2.152 5.013 4.32 9.548 7.761 13.865l-9.68-.694c-2.124-.108-5.132-.701-7.163.127-1.194.487-1.246 1.326-2.099 2.071-.939.82-2.762.469-3.926.433-3.484-.108-6.681-.742-10.207-.375-2.596.269-4.939 1.555-7.518 2.044-3.137.594-6.252 1.837-9.212 3.015-2.783 1.109-5.515 2.297-8.38 3.191-2.922.913-5.843 1.852-8.63 3.133-4.96 2.279-9.171 5.964-13.61 9.093-1.168.823-2.441 1.53-3.53 2.458-.893.76-1.482 1.764-2.344 2.55-1.378 1.26-2.987 1.196-4.479 1.863-1.529.684-3.004 2.052-4.39 2.999l-3.764 2.569c-2.383 1.626-4.741 3.559-7.316 4.86-4.785 2.416-8.539 6.244-12.426 9.885-4.196 3.93-8.825 7.354-12.866 11.442-4.029 4.079-7.713 8.406-10.955 13.136-3.38 4.928-6.231 10.152-9.434 15.188-1.465 2.303-3.32 4.174-5.029 6.282a36.68 36.68 0 0 0-2.396 3.304c-.651 1.016-1.112 2.313-2.084 3.056-1.946 1.486-3.888 2.363-5.456 4.351-1.757 2.226-3.271 4.687-4.759 7.097-2.983 4.84-5.783 9.844-8.44 14.87-.786 1.488-.777 2.577-.909 4.199-.101 1.26-.514 2.461-.748 3.697-.381 2.013-.145 4.128-.666 6.126-.341 1.31-1.182 1.483-2.245 2.22-1 .694-1.904 1.513-2.78 2.353-1.786 1.713-3.521 3.402-5.471 4.933-1.981 1.555-4.035 3.057-5.758 4.909-1.79 1.924-3.365 3.772-5.424 5.443-4.375 3.55-8.504 7.48-12.801 11.141-4.462 3.802-8.53 7.974-12.635 12.15-4.243 4.316-8.732 8.363-13.164 12.483l-1.043-14.67c-.439-5.275-1.627-10.416-2.677-15.596-.938-4.625-1.561-9.575-3.132-14.036-1.077-3.056-3.183-5.567-6.44-6.32-1.63-.376-4.098.396-4.888-1.422-.785-1.806-.859-4.553-1.177-6.493-1.398-8.566 1.38-18.125-2.198-26.321-1.553-3.556-4.441-5.44-7.875-6.963-4.499-1.995-9.467-1.499-14.237-2.488-2.177-.452-3.948-1.642-6.208-1.743-2.281-.102-4.566-.027-6.846.061-2.381.09-4.672-.388-7.037-.381-2.059.006-3.681 1.375-5.701 1.055-2.266-.358-4.116-.917-6.405-.259-2.029.583-3.962.756-6.069.814-2.595.074-5.191-.171-7.785-.046-2.384.114-4.658.838-7.021 1.128-4.995.612-9.808 1.181-14.682 2.523-4.829 1.331-9.413 3.248-14.1 4.985-7.513 2.786-16.135 4.92-18.203 13.775-1.146 4.91-1.375 10.199-.758 15.196.498 4.044 1.415 8.52 3.794 11.922 2.542 3.639 6.759 4.741 10.797 5.994 4.628 1.435 9.363 1.655 14.101 2.513 4.914.889 9.826 1.6 14.836 1.465 4.969-.134 9.829-1.427 14.783-1.848l15.261-1.474c3.424-.299 9.967-1.27 11.683 2.616.542 1.229 1.321 2.696.328 3.796-1.183 1.308-2.228 2.648-3.295 4.102-1.448 1.973-2.53 3.863-2.961 6.297-.423 2.387-.489 4.822-.523 7.24-.139 9.975 2.429 20.088 4.865 29.744 2.531 10.046 5.352 20.039 8.882 29.784 3.363 9.285 5.861 18.95 9.851 27.994 2.002 4.54 4.62 8.568 7.376 12.673 2.318 3.451 4.438 7.626 7.852 10.131a15.19 15.19 0 0 0 10.067 2.852c4.245-.339 8.278-2.914 11.995-4.795 8.951-4.532 17.221-10.656 25.251-16.654 3.854-2.879 7.35-6.179 11.454-8.721 4.008-2.483 8.052-4.709 12.566-6.016-3.763 7.932-7.184 15.992-11.185 23.813-3.948 7.722-7.216 15.72-10.768 23.62-1.461 3.249-3.614 6.06-5.052 9.296l-4.945 11.131c-3.003 6.782-6.202 13.528-8.918 20.424-.616 1.565-.34 3.457-1.139 4.832-.807 1.387-1.688 2.599-2.3 4.105-1.318 3.241-2.362 6.507-3.862 9.682-3.323 7.029-5.433 14.59-8.613 21.692-3.188 7.121-6.064 14.315-8.906 21.58-1.393 3.561-2.959 7.056-4.259 10.654-1.201 3.317-2.328 6.714-4.285 9.682-4.297 6.516-7.629 13.551-10.863 20.659-1.527 3.352-2.872 6.682-3.102 10.412-.209 3.357 1.872 6.075 3.551 8.777-3.058 1.549-5.873 3.548-8.939 5.108-3.289 1.675-6.724 2.989-10.146 4.36l-10.359 4.213c-3.039 1.253-5.847 2.793-8.794 4.227-2.787 1.357-5.328 3.147-7.965 4.762l-8.601 5.174c-5.592 3.424-11.034 6.859-16.905 9.803l-9.2 4.568c-2.518 1.258-5.283 2.364-7.12 4.59-2.718 3.291-2.482 8.584.098 11.933 1.704 2.21 5.888 2.004 8.431 2.076 1.734.049 3.497-.046 5.2-.395 1.408-.287 2.603-1.037 3.976-1.387 1.555-.396 3.294-.31 4.891-.525 1.562-.209 3.113-.49 4.658-.804 3.347-.684 6.665-1.507 10.007-2.218 3.255-.691 6.52-1.362 9.713-2.311 1.325-.394 2.724-1.149 4.087-1.121 1.482.031 2.779.133 4.271-.133 1.523-.271 3.018-.698 4.553-.904 1.427-.19 2.868.039 4.28-.201 1.593-.27 3.071-.972 4.613-1.426 1.508-.445 2.897-.307 4.448-.307-3.822 2.957-7.818 5.679-11.713 8.537-3.934 2.887-7.604 6.075-11.387 9.149-3.061 2.486-6.889 4.876-8.774 8.452-1.516 2.879-1.798 6.446-1.188 9.614.766 3.975 3.706 4.478 7.281 4.726 4.62.32 8.183-1.637 12.216-3.624 7.898-3.892 15.53-8.385 22.993-13.045 3.693-2.306 7.774-4.044 11.698-5.92l6.231-2.961c1.699-.804 3.924-2.407 5.8-2.223-5.162 10.696-10.566 21.277-15.115 32.258-1.907 4.605-3.425 9.364-3.799 14.361-.264 3.504-.08 10.445 4.297 11.605 1.954.518 3.714-.778 5.028-2.07 1.873-1.843 3.599-3.86 5.388-5.786 3.503-3.768 7.16-7.344 10.981-10.79 3.871-3.49 7.741-6.898 11.217-10.792 3.313-3.711 7.453-6.524 10.607-10.381 3.241-3.963 6.147-8.185 9.409-12.129 2.147-2.596 3.872-6.662 7.556-7.239.548 3.064 3.191 5.788 5.039 8.292 4.078 5.53 9.004 10.06 14.097 14.63 4.607 4.135 9.558 7.601 15.369 9.841 3.826 1.475 11.825 4.892 14.828.251 1.427-2.206.674-6.513.139-8.927-.741-3.354-2.368-6.496-3.836-9.58-2.988-6.275-6.297-12.298-9.657-18.374-1.688-3.052-3.342-6.126-5.162-9.101-1.58-2.579-3.775-5.068-4.553-8.047-.321-1.225-.519-2.888-.123-4.125.421-1.315.969-1.073 2.148-1.241 2.586-.369 1.806-5.141 1.468-7.002-.302-1.656-.923-3.257-1.517-4.827-.504-1.332-1.626-3.145-1.563-4.586.058-1.364 1.381-2.752 1.917-3.976.624-1.424 1.031-2.912 1.472-4.399 2.019-6.816 4.664-13.401 6.344-20.321 1.672-6.887 3.448-13.624 5.899-20.285 2.543-6.907 5.316-13.745 7.629-20.735l6.921-20.255c4.948-13.455 10.22-26.809 16.053-39.906 5.755-12.924 12.293-25.504 17.267-38.762l7.01-19.136c2.336-6.663 4.837-13.191 7.541-19.708 2.759-6.654 5.036-13.523 7.395-20.326 2.322-6.696 4.309-13.619 7.173-20.101.737.802 1.415 1.379 1.944 2.325s.975 1.828 1.706 2.644c1.312 1.465 2.979 2.491 4.57 3.617.996.704 1.821 1.545 2.96 1.701.032.005.06.007.089.011-.205.012-.41.022-.639.069l4.352 3.019a13.09 13.09 0 0 0-.383-.816c.471.821.962 1.594 1.98 1.769a2.36 2.36 0 0 1-.245.029c.687.509 3.131 2.941 2.916.318.094.424-.065.745.113 1.171.189.449.627.86.956 1.22.69.75 1.493 1.387 2.318 1.979 1.935 1.391 4.021 2.557 5.9 4.029.543.425 2.387 2.565 3.023 2.564l3.557 3.101-1.364-4.764.99 3.455c.383 1.339.962 1.824 1.967 2.723 1.766 1.578 3.515 3.178 5.347 4.679 3.342 2.739 7.178 4.863 10.757 7.274 1.947 1.31 3.856 2.656 5.709 4.094 1.52 1.18 3.379 1.597 4.89 2.741 1.902 1.443 3.589 3.322 5.238 5.038 1.481 1.539 3.226 3.089 4.248 4.984 1.158 2.149 1.176 4.95 1.537 7.329l1.076 7.205 1.995 14.813c.582 4.863 1.296 9.723 1.719 14.603.428 4.938.32 9.882.876 14.816 1.112 9.896 2.373 19.985 4.492 29.72 2.137 9.811 3.504 19.76 5.358 29.633l2.958 15.213 1.509 7.471c.408 2.06.196 4.13.558 6.207.192 1.112.464 2.224.464 3.36.001 1.104-.692 2.071-.73 3.058-.056 1.391 1.218 3.588 1.991 4.697 1.166 1.674 2.78 3.188 4.133 4.724 1.363 1.547 1.911 2.103 1.427 4.193-2.079 8.962 3.245 16.471 8.93 22.808 6.258 6.976 12.517 13.7 19.696 19.739 3.761 3.165 7.299 6.579 10.899 9.922 3.451 3.205 7.172 5.707 11.204 8.152 4.086 2.477 8.417 4.284 12.652 6.461 4.177 2.147 8.234 4.183 12.676 5.748 4.223 1.487 8.499 2.752 12.553 4.643 3.199 1.492 7.261 1.427 10.491.048 2.174-.929 4.041-2.623 5.984-3.947 1.816-1.24 3.667-2.426 5.571-3.524 3.146-1.813 6.222-3.924 7.564-7.464 1.591-4.192.215-9.226-.694-13.436-.929-4.304-2.85-8.314-5.151-12.044-2.397-3.884-5.379-7.245-8.131-10.865-2.847-3.744-5.383-7.685-8.36-11.339-2.948-3.617-6.037-7.065-9.357-10.341-3.312-3.267-6.204-6.91-9.26-10.412-.735-.844-1.861-1.749-1.999-2.945-.121-1.041.595-1.793.939-2.71.666-1.778.469-3.732.503-5.589.017-.906.003-1.836.454-2.656.42-.765 1.2-1.069 1.498-1.892.265-.733.167-1.658.315-2.423.187-.971.64-1.677.951-2.598.773-2.303-.187-4.989-.62-7.272l-1.195-6.477c-.859-4.667-1.502-9.345-2.968-13.874-2.98-9.193-5.893-18.339-6.091-28.101-.1-4.888-1.463-9.572-2.593-14.3l-3.652-15.026c-2.369-9.584-5.21-19.029-7.637-28.596-2.419-9.532-4.621-19.126-7.498-28.533-2.908-9.507-6.95-18.432-11.274-27.365-2.08-4.296-4.355-8.003-7.415-11.672-3.174-3.803-6.427-7.54-9.687-11.27l-19.827-22.489c-3.322-3.704-6.686-7.237-10.561-10.372-3.453-2.795-8.184-5.148-9.272-9.715-.307-1.289-.514-2.602-.853-3.883-.195-.739-.802-1.858-.707-2.663.189-1.6 3.15-2.211 4.347-2.753 4.142-1.875 8.334-3.733 12.398-5.774 2.245-1.128 4.239-2.503 6.33-3.878 1.758-1.158 3.763-1.506 5.746-2.121 4.404-1.367 8.469-3.314 12.533-5.465 4.195-2.22 8.425-4.439 12.491-6.887 4.129-2.485 7.332-5.541 10.832-8.785 1.565-1.45 2.678-.721 3.787.877 1.349 1.941 2.771 3.833 4.166 5.741.65.889 1.209 1.938 2.131 2.471.036.022.064.034.099.052-.16-.054-.329-.112-.522-.189.338 2.402 2.146 4.043 3.739 5.696l-.434-1.236c.399 1.144.951 1.92 1.687 2.895 1.464 1.941 3.111 3.648 4.842 5.351l2.705 2.625 1.084 1.048c.583.564.912.745 1.523 1.021 1.239.559 1.527 1.535 2.594 2.306 1.605 1.16 3.603 1.926 5.265 3.069 1.356.933 2.536 2.831 4.105 3.178.569.125.991.034 1.447.483.602.59-.024.578.924.79.478.108.972-.167 1.453-.014.508.162.957.603 1.386.916l2.939 2.148 5.25 3.919c3.459 2.641 6.634 5.628 10.102 8.25 1.794 1.356 3.724 2.348 5.64 3.499 1.596.959 2.942 2.256 4.438 3.352 1.786 1.31 3.871 1.949 5.724 3.133 1.819 1.162 3.57 2.362 5.461 3.409 4.131 2.287 8.33 4.42 12.708 6.19 4.428 1.791 8.957 3.236 13.763 3.462 4.878.231 9.494-1.046 13.992-2.826a124.85 124.85 0 0 0 13.048-6.033c4.103-2.198 7.922-4.842 11.945-7.171 4.041-2.34 7.868-4.782 11.718-7.432 3.657-2.517 7.134-5.328 11.081-7.385 3.984-2.075 7.518-4.777 11.268-7.227l11.511-7.62c7.978-5.348 15.963-10.785 23.541-16.694 3.638-2.838 7.228-5.754 10.414-9.096 3.402-3.568 7.459-6.605 11.194-9.814l10.754-10.438c.006-.006.013-.012.018-.018l-10.772 10.457c1.706-.321 2.815-1.428 4.185-2.49l4.289-3.406c2.063-1.68 4.45-3.408 4.211-6.383.903-.842 1.825-1.665 2.786-2.434 1.569-1.252 3.441-2.016 5.11-3.125 3.425-2.277 6.365-5.175 9.582-7.719 1.416-1.118 2.687-1.966 2.908-3.884.239-2.083-.041-4.34-.056-6.439-.011-1.622-.476-3.886.144-5.421s2.693-2.198 4.033-2.933l11.297-6.323c3.727-2.038 6.967-3.396 11.229-3.76 1.856-.159 3.637-.439 5.472-.724 1.897-.295 3.664.264 5.522.605 4.213.773 8.477 1.234 12.689 2.016 4.242.789 8.437 1.838 12.625 2.87s8.378 2.133 12.635 2.879c2.178.382 4.43.633 6.541 1.312 1.596.513 3.131 1.238 4.774 1.6 3.975.876 8.015.981 11.9 2.308 3.878 1.325 7.836 1.993 11.879 2.602 2.117.319 4.228.659 6.322 1.113 1.264.274 2.389.435 3.67.121 2.656-.651 4.811-2.788 5.66-5.362 2.344-7.101-2.189-14.721-6.804-19.757-4.95-5.402-11.204-9.182-17.144-13.36 2.367-.26 4.72.088 7.086.132 2.027.037 4.011-.053 6.043.058 4.498.246 8.98-1.056 13.483-1.152 6.095-.131 13.616-1.373 15.208-8.32 1.481-6.465-5.376-12.292-10.271-15.226-3.143-1.885-6.326-3.609-9.405-5.604-3.289-2.131-7.356-3.386-10.989-4.819-3.698-1.46-7.422-2.887-11.27-3.904-3.697-.978-7.442-1.502-10.987-2.95 3.225-1.407 6.714-1.717 10.168-2.362 3.439-.642 6.821-1.494 10.191-2.426h0z"/><path d="M980.031 463.71c-.36 1.524-1.246 2.273-2.754 2.636-2.489.598-5.218.691-7.758.999-4.64.566-9.438.8-13.989 1.9-4.26 1.029-8.52 2.566-12.368 4.678 1.258-6.015 2.684-11.858 2.156-18.053-.388-4.548-.496-11.402-5.093-14.031-1.065-.61-2.749-.38-3.932-.443l-4.617-.239c-3.044-.168-6.072-.488-9.107-.785-5.984-.585-11.923-1.311-17.87-2.185-.984-.145-2.749-.036-3.407-.889-.486-.627-.254-1.618-.217-2.323.124-2.435.027-4.864-.276-7.283-.662-5.296-2.124-10.507-3.759-15.575l-2.547-7.664c-.402-1.237-1.337-2.925-.001-3.811.835-.554 2.292-.549 3.263-.791 1.155-.287 2.28-.664 3.409-1.035l7.993-2.653 30.428-9.959 4.227-1.466c.612-.207 1.675-.742 2.333-.454.77.339.621 1.187 1.174 1.692.483.44 1.576.473 2.198.831 1.579.911 2.568 2.5 3.808 3.782 1.594 1.65 3.376 3.099 4.949 4.779 6.352 6.781 11.052 14.945 15.03 23.294 1.071 2.248 1.768 4.575 2.437 6.967.633 2.264 1.443 4.478 1.803 6.809.838 5.443.869 11.043 1.541 16.521.562 4.591 2.027 10.151.943 14.75m-40.35-12.294c-.014 3.626-.204 7.275-.998 10.823-.818 3.659-2.296 7.162-3.614 10.66-1.244 3.301-2.251 6.705-3.693 9.926-1.423 3.179-3.247 6.076-4.389 9.375-2.343 6.765-6.354 12.7-9.194 19.233-2.901 6.677-6.132 13.053-9.737 19.383-1.714 3.011-3.305 6.342-5.473 9.054a40.49 40.49 0 0 1-3.551 3.881c-1.085 1.039-1.606.246-2.918.482-1.913.343-2.899 2.825-4.137 4.102-2.346 2.418-4.742 4.807-7.312 6.987-2.632 2.232-5.539 4.097-8.239 6.245-2.576 2.051-5.15 3.905-8.095 5.401-5.816 2.954-12.503 6.578-19.213 6.267-3.088-.143-4.741-2.153-6.035-4.836-1.369-2.84-.907-6.244-.677-9.291.275-3.655 1.158-6.879 3.107-9.979 1.921-3.057.028-4.954-1.887-7.502-4.272-5.686-9.965-10.115-15.157-14.919l-7.993-7.499-4.398-4.163c-1.075-1.018-2.11-1.705-2.497-3.135 2.921-1.575 5.967-2.917 8.659-4.887 5.496-4.02 10.539-8.926 15.72-13.348 2.489-2.125 4.455-4.758 6.455-7.327 1.93-2.48 4.141-4.821 5.806-7.496 3.581-5.754 7.666-11.452 10.505-17.622 1.415-3.075 2.147-6.212 2.887-9.496.446-1.978.96-3.94 1.46-5.904.323-1.266.416-3.448 1.227-4.494 1.493-1.927 6.185 1.185 7.904 1.733 3.235 1.029 6.607 1.518 9.952 2.036 7.097 1.097 14.244 2.035 21.296 3.396 3.694.713 7.397 1.503 11.147 1.876 3.634.362 7.288.173 10.929.146.78-.006 1.733.132 2.256-.584.298-.41.098-.918.578-1.302.626-.499 1.443-.231 2.16-.155l4.376.426c.628.078 1.88-.029 2.417.303.566.349.371 1.402.368 2.204m-102.149 97.338c-1.699 3.424-2.679 8.213-2.731 12.006-.028 2.036.241 4.067.659 6.056.363 1.735 1.356 3.732 1.044 5.481-4.308-1.992-8.541-4.135-12.934-5.933-3.796-1.553-6.648-4.257-9.772-6.826-3.355-2.758-6.391-5.832-9.615-8.736-3.459-3.117-7.067-6.065-10.584-9.113-6.263-5.427-11.522-11.526-16.664-18.011-4.52-5.7-11-12.97-10.697-20.682.143-3.579.405-7.65 2.16-10.854 1.458-2.661 4.096-5.645 6.562-7.424 2.371-1.711 4.699 2.588 6.032 4.099l8.711 9.664c5.539 6.113 10.796 12.532 16.787 18.215 6.039 5.726 12.213 11.327 18.716 16.518 3.255 2.598 6.842 5.021 9.797 7.964 1.085 1.081 3.191 2.271 3.915 3.621.777 1.454-.78 2.729-1.387 3.953m148.211-84.417c-.913-.118-.87.006-.947-.89-.121-1.387.349-3.025.49-4.415.673-6.615.351-13.545-.225-20.161-1.133-12.993-3.81-25.768-10.604-37.039-3.136-5.203-6.682-10.11-11.127-14.28-2.049-1.921-4.05-3.991-6.316-5.659-1.137-.838-2.793-1.261-3.828-2.119-.559-.464-.807-1.409-1.279-2.002-1.885-2.363-4.015-2.972-7.022-2.718-3.12.265-6.389 1.244-9.399 2.078-6.403 1.777-12.545 4.796-18.748 7.179-6.231 2.393-12.392 4.944-18.536 7.547-2.671 1.131-5.895 2.02-8.267 3.728-1.433 1.032-1.854 2.313-1.7 4.029.545 6.063 2.794 12.084 4.506 17.884 1.838 6.228 3.336 12.573 3.806 19.065-6.348-.465-12.657-.948-18.976-1.746l-9.492-1.161c-1.631-.224-2.392-.834-3.704-1.68-1.151-.743-1.745-.114-2.236 1.016-2.555 5.872-3.562 12.278-6.33 18.107-1.242 2.618-2.794 5.062-4.085 7.654-1.405 2.818-3.1 5.591-4.861 8.198-.818 1.21-1.868 2.19-2.774 3.324-.84 1.051-1.444 2.26-2.215 3.36-1.613 2.298-3.567 4.324-5.546 6.305a192.42 192.42 0 0 0-5.806 6.079c-1.865 2.038-4.091 3.692-6.062 5.616-1.855 1.81-3.47 3.781-5.373 5.555-1.833 1.71-2.691 4.082-4.663 5.62-1.063.829-2.242 1.495-3.301 2.33-.874.69-1.787 1.897-3.028 1.665-1.377-.258-2.485-2.109-3.347-3.065l-3.354-3.672-13.406-14.225c-2.178-2.324-4.574-4.432-6.697-6.808-1.548-1.732-4.079-2.965-6.246-1.78-2.185 1.195-4.81 2.249-6.58 4.044-1.918 1.944-3.447 4.471-5.008 6.702-1.627 2.323-2.272 5.067-2.698 7.829-.453 2.943-.925 5.859-.701 8.846.426 5.655 1.477 11.965 4.747 16.728 1.558 2.27 3.693 3.975 5.602 5.926 2.068 2.117 3.545 4.665 5.25 7.067 3.42 4.819 7.622 9.135 11.907 13.19 2.044 1.933 4.358 3.564 6.412 5.504 2.193 2.073 4.414 3.941 6.888 5.665 2.531 1.762 4.622 4.057 6.909 6.105 2.356 2.109 4.767 4.077 7.36 5.885 4.974 3.47 10.032 5.728 15.815 7.473 6.37 1.921 12.536 4.436 18.871 6.445 3.036.963 6.04-.368 8.931-1.342 2.948-.993 5.841-2.17 8.555-3.7 5.506-3.104 10.794-6.706 16.21-9.976 5.633-3.4 10.338-7.297 14.641-12.273 4.101-4.744 8.441-9.453 12.176-14.491 7.582-10.231 12.167-22.333 17.795-33.662 2.991-6.022 6.023-11.951 8.511-18.209l3.568-9.279c.529-1.3.966-1.805 2.384-2.026 1.638-.256 3.313-.368 4.957-.565 6.508-.776 12.861-1.928 19.311-3.042 5.986-1.033 12.008-2.1 17.359-5.142 1.125-.64 2.475-1.392 3.088-2.587.279-.546.965-3.314.577-3.757-.226-.26-1.753-.228-2.142-.279M719.239 53.315l6.312-3.129 13.408-6.57c2.049-.937 4.189-1.534 6.293-2.321 2.235-.835 4.371-1.937 6.516-2.974 4.509-2.182 9.118-4.061 13.8-5.834l4.309-1.608c1.104-.408 2.447-1.191 3.595-1.325 1.821-.213 3.189 1.643 4.43 2.76 6.697 6.027 11.424 14.962 14.301 23.412 1.57 4.611 2.282 9.372 3.12 14.153.858 4.9 1.769 9.695 1.803 14.678.034 5.065.554 10.059.33 15.136-.084 1.894.258 5.299-.783 6.95-1.057 1.672-3.705 2.139-5.409 2.757-9.318 3.379-18.626 7.015-28.079 9.988l-29.458 9.416 1.18-8.379c.295-2.637.074-5.365.051-8.015-.05-5.823-.241-11.615-1.41-17.337-2.124-10.392-5.557-20.624-11.312-29.594-1.349-2.102-2.958-4.018-4.56-5.927-.573-.683-2.493-2.298-2.425-3.349.091-1.377 2.995-2.364 3.989-2.887m111.806-1.129c2.15.098 3.542.593 3.691 2.895.191 2.934.15 5.906.254 8.847.202 5.625.404 11.251.256 16.881-.26 9.861-1.309 19.707-4.329 29.131-1.459 4.556-3.206 9.033-5.093 13.427-1.831 4.264-4.418 8.098-6.709 12.114-1.128 1.976-2.393 3.58-3.948 5.239-.736.787-1.074 1.206-2.115 1.341-1.055.135-2.384-.137-3.444-.213l-14.972-1.095c-4.953-.238-9.928-.029-14.875-.259-2.325-.109-4.514-.864-6.8-1.232-2.302-.371-4.628-.534-6.943-.795-1.193-.134-1.164.147-1.345-.938-.097-.578.069-1.325.1-1.917l.187-3.42c.062-1.019-.144-2.806.268-3.77.368-.858 1.155-1.007 1.977-1.231 4.607-1.264 9.058-2.829 13.49-4.616l13.568-5.491c1.927-.839 4.1-1.607 5.56-3.191 1.197-1.298 1.885-2.967 2.414-4.628 2.913-9.137 1.999-19.666 1.145-29.077-.877-9.674-2.26-19.602-5.803-28.697 11.148 0 22.326.185 33.464.697m-124.43 8.361c3.096 1.16 5.047 3.865 6.851 6.471 2.246 3.25 4.365 6.536 6.124 10.082 3.694 7.451 6.133 15.662 7.524 23.85 1.331 7.817 1.99 16.533.459 24.374-.41 2.097-1.479 3.779-2.077 5.766-.402 1.335-.122 3.277.24 4.603.52 1.903 2.315 1.254 3.81.946l6.545-1.354c8.219-1.734 16.356-4.752 24.724-5.362-.713 2.225-1.111 4.244-2.55 6.151-1.346 1.784-3.138 3.33-3.912 5.479-.645 1.791-.769 4.298-.113 6.115.69 1.908 2.376 1.936 4.145 2.15 4.974.604 9.869 1.423 14.884 1.696 1.078.058 2.154.179 3.218-.025.857-.165 1.458-.421 2.324-.26 1.147.211 2.158.764 3.362.887 1.133.116 2.275.079 3.411.037 4.199-.157 8.306.281 12.51-.129 1.225-.12 3.526-.814 4.671-.114 1.21.74.262 2.233.864 3.26.794 1.35 3.52.658 4.838.584 1.882-.103 3.551-.435 5.237-1.304 3.41-1.755 6.492-4.091 8.999-7.005 2.625-3.048 4.528-6.609 6.405-10.145 1.958-3.687 3.92-7.287 5.401-11.203 1.513-4.001 2.995-8.128 3.852-12.325.856-4.191 1.398-8.448 2.206-12.651.843-4.384.991-8.853 1.214-13.3.231-4.612.332-9.143.043-13.756-.283-4.531-.783-8.975-1.314-13.477-.136-1.151-.066-2.343-.249-3.483-.124-.766-.524-1.492-.567-2.27-.088-1.546 1.329-2.54 1.292-4.156-.085-3.755-4.079-5.153-7.047-6.051-3.859-1.168-8.163-1.872-12.196-1.582-8.68.624-17.552.705-25.785 3.874-4.265-7.311-8.24-15.243-15.221-20.371-.787-.58-1.641-.974-2.151-1.829-.435-.733-.627-1.469-1.21-2.129-1.433-1.625-3.199-1.826-5.204-1.401-4.364.924-8.533 1.936-12.67 3.589-1.837.733-3.786 1.078-5.631 1.795-1.774.688-3.469 1.552-5.174 2.392-3.731 1.84-7.588 3.403-11.316 5.258-7.486 3.727-14.886 7.632-21.776 12.391-3.329 2.299-7.145 4.677-9.966 7.596-1.242 1.285-1.805 2.907-1.598 4.681.215 1.845 1.16 1.126 2.572 1.656M216.131 74.835c.366-4.76.217-9.532.563-14.289.329-4.519 1.242-9.122 2.129-13.565.903-4.518 2.545-8.529 4.389-12.724l2.989-6.97c.603-1.427 1.043-2.906 2.713-3.287 2.165-.493 4.779-.093 7.006-.172a127.65 127.65 0 0 0 6.742-.415c4.876-.433 9.721-1.146 14.588-1.651 4.662-.483 9.272-.766 13.875-1.727 2.369-.494 4.717-1.072 7.067-1.65 1.761-.432 4.2-1.535 5.971-1.116-2.19 4.987-2.872 10.312-2.926 15.709-.02 2.127-.272 2.998-2.487 2.867-2.764-.163-5.539-.442-8.288-.758-5.188-.598-10.334-1.548-15.478-2.439-2.438-.422-4.779-1.024-7.171-1.553-1.698-.374-2.412.299-2.98 1.85-.41 1.122-.542 1.627-1.595 2.261-.86.517-1.706 1.008-2.499 1.632-1.411 1.111-2.624 2.446-3.662 3.91-2.303 3.243-3.781 7.054-5.134 10.77-3.401 9.352-5.112 19.523-5.428 29.455-.159 5.05-.993 10.001-1.048 15.068-.026 2.233.544 5.107-1.321 6.73-1.824 1.59-4.167 2.729-6.202 4.031-1.784-5.11-2.243-10.53-2.298-15.908-.056-5.361.074-10.714.484-16.059m75.485-27.046c2.229.593 4.468 1.118 6.715 1.639-3.822 9.158-3.687 19.289-3.976 29.051-.128 4.366-.011 8.743.418 13.09.442 4.446 1.441 8.691 2.339 13.05.195.952.666 2.513.039 3.386-.695.967-2.971 1.489-3.958 1.935-3.917 1.767-7.773 3.682-11.77 5.267-4.052 1.607-8.262 2.572-12.223 4.439-3.878 1.827-7.807 3.501-11.845 4.945-3.967 1.421-8.085 2.462-11.914 4.247-3.632 1.694-6.63 4.02-9.715 6.53-1.876-5.827-2.607-11.755-2.946-17.861-.325-5.845-.804-11.93-.207-17.762.272-2.661.273-5.136.219-7.801-.048-2.384.503-4.723.693-7.095.418-5.228.402-10.45 1.109-15.658 1.341-9.85 4-20.275 9.366-28.719.342-.538.676-1.407 1.148-1.804.795-.669.513-.543 1.559-.005.976.501 1.938 1.034 2.945 1.472 2.114.92 4.377 1.325 6.584 1.952 2.443.694 4.661 1.758 7.197 2.152 2.457.381 4.954.427 7.41.813 1.358.214 2.605.663 3.926 1 1.076.275 2.13.202 3.262.321 2.188.231 4.318.844 6.512 1.042 2.467.223 4.664-.276 7.113.375m-80.848 42.52c.756 6.029 2.369 11.935 4.72 17.539.755 1.802 1.608 4.324 3.767 4.822 1.992.459 4.406-1.005 6.283-1.519 1.471 8.75 2.115 17.841 6.02 25.951.493 1.024 1.142 2.932 2.157 3.603 1.036.685 2.295.017 3.328-.376 4.339-1.644 8.819-2.696 13.309-3.834 2.189-.555 4.42-1.048 6.556-1.791 1.774-.617 3.451-1.357 5.311-1.694 3.885-.703 7.495-1.974 11.209-3.285 7.795-2.753 15.632-5.247 22.826-9.381 3.433-1.973 7.034-3.907 10.205-6.289 2.6-1.954 5.509-4.882 4.234-8.431-.385-1.073-1.44-2.849-2.654-3.177-1.141-.309-2.164.723-3.207.961-1.577.361-1.224-.912-1.37-2.154l-.355-2.936-.677-6.172c-.759-8.541-.403-17.077-.41-25.632-.004-4.283.988-8.038 1.987-12.164a233.92 233.92 0 0 0 1.491-6.59c.258-1.225.558-2.569.204-3.808-.795-2.778-4.752-3.546-7.095-4.337-2.014-.68-4.058-1.272-6.143-1.688-1.143-.228-4.197-.05-4.936-1.01-.732-.95.078-4.033.152-5.164.137-2.082.281-4.162.556-6.232.441-3.339.393-6.435-2.27-8.877 1.661-1.324 2.84-4.134.425-5.354-2.779-1.404-6.497-1.608-9.433-.871-3.21.806-6.733.816-10.02 1.168l-10.477 1.269c-6.005.76-12.122.927-18.054 2.146-2.97.609-5.943 1.073-8.938 1.546-3.101.489-4.971.905-6.827 3.521-3.518 4.964-6.766 10.05-8.742 15.844-1.87 5.489-2.744 11.257-3.263 17.015-.559 6.206-.685 12.395-.615 18.623.07 6.263-.032 12.529.749 18.759M84.614 335.594c.355-.603 1.435-.751 2.003-.979.897-.359 1.746-.808 2.581-1.29 4.18-2.412 8.257-4.876 12.12-7.782.946-.712 3.274-3.327 4.644-2.913.672.203 1.039 1.319 1.33 1.863.51.958 1.039 1.9 1.615 2.82 2.274 3.631 5.108 6.888 8.273 9.772 5.949 5.421 12.728 8.921 20.889 9.34-5.27 7.163-10.307 14.645-16.293 21.242-3.02 3.33-6.333 6.341-9.47 9.553-.536.549-.824.878-1.529 1.192-.682.304-1.332.403-1.897.964-.981.977-1.051 2.431-.83 3.721-5.57.214-11.601-2.28-16.655-4.325-2.967-1.202-5.894-2.539-8.679-4.117-1.894-1.073-4.012-2.27-5.4-3.992 5.108-2.717 10.272-5.302 15.167-8.397 3.342-2.112 9.248-4.579 8.771-9.456-.075-.758-.372-1.689-1.044-2.128-.994-.647-1.221.117-2.125.313-1.468.318-3.201-1.622-4.321-2.456-3.029-2.258-5.987-4.751-7.784-8.138-.537-1.014-2.058-3.634-1.366-4.81m-31.11 43.178c.828-2.7-3.041-4.779-4.75-6.078-2.562-1.949-4.344-4.109-6.068-6.832-6.724-10.627-9.106-23.571-8.555-35.997.152-3.448.544-6.891.623-10.341.042-1.792-.075-3.46.318-5.229.371-1.672.814-3.327 1.224-4.99.82-3.317 1.24-6.714 2.219-9.992.909-3.037 2.147-5.967 3.597-8.783.967-1.88 1.867-4.516 4.393-4.155 3.156.451 6.242 2.076 9.315 2.924 3.403.939 6.846 1.724 10.282 2.531 3.324.781 6.573 1.89 9.919 2.564 1.75.353 3.479.496 5.261.466.777-.014 2.173-.088 2.248.975.084 1.163-1.701 2.425-2.434 3.138-1.035 1.005-1.795 1.952-2.361 3.288-1.348 3.181-2.57 6.5-3.069 9.931-.486 3.337-.403 6.846-.44 10.213-.075 6.793.888 13.297 3.326 19.66 2.208 5.757 5.666 9.727 10.401 13.571l-14.842 7.388c-4.458 2.215-8.965 4.127-12.775 7.4-1.569 1.348-3.425 2.903-4.545 4.661-1.4 2.196.57 3.689 2.657 2.81 2.298-.966 4.556-2.07 6.805-3.143 1.463-.698 3.907-2.568 5.614-2.521 1.451.041 2.002 1.895 2.647 2.923 1.034 1.644 2.323 3.109 3.744 4.43 2.986 2.778 6.487 5.101 10.17 6.851 4.063 1.931 8.449 3.25 12.883 4.006 2.418.412 4.876.629 7.328.537 1.84-.069 4.446-.074 6.107-.972 1.429-.773.68-2.351 2.095-3.16 1.49-.85 3.067-1.484 4.507-2.44 3.402-2.258 5.421-5.167 7.416-8.648 4.583-7.993 10.158-15.299 13.586-23.915.802-2.018 1.261-4.398 2.573-6.159.873-1.17 2.823-1.867 3.035-3.404.206-1.502-.398-4.822-1.89-5.516-1.726-.802-4.233-.814-6.106-1.25-8.136-1.9-15.727-4.792-22.212-10.176a50.55 50.55 0 0 1-4.591-4.341c-1.068-1.139-2.188-2.338-1.969-4.018.194-1.494 1.391-3.676-1.054-4.095-1.64-.281-3.895.584-5.232 1.427-4.006 2.529-7.728 5.573-11.553 8.365-3.488 2.547-7.062 4.972-10.606 7.439.414-5.862.223-12.216 1.618-17.94.682-2.795 1.873-5.431 3.402-7.862 1.572-2.494 2.824-5.108 4.198-7.71.765.444 2.015 1.436 2.714.254.435-.734.13-2.667-.034-3.511-1.217-6.258-10.721-6.885-15.621-7.952-7.048-1.536-14.086-3.392-21.22-4.482-3.294-.504-6.561-.604-9.877-.806-1.701-.104-3.683-.482-4.713 1.238-.276.462-.316 1.121-.617 1.488-.276.338-1.08.668-1.459.972-1.098.883-2.046 1.923-2.876 3.058-1.7 2.323-2.865 4.996-3.991 7.629-2.715 6.35-4.257 13.09-5.103 19.925-.868 7.006-1.473 14.25-1.011 21.307.849 12.991 4.379 26.206 12.562 36.587 1.876 2.38 3.92 4.329 6.624 5.747 1.308.687 5.42 3.116 6.159.713m93.225 152.852c-2.536 3.262-5.068 6.488-7.334 9.949l-6.684 10.549c-2.151 3.391-4.554 6.682-6.284 10.319-.998 2.096-1.095 4.857-3.836 4.758-3.622-.129-7.054-1.163-10.245-2.857-6.397-3.395-11.72-8.164-15.714-14.213-4.145-6.275-7.362-13.376-9.692-20.515-1.289-3.948-2.322-7.973-3.255-12.018-.474-2.051-.982-4.062-.986-6.18-.003-.932.055-1.862.103-2.792.045-.88.535-2.415-.477-2.476l.902-7.585c.224-1.826.21-3.874 1.811-5.083 1.531-1.158 3.935-1.197 5.739-1.605a89.66 89.66 0 0 0 6.487-1.728c4.391-1.346 8.593-3.129 12.831-4.886 2.115-.876 4.232-1.769 6.229-2.899 1.65-.936 2.833-2.293 3.951-.161 7.616 14.514 13.179 30.781 25.648 42.043 1.008.91 2.659 2.005 2.807 3.496.143 1.454-1.197 2.848-2.002 3.883m10.026-10.259c-1.758-1.206-3.938-1.406-5.722-2.519-2.044-1.276-3.397-4.153-4.793-6.07-3.332-4.573-6.671-9.174-9.679-13.97-2.731-4.354-5.203-8.867-7.827-13.286-1.345-2.264-2.732-4.469-4.316-6.574-.674-.894-2.384-4.058-3.826-3.939-.744.061-.714.783-1.247 1.017-.275.119-.494-.012-.762.025-.964.129-2.013-.359-3.007-.263-2.456.239-5.115 1.271-7.479 1.983-4.934 1.489-9.64 3.583-14.492 5.303-4.81 1.705-10.18 2.844-14.576 5.498-1.736 1.048-3.696 2.725-1.991 4.777.647.778 1.533.758 2.206 1.361.568.509.315.79.184 1.637l-.227 1.454c-.787 5.095-1.431 10.197-.721 15.342a109.71 109.71 0 0 0 3.263 15.413c4.598 15.911 12.823 34.795 28.985 41.846 3.778 1.647 7.536 2.038 11.522 2.781 1.253.234 2.315.802 3.428 1.377.533.275 1.193.72 1.834.641 1.463-.18 2.666-2.453 3.349-3.528 2.58-4.06 5.508-7.87 8.187-11.863 1.386-2.067 2.698-4.185 3.834-6.401.658-1.282 1.128-3.407 2.936-3.359l1.463 1.952c.196.261.49.551.633.843.359.735.331.19.181 1.059-.191 1.111-1.221 2.367-1.87 3.243-3.803 5.14-7.773 10.156-11.76 15.153-3.917 4.912-7.918 9.788-12.508 14.092-.929.871-1.946 1.933-3.304 1.992-1.255.054-2.629-.603-3.873-.821-2.706-.472-5.485-.58-8.123-1.399-1.372-.425-2.519-1.219-3.939-1.315-1.195-.083-2.01-.281-3.057-.915-2.37-1.432-5.006-2.218-7.402-3.57-4.943-2.788-10.051-6.929-13.675-11.302-1.878-2.266-3.418-4.79-5.261-7.084-1.791-2.231-3.558-4.447-5.125-6.848-3.088-4.732-5.546-9.859-7.414-15.193-.971-2.77-1.454-4.579.96-6.606 2.277-1.911 4.409-3.908 6.306-6.206.922-1.12 5.132-5.229 1.98-5.912-1.707-.371-4.433 2.51-5.716 3.554-2.089 1.701-4.137 3.349-6.554 4.567-2.737 1.378-2.787 3.128-2.748 5.991.082 5.902 2.28 11.652 4.558 17.039a79.19 79.19 0 0 0 8.821 15.659c6.751 9.308 14.303 18.749 24.799 23.955 5.189 2.575 10.794 3.933 16.528 4.575 3.386.379 6.799.511 10.203.428 1.437-.036 3.315.159 4.693-.278 1.117-.354 1.301-1.184 1.705-2.197.959-2.402 3.465-3.706 5.159-5.631 1.81-2.057 3.708-3.994 5.569-6.001 4.032-4.348 6.701-9.465 9.94-14.375 1.792-2.716 3.731-5.374 5.295-8.233 1.266-2.317 2.838-5.362 3.28-7.975.35-2.084-1.327-5.115-3.634-5.23-1.204-.061-2.167.886-3.352 1.008-.355.038-1.57-.207-1.995-.032 1.938-4.708 4.811-9.14 6.989-13.723 1.228-2.584 2.392-5.198 3.473-7.848.822-2.017 1.801-3.669-.288-5.102m31.009-372.684c3.808 8.793 9.93 15.802 16.182 22.938 3.307 3.777 6.684 7.207 10.696 10.246l11.282 8.367c-3.783 4.861-8.033 9.306-12.248 13.8-3.894 4.151-7.775 8.394-10.341 13.521-.266-2.454-1.859-3.971-4.006-4.972-2.68-1.249-5.144-2.606-7.472-4.447-4.94-3.907-9.537-8.561-13.743-13.233-8.557-9.503-14.011-21.455-19.956-32.632l29.606-13.589m-31.628 22.182c1.445 4.062 3.54 7.973 5.455 11.832 1.888 3.803 3.845 7.582 6.051 11.215 4.191 6.902 9.314 13.336 15.848 18.178 3.198 2.37 6.628 4.732 10.186 6.538 1.682.853 3.527 1.501 5.441 1.392 1.172-.067 2.794-1.105 3.703-.179.931.949.622 2.847 2.577 1.926 1.605-.757 3.015-2.367 4.195-3.629l8.905-9.761c2.795-3.217 5.091-6.882 7.451-10.42l3.883-5.876c.924-1.403 2.241-2.807 2.172-4.584-.132-3.467-4.384-5.818-6.8-7.746-2.961-2.364-5.711-4.792-8.233-7.62-2.683-3.01-6.062-5.53-8.966-8.356-3.152-3.066-6-6.401-8.825-9.763-2.243-2.668-4.466-5.403-6.366-8.325-1.484-2.283-3.16-4.036-6.128-3.613-2.323.537-4.653.92-6.892 1.773-2.252.858-4.419 1.942-6.606 2.95-3.966 1.825-7.613 4.134-11.465 6.164-.873.46-1.738.935-2.53 1.526-.437.325-.88.953-1.345 1.187-.344.172-.581.133-.976.244-1.561.438-2.149 1.308-2.929 2.678-1.254 2.203-1.219 3.387-.072 5.645 1.049 2.063 1.492 4.448 2.266 6.624m156.361 109.263c.975 1.565 2.572.795 3.483-.32 2.771-3.384 5.364-7.044 7.852-10.645 2.524-3.654 4.838-7.355 7.699-10.766 2.88-3.432 5.833-6.814 8.819-10.152 11.156-12.481 22.605-24.666 34.907-36.003 3.007-2.771 6.1-5.478 8.988-8.376 1.271-1.275 2.817-2.69 2.758-4.651-.042-1.398-.954-3.122-2.175-3.836-2.652-1.55-6.214 2.227-8.185 3.638-1.508 1.079-3.125 1.645-4.708 2.531-1.385.776-2.77 1.964-3.957 3.022-2.668 2.382-5.542 4.406-8.246 6.725-2.747 2.355-5.173 5.058-7.871 7.468-2.884 2.577-5.978 4.794-8.546 7.729-2.532 2.896-4.669 6.056-7.312 8.874-5.625 5.997-10.225 12.774-15.023 19.441-2.31 3.21-4.054 6.727-5.616 10.358l-2.284 5.452c-.697 1.732-.756 3.5-1.077 5.317.404.079.102 3.569.492 4.193m622.933 295.614c2.113-2.54 3.5-6.201 5.036-9.131 1.645-3.137 3.169-6.039 3.865-9.533.335-1.681.536-3.4.92-5.069.362-1.578.879-2.97.731-4.619-.155-1.721-.956-6.906-3.57-6.333-1.52.333-1.214 1.959-1.224 3.147-.011 1.361-.17 2.718-.57 4.022-.947 3.083-3.202 5.802-4.63 8.695-1.383 2.804-3.022 5.357-5.092 7.706a55.51 55.51 0 0 1-6.552 6.303c-2.052 1.67-4.528 2.933-6.021 5.199-.893 1.357-1.042 1.763-2.684 2.136-1.325.302-2.569.786-3.684 1.577-1.263.896-2.161 1.968-3.639 2.557-1.286.513-2.648.819-3.946 1.299-3.002 1.108-5.623 2.979-8.691 4.027-1.587.543-3.199 1.006-4.805 1.487-1.284.385-2.804.648-3.867 1.517-1.785 1.459-2.785 5.183-1.224 7.121 1.681 2.087 5.622.782 7.809.515l.085.427c3.682-.74 7.521-1.177 11.099-2.333 1.892-.611 3.591-1.484 5.319-2.45 1.464-.817 2.964-1.106 4.53-1.628 1.401-.465 2.518-1.173 3.394-2.382 1.119-1.549 1.592-1.088 3.318-1.466 2.773-.609 5.162-3.756 7.069-5.657 2.324-2.319 4.929-4.612 7.026-7.134M405.68 128.495c.648-1.024 2.904-1.951 3.94-2.618l4.177-2.824c2.475-1.787 4.205-.612 6.401 1.099 4.058 3.16 5.687 7.405 5.383 12.428.01 1.467.404 3.922-.725 5.13-1.08 1.158-3.323 1.044-4.75 1.333-1.868.378-4.689 2.742-6.623 2.05-1.696-.607-1.096-3.633-1.232-4.968-.256-2.493-1.086-4.906-2.618-6.92-.788-1.035-1.732-1.916-2.769-2.703-.793-.603-1.826-.99-1.184-2.007m-7.437 7.545c1.597.278 3.246 1.019 4.74 1.626.991.402 2.289.779 3.09 1.492 1.329 1.183.79 3.051 1.099 4.6.181.906.646 1.686.311 2.627-.391 1.099-1.542 1.288-2.126 2.18-.854 1.307.248 3.154.986 4.269 1.28 1.935 3.027.947 5.001.657 2.378-.349 4.821-.446 7.111-1.229 1.866-.637 3.413-2.114 4.837-.149.531.733.64 1.381 1.685 1.105.869-.228 1.752-1.408 2.349-2.012 3.717-3.763 4.603-8.905 4.664-13.979.178-5.633-1.869-10.927-4.771-15.688-.61-1.001-1.222-2.156-2.134-2.933-.886-.758-2.041-1.055-2.844-1.939-1.197-1.318-.919-3.987-2.828-4.568-2.01-.614-4.902 1.824-6.424 2.868-2.144 1.469-4.24 3-6.303 4.575-4.42 3.374-9.356 6.603-13.352 10.46-1.355 1.309-1.908 3.621-.549 5.183s3.687.548 5.458.856m237.154 403.613c-.858-4.979-2.303-9.845-4.057-14.588-1.136-3.071-3.728-8.358-7.868-8.053-4.558.335-1.504 6.283-1.061 8.648 1.731 9.255 2.732 18.722 4.101 28.039.678 4.617.882 9.374 1.973 13.919.533 2.213 1.29 4.378 2.223 6.459.595 1.328 1.306 3.055 2.793 3.654 4.516 1.818 3.388-6.122 3.338-8.08l-.353-14.375.37-.01c-.686-5.194-.567-10.429-1.459-15.613m-536.9 87.157c-2.471.806-4.307 1.428-6.996 1.173l-5.628-.8c-4.843-.608-9.46-1.945-13.905-3.939-4.041-1.813-7.825-3.998-11.161-6.908-1.76-1.534-3.351-3.22-4.914-4.946-1.12-1.238-2.154-2.17-3.893-2.389.451 2.502.979 4.474 2.174 6.748a39.51 39.51 0 0 0 3.289 5.229c2.52 3.377 5.613 6.314 9.108 8.692 3.435 2.337 7.299 4.322 11.35 5.346 2.261.571 4.575.913 6.864 1.352 2.162.415 4.264.833 6.471.53 2.065-.283 4.242-.356 6.253-.938 1.589-.46 3.102-1.47 4.457-2.392 2.641-1.798-.237-7.81-3.469-6.756m80.646-562.969c1.229 1.646 3.866 1.655 3.69-.757-.158-2.212-.845-4.391-1.559-6.474-.728-2.127-.578-4.438-.62-6.659-.098-5.303.075-10.441 1.071-15.661.957-5.024 1.574-10.109 2.694-15.103 1.098-4.901 3.088-9.535 4.314-14.395.38-1.501.684-4.431-1.513-4.773-1.827-.285-2.904 2.276-3.612 3.486-2.355 4.024-4.895 7.745-6.292 12.229-1.259 4.04-2.211 8.34-2.652 12.548-.463 4.41-.394 8.866-.663 13.289.441 5.139.207 10.828 1.858 15.754.745 2.218 1.874 4.626 3.285 6.516m689.512 20.202c-.723 1.735-1.075 3.584.166 5.214 2.253 2.957 5.841-3.777 6.387-5.657 1.184-4.075 2.668-8.18 3.331-12.389.676-4.292.354-8.907.461-13.258-.359-5.163-1.046-10.314-2.278-15.337-1.091-4.455-2.249-9.047-5.877-12.049-1.509-1.249-2.545-.304-2.758 1.477-.232 1.955.28 3.922 1.17 5.635 2.087 4.017 2.09 8.714 2.558 13.205.928 8.931 1.45 17.835-.889 26.597-.6 2.247-1.379 4.423-2.271 6.562m-766.073 99.781l1.849 5.996c1.445 3.779 3.314 7.41 5.621 10.736 3.807 5.488 8.833 10.7 14.286 14.559 1.798 1.273 6.164 4.831 8.5 3.643 3.196-1.624-1.081-5.768-2.379-6.981l-8.049-7.502c-2.716-2.481-4.737-5.661-6.879-8.632-2.158-2.994-4.267-6.025-6.221-9.157-1.012-1.619-1.893-3.319-2.897-4.94-.869-1.402-2.157-2.365-3.276-3.548-.932.444-.823.366-1.063 1.211-.103.363-.071 1.101-.065 1.434.018 1.096.302 2.124.573 3.181m229.452 31.446c5.07-4.592 10.634-8.472 15.421-13.364 1.204-1.231 2.136-1.95 1.093-3.633-.697-1.123-1.497-1.692-2.673-.923-2.813 1.84-5.491 4.1-8.201 6.106-5.557 4.113-11.319 8.146-16.335 12.916-2.27 2.16-4.369 4.51-6.132 7.101-1.85 2.719-3.248 5.477-1.179 8.524l18.007-16.727m617.563 377.759c-.908-.223-2.417.78-3.092 1.225l-8.191 5.135-7.442 4.88c-2.053 1.373-3.399 3.062-2.677 5.657.33 1.184.876 2.571 2.25 1.893 1.008-.498 1.879-.982 2.988-1.374 2.79-.988 5.606-1.965 8.212-3.389 4.517-2.468 8.748-6.289 9.354-11.671-.336-.762-.432-2.117-1.401-2.355m-296.885-54.299c-.918-1.003-2.044-1.015-2.529.196-.5 1.248.149 3.386.327 4.623l.956 6.067c.202 1.178.35 4.84 1.897 5.316 2.372.732 2.43-5.039 2.634-6.215l-1.478-5.119c-.442-1.494-.712-3.672-1.807-4.87m-399.51-99.545c-.568-.27-1.006-.153-1.126-.828-.101-.561.781-1.146.915-1.627.483-1.734-1.336.09-1.994.638l1.876 4.632 2.124-.849c-.677-.917-.762-1.472-1.795-1.964m331.819-279.327c1.181.389 2.913-.14 4.117-.364 1.162-.216 2.472-.538 3.58-.971 2.737-1.067 2.504-4.304 1.872-6.821-.852-3.389-2.748-6.634-4.251-9.762-.78-1.628-1.534-3.256-2.243-4.918-.535-1.254-1.243-3.013-2.868-3.026-2.506-.02-1.283 5.883-.885 7.287 1.002 3.539 2.863 6.8 4.417 10.103-1.436.098-2.913.287-4.346.238-1.489-.05-1.894-.005-2.258 1.657-.524 2.405.198 5.699 2.864 6.576m-22.58-28.924l8.074-.751c1.976-.223 5.424-.262 6.828-1.825.962-1.072.797-3.354-.051-4.465-1-1.312-3.336-.795-4.821-.795-4.01.067-7.899.6-11.484 2.368-1.317.649-4.279 1.83-3.965 3.598.395 2.222 3.768 1.971 5.42 1.87m11.241 31.128c-2.253.565-1.821 4.425-1.126 6.048 1.041 2.43 3.665 3.019 6.076 2.864 1.159-.116 2.825.301 3.694-.669.857-.959.846-2.882.239-3.955-.803-1.419-2.885-2.224-4.295-2.883-1.226-.574-3.176-1.759-4.589-1.404m.3-20.067c.176-2.211-1.089-7.179-4.039-6.993-1.402.088-2.597 2.095-2.853 3.328-.269 1.299.104 2.614.444 3.858.559 2.053 1.399 5.219 4.127 4.765 2.264-.378 2.326-3.084 2.32-4.958m21.276 2.226c.597.58 1.468 1.012 2.305.632 1.233-.561 1.022-2.04 1.022-3.095l.414-.134c-.7-1.941-1.159-6.006-3.591-6.556-2.387-.539-2.561 2.112-2.336 3.766.239 1.765.843 4.079 2.186 5.387M520.236 144c-1.186.119-3.417.669-3.223 2.156.281 2.167 3.678 2.555 5.404 2.764 2.043.25 4.877.042 2.933-2.519-1.184-1.56-3.163-2.249-5.114-2.401m-99.962 259L419 405.49l3.999.51c.057-1.057-2.016-2.368-2.725-3"/></svg>