<svg width="382" height="272" viewBox="0 0 382 272" fill="none" xmlns="http://www.w3.org/2000/svg">
<path fill-rule="evenodd" clip-rule="evenodd" d="M147.731 149.636C147.574 150.449 147.179 150.832 147.593 151.579C147.944 152.213 148.951 152.629 149.627 152.468L147.731 149.636ZM129.415 120.714L126.08 121.857C126.991 122.751 127.86 123.691 128.865 124.485L129.415 120.714ZM184.424 123.641C182.833 122.84 181.052 122.749 179.308 122.646C179.573 124.078 179.839 125.51 180.104 126.941C181.544 125.841 182.984 124.741 184.424 123.641ZM146.231 234.456C145.914 233.894 143.749 229.551 143.299 229.774C143.06 229.892 143.041 232.31 143.006 232.654C142.882 233.877 142.758 235.1 142.634 236.323C143.915 235.871 145.282 235.496 146.231 234.456ZM131.105 199.347C131.432 200.307 131.76 201.267 132.088 202.227C132.243 202.683 132.334 203.356 132.61 203.759C132.968 204.281 132.698 204.588 133.176 204.016C133.689 203.402 133.843 201.764 134.065 201.012C134.404 199.868 134.742 198.726 135.081 197.583C133.486 197.57 132.519 198.883 131.105 199.347ZM97.5947 142.825C95.6339 144.165 93.6488 145.495 91.9428 147.161C93.4436 147.067 95.5333 148.1 96.9469 147.615C97.5995 147.754 97.8152 147.506 97.5947 146.871V145.551V142.825ZM126.668 152.306V160.131C128.499 158.571 130.426 157.122 132.188 155.481C130.348 154.423 128.509 153.364 126.668 152.306ZM192.116 172.581C191.538 176.065 191.506 179.649 191.348 183.175C191.32 183.8 191.079 184.742 191.496 185.29C191.914 185.84 193.106 186.144 193.711 186.438C195.415 187.264 197.108 188.114 198.807 188.95C196.577 183.494 194.346 178.037 192.116 172.581ZM235.381 151.158C239.585 149.091 243.79 147.025 247.994 144.958C243.872 143.213 239.75 141.468 235.628 139.723C235.546 143.534 235.463 147.346 235.381 151.158ZM192.107 160.888C192.875 160.943 192.997 158.016 193.124 157.242C193.366 155.773 193.614 154.305 193.868 152.838C194.378 149.905 194.913 146.976 195.476 144.053C196.602 138.208 197.844 132.385 199.221 126.594C197.742 126.327 196.382 126.135 194.938 125.705C193.77 125.357 192.381 125.546 191.339 124.823C191.204 127.536 191.881 130.421 192.132 133.135C192.422 136.274 192.579 139.398 192.553 142.552C192.502 148.664 192.27 154.778 192.107 160.888ZM95.34 243.7C96.0686 243.506 95.0766 233.518 95.0323 232.078C94.9056 227.908 94.8811 223.735 94.9556 219.564C91.0302 222.025 87.0136 224.292 82.867 226.337C83.9327 227.719 84.9314 229.21 86.1107 230.496C87.3258 231.821 88.7197 232.907 89.8457 234.334C92.1127 237.208 93.6656 240.47 95.34 243.7ZM189.799 184.616C189.982 181.612 190.151 178.614 190.454 175.619C190.583 174.344 191.815 167.571 189.843 167.73C188.721 167.821 186.753 169.462 185.724 170.038C184.365 170.798 183.005 171.555 181.639 172.304C178.945 173.78 176.232 175.224 173.528 176.683C178.952 179.328 184.375 181.972 189.799 184.616ZM178.089 122.149C175.842 121.982 173.671 121.815 171.455 121.396C170.26 121.171 169.065 121.202 167.864 121.05C167.003 120.94 165.321 120.234 164.52 120.465C163.513 120.756 163.147 125.803 163.008 127.07C162.785 129.111 162.635 131.586 163.546 133.503C165.303 137.198 170.036 134.314 172.339 132.764C174.313 131.435 176.549 130.089 178.299 128.476C179.85 127.047 178.458 123.996 178.089 122.149ZM189.739 162.332C191.432 161.647 191.405 160.787 191.479 159.017C191.568 156.865 191.62 154.711 191.682 152.558C191.791 148.722 191.895 144.885 191.861 141.046C191.828 137.297 191.644 133.554 191.215 129.828C191.063 128.511 191.214 126.26 190.52 125.137C189.886 124.111 187.919 124.101 186.846 124.164C185.636 124.235 184.656 125.384 183.763 126.111C182.775 126.916 180.743 128.049 180.581 129.249C180.399 130.589 181.135 132.501 181.42 133.801C182.464 138.546 183.733 143.244 185.071 147.913C186.458 152.757 187.864 157.649 189.739 162.332ZM146.736 150.975C146.845 149.909 147.242 149.019 146.705 148.004C146.244 147.13 145.494 146.253 144.931 145.427C143.318 143.059 141.509 140.791 139.752 138.53C138.143 136.458 136.494 134.409 134.807 132.4C133.868 131.281 132.9 130.187 131.937 129.088C131.232 128.284 130.564 127.154 129.566 126.733C128.832 131.35 128.224 135.988 127.751 140.64C127.522 142.889 127.324 145.141 127.159 147.396C127.112 148.032 126.618 150.181 126.934 150.773C127.266 151.396 129.294 152.229 129.915 152.61C131.651 153.677 132.999 155.284 134.65 153.531C135.787 152.323 136.702 150.621 137.972 149.567C138.634 149.018 139.257 149.044 140 148.718C140.863 148.339 140.89 147.974 141.921 148.49C143.659 149.357 144.715 150.639 146.736 150.975ZM59.7404 174.735C59.7404 177.932 59.5218 180.56 61.6889 183.148C63.5827 185.41 65.5506 185.933 68.2143 186.826C69.7828 187.351 69.8924 186.867 71.1633 185.98C72.3713 185.137 73.6866 184.461 74.8778 183.592C77.4454 181.718 80.0111 179.785 82.5065 177.814C83.3453 177.152 83.2216 177.378 83.0943 176.583C82.9777 175.858 82.4577 174.936 82.1735 174.247C81.6594 173 81.0537 171.794 80.4477 170.589C79.7597 169.223 79.1604 167.739 78.3059 166.465C77.9512 165.936 77.5303 165.458 77.1165 164.976C76.2452 163.961 76.2761 163.999 75.2343 164.828C73.0347 166.58 70.9882 168.476 68.5126 169.846C65.5837 171.467 62.6619 173.099 59.7404 174.735ZM126.062 149.97C126.38 145.38 126.739 140.815 127.289 136.246C127.571 133.9 127.9 131.561 128.22 129.219C128.351 128.266 128.854 126.666 128.573 125.74C128.298 124.829 127.083 123.961 126.416 123.302C126.237 123.125 125.686 122.381 125.449 122.347C125.196 122.312 124.241 123.011 123.966 123.169C122.992 123.727 122.036 124.314 121.094 124.925C119.32 126.076 117.6 127.312 115.918 128.594C112.389 131.281 109.025 134.173 105.571 136.955C108.735 139.728 112.63 141.881 116.167 144.127C118.259 145.455 120.361 146.768 122.491 148.034C123.57 148.676 124.823 149.657 126.062 149.97ZM82.8108 232.045C80.2559 233.735 77.816 235.518 74.9266 236.602C72.0502 237.681 69.2073 238.097 66.2345 238.738C64.7352 239.062 63.3261 239.416 61.7959 239.642C60.9384 239.769 59.6112 239.72 58.8293 240.082C58.1331 239.934 57.8851 240.171 58.0858 240.794C58.0933 240.988 58.1007 241.182 58.1082 241.375C58.3052 244.069 60.0369 247.312 61.5474 249.502C62.4291 250.781 63.5525 251.971 64.6689 253.046C65.9294 254.26 66.6561 255.116 68.4132 254.608C71.3749 253.75 73.9887 252.024 76.9906 251.263C79.3652 250.661 81.3376 249.4 83.6534 248.747C86.5093 247.942 89.3354 247.024 92.2308 246.351C90.9375 243.855 89.7809 241.255 88.1251 238.969C86.427 236.622 84.5544 234.367 82.8108 232.045ZM98.4804 148.042C103.823 149.105 109.615 150.089 114.397 152.848C116.263 153.924 118.629 155.588 119.175 157.815C119.828 160.476 117.26 162.124 115.114 162.955C112.538 163.952 109.734 164.334 107.004 164.648C105.559 164.815 104.108 164.906 102.656 164.988C101.481 165.055 99.4888 164.797 98.4149 165.263C97.7422 165.129 97.509 165.401 97.7154 166.081C97.7027 166.325 97.6904 166.569 97.6781 166.813L97.5667 169.007C97.4926 170.468 97.4185 171.929 97.344 173.39C97.1827 176.573 97.021 179.756 96.8597 182.939C99.6583 181.205 101.914 178.722 104.649 176.872C105.949 175.993 107.24 175.111 108.536 174.235C109.079 173.868 109.411 173.352 109.945 173.01C110.654 172.556 111.282 172.283 111.947 171.688C114.663 169.259 117.682 167.16 120.563 164.931C121.871 163.918 123.303 162.986 124.548 161.9C125.852 160.761 125.671 159.824 125.639 158.188C125.606 156.455 126.242 154.304 125.947 152.634C126.194 152.067 126.004 151.714 125.376 151.575C124.957 151.307 124.538 151.039 124.118 150.771C123.282 150.236 122.446 149.701 121.61 149.166C118.283 147.039 114.957 144.911 111.63 142.784C109.968 141.721 108.306 140.659 106.644 139.596C106.18 139.299 104.666 137.958 104.146 137.998C103.615 138.038 102.693 139.075 102.295 139.405C101.684 139.911 101.091 140.443 100.431 140.886C100.102 141.114 99.7585 141.318 99.4009 141.497C98.8291 141.552 98.6306 141.866 98.8045 142.438C98.3024 144.049 98.5784 146.35 98.4804 148.042ZM172.574 223.973C171.364 218.316 169.804 211.619 165.084 207.771C160.298 203.869 153.301 205.377 149.557 209.959C147.682 212.254 146.519 214.968 145.656 217.78C144.769 220.666 143.463 224.426 143.702 227.479C143.807 228.817 144.953 230.255 145.609 231.422C146.285 232.628 146.734 234.357 148.327 233.939C150.798 233.291 153.311 231.804 155.623 230.74C157.961 229.663 160.423 228.778 162.848 227.738C164.458 227.047 166.13 226.522 167.735 225.822C169.258 225.158 171.267 224.998 172.574 223.973ZM244.067 190.283C247.442 191.491 249.196 189.558 251.57 187.381C253.82 185.319 256.257 183.336 258.328 181.094C260.465 178.783 262.154 176.052 263.797 173.383C265.457 170.685 267.702 167.772 268.724 164.767C269.244 163.239 269.466 161.546 269.794 159.966C269.873 159.585 270.402 158.17 270.234 157.85C270.003 157.41 268.529 157.364 268.125 157.3C264.904 156.791 261.492 156.765 258.262 157.22C252.013 158.101 246.786 161.606 244.811 167.734C242.496 174.918 243.608 182.903 244.067 190.283ZM222.185 127.972C222.133 129.216 225.115 129.561 225.888 129.852C227.673 130.521 229.449 131.229 231.183 132.021C234.754 133.654 238.562 134.717 241.982 136.691C249.353 140.945 257.355 143.944 264.802 148.013C265.962 148.647 268.23 150.175 269.555 150.046C270.259 149.977 269.734 150.544 270.192 149.424C270.356 149.021 270.411 148.497 270.503 148.065C270.779 146.772 270.992 145.466 271.302 144.18C271.812 142.062 272.333 140.097 272.548 137.921C272.639 136.999 272.739 136.077 272.749 135.15C272.761 134.21 272.977 131.854 272.553 131.04C272.271 130.5 272.215 130.686 271.512 130.533C271.109 130.446 270.686 130.265 270.297 130.144C269.385 129.86 268.472 129.587 267.516 129.504C266.571 129.421 265.967 129.133 265.081 128.967C264.152 128.791 263.197 129.004 262.249 128.759C261.227 128.495 260.739 128.254 259.67 128.355C258.635 128.453 258.337 128.223 257.322 127.941C256.476 127.706 255.467 127.87 254.584 127.799C253.517 127.712 252.452 127.578 251.383 127.494C246.578 127.113 241.716 127.677 236.9 127.633C234.281 127.608 231.718 127.995 229.103 127.875C226.817 127.771 224.454 127.796 222.185 127.972ZM234.686 153.297C232.348 154.188 230.181 155.634 228.014 156.879C225.515 158.315 223.123 159.841 220.81 161.563C216.922 164.458 212.384 167.93 211.36 172.983C210.31 178.169 214.814 182.418 219.036 184.54C223.851 186.959 229.453 188.21 234.728 189.135C234.164 177.197 234.296 165.239 234.686 153.297ZM164.757 181.403C163.339 181.795 162.138 182.634 160.823 183.255C159.645 183.811 158.504 184.23 157.404 184.946C155.61 186.113 153.531 187.112 151.656 188.015C147.016 190.247 142.511 193.02 137.918 195.494C136.7 196.15 136.302 196.564 135.889 197.914C135.441 199.38 135.019 200.856 134.588 202.328C134.186 203.7 133.544 205.167 133.713 206.616C133.86 207.876 134.512 209.064 135.003 210.214C136.241 213.107 137.582 215.953 138.968 218.777C140.212 221.312 141.347 224.002 142.943 226.332C144.184 219.861 145.298 212.609 150.108 207.678C154.914 202.75 162.582 202.681 167.213 207.767C169.414 210.184 170.753 213.227 171.805 216.285C172.358 217.891 172.729 219.528 173.085 221.188C173.465 222.96 173.372 223.9 175.327 223.363C176.88 222.937 178.527 222.596 180.049 222.11C180.839 221.858 181.609 221.574 181.645 220.95C181.69 220.162 180.629 218.549 180.316 217.808C178.698 213.982 177.08 210.156 175.462 206.33C173.705 202.176 171.948 198.021 170.19 193.867C169.313 191.794 168.436 189.722 167.559 187.649C166.758 185.76 166.092 182.954 164.757 181.403ZM234.817 149.095C234.843 147.206 234.875 145.317 234.899 143.428C234.914 142.303 235.416 140.126 234.436 139.321C233.828 138.823 232.024 138.441 231.256 138.1C229.738 137.427 228.096 137.127 226.57 136.458C220.593 133.84 214.372 131.66 208.218 129.549C206.892 129.094 205.535 128.722 204.2 128.274C203.478 128.032 200.807 126.611 200.14 126.983C199.556 127.308 199.115 131.182 198.928 131.986C198.485 133.89 198.062 135.8 197.655 137.712C196.075 145.136 194.75 152.613 193.518 160.102C196.791 158.859 199.929 156.706 203.022 155.041C206.234 153.311 209.436 151.586 212.671 149.896C213.584 149.419 216.796 147.226 217.547 148.087C218.753 149.468 215.88 151.087 215.126 151.679C212.209 153.967 209.127 155.962 206.007 157.958C202.774 160.026 199.409 161.854 196.16 163.885C194.987 164.618 193.114 165.51 192.653 166.748C192.06 168.341 192.488 170.277 193.028 171.799C194.354 175.538 195.807 179.231 197.342 182.889C198.041 184.553 198.757 186.208 199.487 187.858C200.356 189.822 201.496 190.238 203.389 191.142C211.455 194.993 219.833 198.648 227.581 203.105C226.284 204.6 223.124 202.146 221.845 201.524C219.475 200.373 217.103 199.226 214.735 198.072C210.323 195.921 205.934 193.728 201.498 191.63C204.341 198.096 207.697 204.327 211.417 210.33C210.478 210.648 210.707 210.665 210.117 210.1C209.62 209.624 209.287 208.692 208.951 208.094C208.255 206.86 207.569 205.621 206.868 204.39C205.415 201.835 203.909 199.319 202.581 196.695C201.583 194.721 200.81 191.271 198.758 190.276C196.202 189.036 193.611 187.829 191.055 186.571C191.055 196.403 191.762 206.016 192.799 215.788C192.851 216.28 193.324 217.735 192.371 217.592C191.942 217.528 191.797 214.832 191.721 214.269C191.375 211.688 191.081 209.101 190.841 206.508C190.362 201.334 190.102 196.14 190.068 190.945C189.455 195.996 188.841 201.047 188.228 206.099L187.356 213.279C187.203 214.536 187.05 215.794 186.898 217.051C186.828 217.628 186.872 218.383 186.669 218.934C186.35 219.801 186.457 219.735 185.456 220.13C186.413 213.552 187.297 206.963 188.079 200.362C188.461 197.141 188.818 193.918 189.148 190.691C189.237 189.824 189.323 188.955 189.408 188.087C189.451 187.645 189.833 186.222 189.621 185.854C189.411 185.49 188.021 185.11 187.62 184.924C186.744 184.518 185.867 184.111 184.992 183.702C182.149 182.373 179.308 181.034 176.497 179.64C175.267 179.031 173.977 178.089 172.639 177.763C171.307 177.44 170.339 178.367 169.2 178.956C168.314 179.414 166.226 180.025 165.634 180.804C165.083 181.529 166.794 184.43 167.244 185.499C168.511 188.516 169.779 191.534 171.047 194.551C173.618 200.669 176.189 206.787 178.76 212.905C179.388 214.4 180.017 215.896 180.645 217.391C181.048 218.35 181.72 221.081 182.697 221.188C183.129 221.235 183.839 220.764 184.257 220.629C184.881 220.428 185.457 220.431 186.083 220.325C187.229 220.13 188.42 219.539 189.546 219.124C192.44 218.057 195.44 217.368 198.357 216.372C201.288 215.371 204.171 214.246 207.09 213.245C209.742 212.336 212.417 211.3 214.964 210.116C217.654 208.866 220.412 207.763 223.033 206.377C227.807 203.852 232.529 201.493 236.747 198.397C237.739 197.668 238.795 196.937 239.776 196.158C240.636 195.473 242.278 194.628 242.863 193.729C243.086 193.386 243.278 192.713 243.017 192.306C242.738 191.869 241.499 191.909 240.92 191.831C239.094 191.586 237.269 191.34 235.444 191.095C235.584 192.296 235.725 193.495 235.827 194.7C235.898 195.55 236.401 197.798 235.723 198.464C234.791 197.579 235.091 194.93 235.007 193.75C234.963 193.119 235.123 191.885 234.841 191.325C234.531 190.712 233.676 190.72 232.901 190.553C229.614 189.842 226.357 189.245 223.176 188.118C217.803 186.215 211.38 183.001 210.18 176.803C208.929 170.342 214.427 164.743 219.056 161.139C221.827 158.982 224.776 157.114 227.826 155.379C229.251 154.569 230.676 153.759 232.11 152.965C232.632 152.677 234.345 152.083 234.62 151.579C234.902 151.063 234.758 149.683 234.817 149.095ZM119.859 248.329C119.598 248.457 119.337 248.584 119.077 248.711C121.977 240.448 124.85 232.221 127.274 223.802C128.445 219.739 129.63 215.679 130.84 211.627C131.363 209.879 132.646 207.472 132.29 205.662C131.904 203.702 130.979 201.618 130.263 199.754C125.68 202.635 121.001 205.368 116.342 208.118C112.165 210.584 107.918 212.777 103.711 215.218C101.556 216.468 99.3327 217.312 97.0832 218.334C95.2554 219.164 95.965 221.702 95.9915 223.397C96.0838 229.382 96.0794 235.389 96.4426 241.365C96.5748 243.542 96.4042 246.042 97.7902 247.854C99.5629 250.171 101.207 252.533 102.824 254.972C103.429 255.886 105.974 260.833 106.923 260.725C107.542 260.654 108.112 258.651 108.422 258.176C109.09 257.152 110.066 256.271 110.955 255.447C114.793 251.886 119.052 249.377 123.479 246.775C127.976 244.131 132.578 241.67 137.16 239.163C138.195 238.596 139.31 238.187 140.339 237.609C140.745 237.38 141.551 237.017 141.807 236.608C142.189 235.996 142.06 234.302 142.139 233.571C142.302 232.077 142.596 230.525 142.611 229.02C142.626 227.534 141.733 226.257 141.085 224.961C138.241 219.27 135.479 213.565 133.005 207.702C131.054 214.51 129.006 221.287 127.092 228.105C126.093 231.665 124.889 235.168 123.716 238.673C123.118 240.464 122.516 242.253 121.918 244.044C121.452 245.438 121.21 247.48 119.859 248.329ZM160.699 120.018C159.192 120.035 157.826 119.813 156.351 119.498C155.81 119.383 155.335 119.334 154.787 119.286C154.165 119.231 153.6 118.894 153.056 118.828C152.644 118.779 151.924 118.952 151.531 119.084C150.619 119.389 150.648 119.235 150.61 120.293C150.551 121.929 150.506 123.565 150.416 125.199C150.063 131.632 149.379 138.002 148.443 144.372C148.254 145.66 147.723 147.349 148.015 148.627C148.278 149.78 149.274 151.012 149.932 151.979C151.285 153.967 154.472 154.95 156.714 155.514C159.078 156.109 161.533 156.328 163.779 156.858C164.402 157.006 165.116 156.746 165.78 156.894C166.393 157.03 166.869 157.367 167.436 157.61C168.825 158.207 170.377 158.317 171.812 158.777C174.656 159.69 177.702 159.635 180.548 160.512C181.276 160.736 181.905 161.301 182.605 161.494C183.246 161.671 183.905 161.463 184.575 161.562C185.995 161.77 187.319 162.256 187.646 163.78C188.515 163.093 188.635 163.273 188.485 162.21C188.389 161.529 188.01 160.699 187.802 160.042C187.272 158.366 186.739 156.692 186.21 155.016C185.163 151.701 184.122 148.383 183.157 145.043C182.293 142.055 181.508 139.044 180.822 136.011C180.473 134.468 180.181 132.919 179.882 131.368C179.795 130.918 179.881 130.203 179.429 129.904C179.019 129.632 178.062 130.607 177.629 130.921C174.603 133.112 167.663 139.595 163.88 135.771C161.843 133.712 161.962 130.091 162.183 127.431C162.319 125.796 162.606 124.182 162.927 122.574C163.007 122.173 163.498 120.884 163.318 120.598C163.124 120.291 161.104 120.108 160.699 120.018ZM267.016 155.798C267.822 155.888 268.627 155.978 269.432 156.069C269.358 155.418 269.425 154.439 269.178 153.833C268.838 152.996 268.004 152.902 267.086 152.555C265.635 152.006 264.155 151.529 262.72 150.938C259.605 149.657 256.505 148.357 253.388 147.075C252.022 146.513 250.417 145.593 248.934 146.052C247.334 146.547 245.756 147.556 244.26 148.295C242.567 149.131 240.875 149.97 239.183 150.808C238.39 151.202 237.596 151.595 236.803 151.988C235.556 152.606 235.39 152.668 235.292 154.079C234.791 161.295 234.828 168.791 235.046 176.016C235.158 179.704 235.033 183.411 235.298 187.092C235.318 187.375 235.297 188.973 235.474 189.191C235.724 189.498 237.481 189.601 237.9 189.678C239.537 189.978 241.186 190.077 242.839 190.225C242.45 181.832 241.019 171.91 245.329 164.233C249.658 156.52 258.912 154.849 267.016 155.798ZM191.752 73.227C192.237 72.1215 193.073 71.188 193.787 70.218C194.174 69.6936 194.842 69.0667 195.089 68.4532C195.441 67.58 195.439 67.767 194.913 67.0023C194.416 66.2797 194.426 66.2253 193.657 66.096C193.01 65.9873 192.32 66.172 191.659 66.0536C190.991 65.9336 189.153 65.3704 189.574 64.3066C189.556 64.3531 190.619 63.829 190.702 63.7381C190.969 63.4472 191.054 62.827 191.185 62.4754C191.61 61.3482 191.759 60.6185 191.286 59.4183C190.579 57.6263 187.785 57.0958 186.045 57.6989C185.175 57.9999 184.679 58.6383 184.289 59.4407C184.04 59.9503 183.982 60.6867 183.661 61.1303C183.177 61.7982 183.147 61.7241 182.143 61.606C180.865 61.4559 179.817 60.9649 178.606 60.6226C177.287 60.2494 176.429 61.0085 175.277 61.6205C173.196 62.7261 171.187 63.1097 168.856 63.2852C166.26 63.4807 163.855 62.855 161.285 62.6937C161.952 65.7649 163.676 68.2583 165.054 71.0394C165.296 71.5285 165.688 72.0283 165.697 72.5942C165.707 73.1272 164.935 73.8524 165.022 74.2935C165.208 75.2344 167.278 75.9876 168.063 76.2524C170.282 77.0008 172.808 78.4658 175.251 77.8772C176.59 77.5547 177.31 75.4404 178.57 75.285C180.261 75.0757 178.996 77.2526 178.682 78.0013C181.081 78.3659 184.122 78.0568 186.419 77.2432C187.57 76.8357 188.545 76.2275 189.595 75.6244C190.903 74.8734 191.175 74.6671 191.752 73.227ZM149.766 118.936C145.489 119.007 141.149 118.391 136.862 118.957C135.869 119.088 134.889 119.298 133.913 119.523C133.211 119.684 130.983 119.82 130.516 120.342C130.089 120.817 130.086 123.007 129.999 123.625C129.803 124.999 129.855 125.474 130.732 126.536C133.615 130.033 136.619 133.426 139.461 136.962C142.19 140.358 144.431 144.153 147.19 147.501C148.663 143.212 148.752 138.065 149.156 133.567C149.372 131.169 149.568 128.769 149.753 126.369C149.928 124.082 150.525 121.115 149.766 118.936ZM94.4028 164.14C94.8974 164.14 95.6864 164.295 96.1673 164.14C96.8284 164.351 97.0493 164.103 96.8307 163.396C96.8411 163.149 96.8515 162.902 96.8623 162.655C96.9313 161.062 97.0072 159.469 97.081 157.876C97.1488 156.419 97.2147 154.962 97.2721 153.506C97.3116 152.511 97.8141 150.046 97.4121 149.147C97.1421 148.544 96.5025 148.681 95.7244 148.592C94.9842 148.509 94.2419 148.431 93.5058 148.316C92.5716 148.171 91.5361 147.836 90.5855 148.046C89.6304 148.256 88.9361 149.138 88.1866 149.699C87.0006 150.586 85.7889 151.44 84.5928 152.313C82.4189 153.9 80.267 155.517 78.1114 157.129C77.2212 157.794 77.0502 157.563 77.4841 158.52C77.7527 159.111 78.3632 159.779 78.735 160.313C79.4751 161.376 80.2123 162.987 81.1618 163.85C82.5433 165.105 86.3767 164.308 88.2119 164.299C90.3046 164.289 92.322 164.321 94.4028 164.14ZM99.8196 164.036C101.634 163.859 103.468 163.935 105.271 163.691C107.232 163.426 109.179 163.033 111.136 162.738C113.087 162.445 119.023 161.259 118.437 158.347C117.818 155.268 113.274 153.424 110.759 152.39C106.832 150.773 102.733 149.908 98.6023 148.994C98.0841 151.754 98.1586 154.716 98.064 157.513C98.0126 159.031 97.9675 160.552 97.9683 162.072C97.9683 162.438 97.8428 163.197 97.9921 163.537C98.343 164.337 98.7513 164.036 99.8196 164.036ZM93.8515 165.359H82.2684C83.9827 168.907 85.603 172.522 87.4509 176.003C89.2914 179.471 91.6612 182.738 93.7494 186.067C94.2784 185.492 95.1221 184.867 95.4815 184.182C95.8797 183.425 95.8685 182.31 95.9337 181.433C96.1028 179.156 96.1799 176.859 96.2373 174.577C96.2876 172.579 96.3755 170.594 96.529 168.6C96.5625 168.163 97.0449 165.892 96.7688 165.519C96.5226 165.186 94.3581 165.362 93.8515 165.359ZM141.555 95.6884C143.509 95.688 145.465 95.6634 147.419 95.6962C149.192 95.7264 151.502 95.4175 153.126 96.3305C156.435 98.19 149.821 102.966 148.479 104.168C150.648 104.954 154.033 103.394 156.156 102.679C158.781 101.795 161.459 101.202 164.136 100.51C164.805 100.337 167.677 99.9985 168.04 99.4859C168.4 98.9775 167.594 95.91 167.513 95.263C167.437 94.6547 167.501 93.7063 167.248 93.1342C167.403 92.4469 167.162 92.2059 166.524 92.4123C166.303 92.4115 166.083 92.4104 165.863 92.4097C164.234 92.4227 162.603 92.4983 160.975 92.5523C155.378 92.7386 149.918 92.987 144.369 93.8605C141.79 94.2666 139.188 94.7661 136.622 95.2645C134.461 95.6839 134.825 96.0359 136.842 96.0411C138.42 96.0452 139.985 95.8109 141.555 95.6884ZM302.091 54.5353C302.424 54.1535 302.757 53.7713 303.089 53.3892C302.279 53.1578 301.469 52.9262 300.658 52.6948C299.797 52.449 299.333 52.5052 299.716 51.5427C300.196 50.337 302.388 50.1988 303.441 50.1533C307.068 49.9965 310.878 51.1505 314.324 52.167C316.005 52.6632 317.323 53.4309 318.745 54.4519C319.366 54.8978 320.083 55.3164 320.627 55.8521C321.191 56.4086 321.426 57.1215 321.978 57.6795C322.884 58.5944 324.043 59.0499 324.487 60.3704C324.996 61.8861 324.388 63.6212 323.634 64.9428C322.869 66.2841 321.732 67.2984 320.809 68.5172C320.077 69.4842 318.547 72.1263 320.937 71.8201C322.202 71.6581 323.841 69.5021 324.751 68.6431C326.055 67.4113 327.338 66.1511 328.719 65.0039C329.944 63.9866 331.355 62.9436 332.993 62.7648C334.719 62.5763 335.582 63.6811 336.423 65.0247C337.216 66.292 337.344 67.529 337.902 68.826C338.171 69.4514 338.514 69.8001 338.672 70.4818C338.915 71.5303 338.941 72.6742 339.065 73.7433C339.26 75.4221 339.444 76.7422 339.118 78.3872C338.814 79.9267 338.731 81.5619 338.474 83.1283C338.183 84.9021 337.942 86.6841 337.655 88.4586C337.413 89.962 336.49 92.1031 337.395 93.5011C339.57 96.8606 342.179 91.915 342.866 90.0674C344.073 86.8208 344.688 83.2717 345.754 79.9584C346.324 78.1864 346.822 76.3977 347.149 74.5632C347.42 73.046 347.287 71.1977 348.118 69.8463C348.764 68.7966 349.914 67.9995 351.176 68.3198C352.754 68.721 353.361 71.0029 353.825 72.39C355.051 76.0487 354.6 79.3437 354.101 83.075C353.87 84.8026 353.649 86.5329 353.253 88.2318C352.985 89.378 351.876 91.6978 353.525 92.321C355.862 93.2053 358.339 86.4997 359.005 84.9855C360.749 81.0196 361.417 77.0864 362.136 72.837C362.301 71.86 362.427 70.8621 362.674 69.9018C362.889 69.0659 363.532 68.2211 363.589 67.3852C363.647 66.5486 363.093 65.9649 363.661 65.1436C364.133 64.46 364.987 64.4187 365.758 64.4127C367.569 64.3986 369.301 65.1938 370.986 65.7708C372.553 66.3076 374.873 67.4854 376.564 67.1062C371.26 61.7211 365.969 56.397 359.643 52.2032C356.706 50.2554 353.766 48.3836 350.591 46.7953C347.375 45.1865 343.689 44.0999 340.245 43.1266C338.372 42.5969 336.509 41.9968 334.659 41.3893C333.012 40.8484 331.354 40.746 329.742 40.1325C326.239 38.8001 322.324 38.2838 318.697 37.3392C317.095 36.9224 315.476 36.5648 313.87 36.1785C312.183 35.7725 309.812 35.0674 308.093 35.1359C306.625 35.1944 306.13 36.8769 305.423 38.0473C304.398 39.7462 303.524 41.5115 302.717 43.3237C301.066 47.0367 299.322 50.8726 298.14 54.7517C297.492 56.8817 296.851 59.0138 296.214 61.1471C295.663 62.9939 294.283 65.658 294.65 67.5532C297.366 63.3668 299.896 59.019 302.091 54.5353ZM175.618 92.3374C174.177 92.403 172.735 92.4682 171.294 92.5337C172.731 97.2569 172.531 102.286 172.531 107.182C179.246 106.39 186.016 106.256 192.771 106.31C191.53 103.916 192.012 100.81 192.365 98.2459C192.572 96.7451 192.688 95.2995 192.657 93.7853C192.629 92.365 193.039 91.1708 191.534 90.7316C190.34 90.3833 189.585 90.9637 188.448 91.2285C187.086 91.5455 185.602 91.5839 184.215 91.7563C181.329 92.115 178.546 92.3255 175.618 92.3374ZM136.92 101.536C141.248 100.335 145.847 100.778 150.197 99.8651C149.207 98.9622 147.343 99.4971 146.03 99.5723C144.536 99.6573 143.043 99.7195 141.55 99.7921C140.093 99.8633 136.052 99.753 135.526 101.607C135.99 101.583 136.455 101.559 136.92 101.536ZM295.282 34.6062C289.618 35.1031 283.687 35.026 278.065 36.0142C271.625 37.1459 264.913 37.8558 258.67 39.8502C252.545 41.8069 246.299 43.1765 240.262 45.4741C234.393 47.7075 228.74 50.0837 223.213 53.0711C220.508 54.5331 217.876 56.083 215.297 57.7622C212.779 59.4016 210.021 60.7455 207.581 62.4832C205.409 64.0302 203.536 65.449 201.642 67.3442C199.618 69.3706 197.649 71.4517 195.623 73.4747C193.932 75.1625 195.002 79.289 195.11 81.5351C195.258 84.6492 195.515 87.7192 195.897 90.8128C196.26 93.7607 196.634 96.9291 196.154 99.8707C195.952 101.107 195.256 103.244 195.589 104.478C195.854 105.467 197.618 106.192 198.517 106.514C199.618 106.908 200.741 106.742 201.87 107.243C203.131 107.804 204.194 108.502 205.533 108.797C207.184 109.16 209.04 109.466 210.736 109.477C212.305 109.487 213.878 109.995 215.443 110.308C217.987 110.818 220.47 110.976 220.312 114.044C220.129 117.585 218.724 120.622 217.888 123.983C219.019 123.983 219.807 124.055 220.843 123.654C222.052 123.186 223.342 123.062 224.613 122.86C227.42 122.413 230.156 122.27 232.982 121.985C238.158 121.463 243.424 121.526 248.604 121.581C251.227 121.608 254.072 121.811 256.659 122.219C259.312 122.638 262.061 122.9 264.632 123.704C266.802 124.382 269.042 124.843 271.255 125.442C272.253 125.712 273.447 125.931 274.39 126.233C275.755 126.67 276.485 127.604 278.062 127.582C277.618 124.662 276.576 121.953 275.947 119.057C275.291 116.032 273.981 113.356 272.536 110.503C271.891 109.23 271.414 107.879 270.792 106.596C270.101 105.168 269.129 103.985 268.294 102.65C266.586 99.9195 264.763 97.2927 263.085 94.5426C261.621 92.1415 259.948 89.8398 258.344 87.5222C256.581 84.974 254.132 83.0508 252.131 80.713C251.287 79.7255 250.483 78.8081 249.537 77.9018C248.666 77.0674 247.43 75.2206 246.096 75.1342C245.329 75.0843 244.001 75.5156 243.269 75.7469C241.916 76.1757 240.48 76.4551 239.082 76.8324C237.552 77.2455 236.048 77.783 234.516 78.1756C233.903 78.3324 233.175 78.2579 232.593 78.4356C231.985 78.6218 231.5 79.032 230.835 79.2201C227.555 80.1506 224.294 81.2069 220.99 82.054C217.588 82.9264 214.134 83.6691 210.837 84.9047C210.208 85.1405 209.509 85.6977 209.026 85.3316C208.665 85.0582 208.433 84.286 208.528 83.8353C208.844 82.3349 211.244 81.7929 212.4 81.1906C215.496 79.5762 218.573 78.4378 221.9 77.3416C223.54 76.8022 225.173 76.2263 226.835 75.7604C228.225 75.3711 229.671 74.7125 231.091 74.5132C232.355 74.3359 233.252 73.8383 234.506 73.3976C236.354 72.7484 238.254 72.2153 240.132 71.6607C243.341 70.7123 246.742 70.3138 250.026 69.6779C257.633 68.2047 265.531 67.4672 273.293 67.5584C277.207 67.6046 281.3 67.4903 285.168 68.1339C286.101 68.2889 288.061 68.2591 288.704 69.0961C289.049 69.5453 288.862 70.2139 288.951 70.7008C289.101 71.5225 289.549 71.9054 289.937 72.6541C290.763 68.6029 291.712 64.6377 292.778 60.6457C293.742 57.0329 294.634 53.3545 295.922 49.7924C297.285 46.0235 298.938 42.0274 300.975 38.5781C301.394 37.8681 302.44 36.7402 302.53 35.9461C302.623 35.1266 301.474 34.4918 300.685 34.4006C298.915 34.1961 297.02 34.5462 295.282 34.6062ZM333.327 92.4935C333.903 86.8737 335.588 80.9954 334.647 75.3532C334.248 72.9648 333.937 70.6848 332.743 68.5288C332.139 67.4385 331.896 66.6376 330.743 67.2805C329.576 67.9313 328.501 69.5386 327.533 70.4702C325.755 72.1826 323.892 73.9459 321.762 75.2176C320.084 76.2189 316.752 77.168 315.491 75.002C314.289 72.9376 315.892 70.0567 317.043 68.3537C318.359 66.4052 320.854 64.6005 319.454 62.1964C318.851 61.1616 317.985 60.8904 317.073 60.2114C316.285 59.6236 315.624 58.8622 314.835 58.264C312.55 56.53 310.043 55.7873 307.404 54.7964C306.185 54.3386 306.025 53.9081 305.321 54.9544C304.557 56.0909 304.138 57.6836 303.585 58.9404C302.478 61.4581 301.297 63.8436 299.87 66.191C298.429 68.5601 297.153 71.0349 295.791 73.4509C295.278 74.3624 294.795 75.2888 294.188 76.1444C293.857 76.61 293.447 77.025 293.179 77.5345C292.781 78.2881 292.958 78.975 292.711 79.7252C291.643 82.9621 290.086 78.4434 289.789 77.387C289.451 76.1854 288.634 75.2485 288.105 74.1277C287.669 73.2021 287.371 71.8265 286.316 71.3906C285.451 71.0338 284.338 71.5236 283.456 71.5713C281.836 71.6592 280.203 71.5281 278.576 71.6294C277.054 71.724 275.536 71.87 274.015 71.9632C272.492 72.0567 270.971 71.7993 269.469 71.9594C266.772 72.247 264.015 72.2008 261.325 72.5994C258.167 73.0665 255.043 73.5649 251.876 73.9538C252.612 75.345 254.137 75.9485 255.343 76.9412C256.42 77.8284 257.274 78.8524 258.359 79.6965C259.461 80.5532 260.115 81.8204 261.027 82.85C261.92 83.8584 262.747 84.7039 263.529 85.8322C267.306 91.2803 271.202 96.5272 274.317 102.416C275.894 105.396 277.399 108.584 278.477 111.782C279.632 115.211 280.199 118.889 280.885 122.436C281.227 124.203 281.407 125.695 281.032 127.472C280.933 127.896 280.831 128.318 280.725 128.739C280.396 129.244 280.518 129.571 281.09 129.721C281.424 130.208 281.881 130.391 281.91 131.058C281.933 131.565 281.651 132.152 281.214 132.437C280.372 132.989 280.372 132.244 279.504 132.409C279.178 132.585 278.853 132.761 278.528 132.937C278.356 132.675 278.179 132.417 277.997 132.162C277.444 131.636 277.004 131.684 276.28 131.556C276.648 135.79 276.062 139.57 275.13 143.7C274.681 145.687 273.913 147.631 273.525 149.62C273.093 151.843 274.038 152.855 275.501 154.338C275.13 154.531 274.479 154.742 274.173 155.031C273.686 155.493 273.81 155.549 273.811 156.272C273.811 157.594 273.558 158.897 273.35 160.198C272.965 162.606 272.614 165.098 271.785 167.404C270.279 171.592 267.845 175.941 265.365 179.63C263.977 181.694 262.586 184.039 260.846 185.82C259.1 187.608 257.37 189.411 255.628 191.204C252.2 194.733 248.454 197.171 244.347 199.813C242.721 200.86 241.007 202.006 239.609 203.309C238.187 204.633 236.297 205.56 234.598 206.522C233.84 206.951 233.301 207.567 232.482 207.919C231.713 208.25 231.176 208.358 230.531 208.791C228.932 209.867 227.204 210.787 225.442 211.598C223.294 212.587 221.179 213.738 218.973 214.583C217.967 214.968 217.022 215.387 216.048 215.837C214.994 216.324 213.857 216.644 212.776 217.162C211.863 217.601 210.938 217.856 210.008 218.214C209.249 218.507 208.653 218.981 207.879 219.287C206.271 219.922 204.807 220.264 203.245 221.013C201.169 222.007 198.709 222.472 196.522 223.188C194.081 223.987 191.549 224.783 189.043 225.35C187.977 225.591 187.069 225.907 186.039 226.272C185.369 226.51 184.599 226.641 183.856 226.867C181.803 227.493 179.75 228.096 177.686 228.628C173.653 229.669 169.532 230.918 165.62 232.33C163.57 233.07 161.489 233.961 159.522 234.904C157.297 235.97 154.901 236.585 152.669 237.639C148.356 239.677 144.058 241.774 139.796 243.913C137.558 245.036 135.351 246.193 133.165 247.415C132.372 247.858 131.505 248.041 130.717 248.476C129.687 249.045 128.841 249.88 127.786 250.443C123.718 252.616 119.567 254.662 115.831 257.411C113.876 258.849 111.775 260.322 110.085 262.074C109.527 262.652 108.561 263.546 108.46 264.385C108.312 265.625 108.451 264.484 108.88 265.249C109.475 265.321 109.61 265.55 109.285 265.934C109.136 266.115 108.944 266.207 108.71 266.21C107.959 266.362 106.553 265.566 105.95 265.233C104.903 264.657 104.348 263.928 103.676 262.96C102.217 260.86 100.793 258.74 99.2895 256.67C97.9377 254.808 96.6146 252.757 95.0766 251.047C94.0336 249.888 93.9554 250.394 92.7955 251.048C91.9324 251.534 90.93 251.742 90.0357 252.199C86.6277 253.945 82.8816 255.235 79.3861 256.451C78.5901 256.728 78.1658 257.168 77.4663 257.55C76.5753 258.038 75.4466 258.276 74.4938 258.623C71.8688 259.577 69.2569 260.568 66.6506 261.572C64.6383 262.348 62.7047 262.959 61.1295 264.391C60.5026 264.961 59.7438 265.369 59.0964 265.945C58.3425 266.615 57.323 267.706 56.3738 268.085L55.7957 268.537C55.4046 268.265 55.0131 267.993 54.6209 267.722C54.232 267.453 53.8428 267.185 53.4546 266.915C52.4798 266.237 51.5121 265.55 50.5432 264.864C48.3459 263.306 46.1344 261.764 44.0905 260.006C40.4598 256.884 36.6923 253.93 32.8959 251.006C28.9113 247.937 25.0266 244.725 20.9053 241.84C17.17 239.226 13.0945 237.018 9.47277 234.258C7.64979 232.869 5.83127 231.471 3.96993 230.126C3.86861 230.053 2.35406 229.124 2.33991 229.02C2.31309 228.83 2.81149 228.335 2.95862 228.175C3.65518 227.418 4.42698 226.744 5.12093 225.978C8.35529 222.412 12.5782 222.536 17.0418 222.368C19.066 222.291 21.2611 223.225 23.1835 223.86C25.5343 224.637 27.802 225.778 30.0727 226.763C34.7524 228.792 39.5822 230.527 44.3092 232.407C46.1679 233.146 48.0196 233.506 49.9092 234.014C51.8265 234.53 53.8014 234.039 55.852 234.075C56.9162 234.094 57.9223 234.157 58.994 234.096C59.6302 234.061 60.3632 233.94 60.9916 233.951C61.5008 233.96 62.0294 234.17 62.498 234.116C64.5493 233.884 66.7161 233.558 68.8319 233.291C70.9324 233.027 73.0999 232.895 75.1728 232.48C76.2165 232.272 77.2465 231.977 78.2507 231.623C79.1224 231.316 80.707 230.967 81.4221 230.344C82.0621 229.787 81.7823 229.78 81.4255 228.871C81.2843 228.512 81.1383 227.968 80.929 227.622C80.3631 226.687 79.8163 226.393 80.1456 225.223C80.7256 223.161 82.7024 221.844 84.3946 220.828C88.2067 218.541 91.6933 215.608 95.7072 213.667C103.978 209.67 111.516 204.477 119.582 200.087C128.448 195.261 136.835 189.598 145.824 184.976C154.192 180.675 162.521 176.347 170.958 172.181C175.078 170.147 179.738 168.285 183.476 165.619C181.404 165.362 179.327 165.03 177.249 164.846C176.285 164.76 175.31 164.839 174.351 164.686C173.279 164.515 172.266 164.081 171.196 163.901C169.356 163.59 167.702 162.96 165.861 162.727C163.887 162.478 161.953 161.898 159.969 161.735C155.82 161.395 152.075 159.865 148.438 157.936C147.538 157.459 146.798 157.732 145.935 157.407C145.46 157.229 144.955 156.515 144.422 156.132C142.951 155.076 141.689 153.83 140.292 152.676C137.355 159.269 131.587 163.753 126.082 168.175C123.294 170.414 120.268 172.313 117.451 174.51C115.268 176.214 113.284 177.739 110.953 179.094C108.715 180.394 106.612 182.15 104.478 183.711C103.032 184.77 101.337 185.569 99.7987 186.488C98.5419 187.239 96.0883 188.359 95.7456 189.722C95.4651 190.835 96.0123 192.159 94.3137 191.647C92.7929 191.19 91.6903 189.501 90.8045 188.312C88.5137 185.234 86.3767 182.052 84.2497 178.862C83.1073 181.091 81.1368 182.697 79.3153 184.35C78.2086 185.355 77.0599 186.287 75.8645 187.183C75.2849 187.619 74.6986 188.045 74.1179 188.479C73.8892 188.65 73.3707 188.914 73.2225 189.155C72.876 189.72 73.0865 189.464 73.1405 190.147C73.2247 191.216 73.5815 192.058 72.9762 193.082C72.4078 194.044 71.1685 194.455 70.2999 195.112C68.2333 196.676 66.0602 198.339 63.7675 199.56C63.2471 199.837 62.755 200.078 62.2704 200.417C61.4614 200.983 61.6092 201.188 60.7938 200.646C59.5188 199.797 58.4173 198.388 57.2667 197.364C54.8559 195.219 52.4183 193.102 49.9495 191.024C45.2445 187.065 40.4006 183.302 35.754 179.272C31.3385 175.442 26.6048 172.145 22.0463 168.504C20.7958 167.505 19.5606 166.486 18.3266 165.467C17.2277 164.56 15.4446 163.56 14.6318 162.399C13.4514 160.713 18.0688 158.409 19.4619 158.066C21.8641 157.475 24.9703 157.813 27.3763 158.298C29.9018 158.807 32.4735 160.507 34.8317 161.567C37.4899 162.761 40.1972 163.793 42.8751 164.92C44.0693 165.422 45.3354 165.824 46.4439 166.501C47.6203 167.219 48.6703 168.038 49.9211 168.641C51.3627 169.335 52.8605 169.982 54.3765 170.495C55.0634 170.728 55.8028 170.961 56.5247 171.055C57.5468 171.188 57.4083 170.717 58.2572 170.454C58.9787 170.231 59.15 170.821 59.7989 170.986C60.4098 171.141 60.8665 170.984 61.3954 170.655C62.5747 169.923 63.6244 168.914 64.8041 168.152C65.8985 167.444 67.105 166.783 68.1308 165.983C68.5883 165.626 68.9265 165.137 69.3772 164.774C70.0995 164.193 70.3859 164.424 71.2292 164.024C71.9187 163.696 72.5441 163.087 73.2001 162.683C73.6072 162.432 74.5947 162.116 74.8573 161.71C75.5472 160.645 74.3697 159.905 73.3152 160.219C73.1573 159.3 72.3463 157.116 72.6965 156.254C73.0064 155.491 73.8199 155.634 74.5042 155.23C77.0759 153.712 78.9737 150.953 81.3797 149.169C83.6478 147.487 85.6488 145.48 87.8957 143.767C89.8204 142.3 91.9238 140.867 93.6764 139.285C95.7486 137.414 98.4015 135.959 100.654 134.289C102.982 132.564 105.144 130.645 107.447 128.901C109.662 127.223 111.838 125.47 114.114 123.872C116.16 122.436 118.304 121.125 120.307 119.669C121.405 118.872 122.605 118.172 123.857 117.648C125.103 117.128 126.192 116.517 127.409 115.956C129.826 114.842 132.973 114.072 135.602 113.753C138.491 113.402 141.393 113.088 144.311 113.085C145.865 113.084 147.374 113.38 148.919 113.473C150.338 113.559 151.872 113.918 153.282 113.871C153.92 113.85 154.474 113.58 155.092 113.667C155.608 113.739 156.057 114.051 156.611 114.105C157.843 114.227 159.082 114.106 160.329 114.265C163.192 114.631 166.059 115.152 168.929 115.443C171.986 115.752 175.016 115.811 178.057 116.332C181.029 116.841 184.019 117.369 186.974 117.958C193.253 119.21 199.598 120.432 205.777 122.29C207.222 122.725 208.675 123.138 210.064 123.733C210.738 124.022 211.385 124.372 212.088 124.588C213.094 124.897 213.292 125.015 213.811 124.17C214.703 122.717 215.195 120.794 215.843 119.213C216.483 117.648 217.261 116.071 217.632 114.437C216.553 114.266 215.19 114.598 214.076 114.636C212.714 114.683 211.367 114.654 210.006 114.646C207.263 114.629 205.119 113.819 202.524 112.969C200.336 112.252 197.424 111.84 195.756 110.198C194.861 109.318 194.564 109.163 193.219 109.321C191.862 109.48 190.522 109.754 189.153 109.8C183.991 109.971 178.852 110.872 173.667 111.05C172.264 111.098 168.755 111.763 168.985 109.384C169.033 108.89 169.411 108.462 169.485 107.953C169.564 107.408 169.428 106.855 169.342 106.322C169.139 105.062 168.927 103.803 168.725 102.542C163.997 104.06 159.209 105.289 154.39 106.491C152.392 106.99 149.182 108.136 147.117 107.508C145.121 106.9 146.277 104.088 146.899 102.742C142.933 103.647 138.703 105.127 134.659 105.467C133.428 105.57 132.231 105.843 131.944 104.355C131.717 103.17 132.573 101.721 133.009 100.679C129.905 100.402 126.692 100.429 127.276 96.4505C127.811 92.8004 130.843 92.0737 134.071 91.4069C138.056 90.5833 142.125 90.3088 146.136 89.6424C149.626 89.0625 153.433 88.4158 156.997 88.7086C158.883 88.8632 160.781 88.8986 162.667 89.0733C163.557 89.1556 164.412 89.2934 165.274 89.5363C166.068 89.7598 167.179 90.453 167.994 90.4653C169.223 90.4846 170.705 88.8226 172.027 88.4385C173.664 87.9625 175.429 87.8761 177.12 87.7595C179.038 87.628 180.959 87.5546 182.875 87.3993C183.312 87.3639 184.963 87.4719 185.308 87.216C185.81 86.8431 185.476 84.9308 185.441 84.1452C185.408 83.4184 185.548 82.0573 185.044 81.7724C184.571 81.5049 183.192 81.8718 182.727 81.9463C180.797 82.2555 178.963 82.2201 177.04 82.1415C176.152 82.1054 175.299 82.3419 174.42 82.2253C173.476 82.1006 172.526 81.7832 171.587 81.6066C169.551 81.2241 167.696 80.748 165.942 79.6075C164.402 78.6066 162.58 77.929 161.72 76.1761C161.089 74.8924 160.833 72.4154 162.686 72.0503C161.424 70.2299 160.553 68.185 159.884 66.0815C159.763 65.7001 159.683 65.1257 159.501 64.793C158.86 63.6167 159.455 64.6601 158.541 64.1896C157.638 63.7251 156.986 63.3575 156.281 62.5495C155.155 61.2611 154.681 59.6754 154.539 57.9965C154.346 55.7165 153.986 53.1456 154.319 50.8771C154.895 46.9476 157.767 43.9953 160.685 41.6188C162.269 40.3284 164.355 39.8479 166.213 39.0649C168.006 38.3088 170.01 37.5161 171.9 37.3388C173.605 37.1786 175.268 36.6218 176.976 36.3972C179.322 36.088 181.672 36.2035 184.03 36.1096C185.115 36.0664 186.198 35.9133 187.279 35.7967C187.889 35.7308 188.921 35.8012 189.479 35.5594C190.394 35.1631 189.9 35.9952 190.227 34.7831C190.848 32.4774 191.355 30.3151 192.297 28.0746C193.173 25.9871 194.238 23.9913 195.646 22.2067C196.966 20.5327 198.678 19.3083 200.233 17.8783C201.386 16.819 202.693 15.862 204.007 15.0053C204.759 14.5155 205.596 14.2506 206.331 13.8182C207.242 13.2818 208.047 12.875 209.073 12.5465C211.274 11.8417 213.459 11.0934 215.797 11.1302C218.318 11.1697 220.845 10.583 223.299 11.3269C227.855 12.7085 230.088 17.647 230.012 22.1821C231.57 21.7932 232.933 21.0445 234.583 20.9804C236.104 20.9216 237.911 21.0535 239.404 21.3358C242.303 21.8837 245.284 23.4951 247.013 25.9372C248.661 28.2664 248.908 31.3588 247.895 34.0013C247.41 35.2663 246.641 36.3916 245.821 37.4602C245.221 38.244 243.88 39.1115 243.817 40.1616C255.037 36.77 266.303 34.3794 277.909 32.832C283.793 32.0479 289.686 32.4405 295.575 31.9924C298.091 31.801 300.825 32.0688 303.426 32.0788C304.524 32.0833 305.379 31.9306 306.175 31.2199C306.981 30.501 307.625 29.6204 308.564 30.6582C308.804 30.923 308.854 31.5637 309.177 31.763C309.568 32.0043 310.705 31.8386 311.173 31.8673C312.809 31.9671 314.405 32.2446 316.011 32.5642C318.957 33.1509 321.885 33.7439 324.796 34.4885C330.339 35.9066 335.81 37.2781 341.273 38.9614C346.848 40.679 352.481 42.7981 357.621 45.5784C360.111 46.9249 362.598 48.606 364.887 50.2718C365.951 51.0466 366.905 51.8847 367.83 52.8189C368.82 53.8175 370.03 54.4914 371.01 55.4975C373.141 57.6859 375.264 60.0072 377.198 62.3782C378.207 63.616 379.135 64.9215 380.032 66.2409C380.665 67.1666 382.327 68.8614 381.943 70.0571C381.742 70.6956 381.027 71.1422 380.375 70.9857C380.155 70.9336 379.976 70.6505 379.79 70.6237C379.157 70.5343 379.731 70.3123 378.997 70.6106C377.533 71.204 377.067 72.3941 375.208 72.1233C372.051 71.6626 369.08 70.1711 366.208 68.8707C365.388 72.0071 365.271 75.2586 364.553 78.4326C363.853 81.5292 362.685 84.4823 361.275 87.3225C360.039 89.8145 358.451 92.4704 356.262 94.2513C354.591 95.6101 350.469 97.2983 349.242 94.4051C348.721 93.1763 349.496 91.2669 349.715 90.0023C350.01 88.3052 350.335 86.6032 350.512 84.889C350.656 83.4963 350.729 82.0953 350.863 80.7011C350.979 79.5017 351.299 76.9266 350.624 75.8673C350.218 75.2288 350.183 75.8553 349.946 76.4927C349.659 77.2656 349.421 78.0322 349.211 78.8282C348.765 80.5197 348.363 82.2227 347.94 83.9202C347.187 86.953 346.356 89.9196 344.785 92.6466C343.39 95.0682 341.426 97.7248 338.442 98.1215C337.044 98.307 335.223 97.6682 334.156 96.7269C332.96 95.6709 333.317 93.9291 333.327 92.4935Z" fill="black"/>
<path fill-rule="evenodd" clip-rule="evenodd" d="M265.18 216.34C266.82 216.016 268.201 214.707 269.54 213.724C271.248 212.47 272.869 211.103 274.528 209.786C277.653 207.303 280.49 204.58 283.186 201.619C288.507 195.776 292.513 188.256 294.334 180.573C295.256 176.685 296.395 172.13 295.872 168.112C295.69 166.716 295.413 166.461 294.045 166.302C293.427 166.23 291.858 166.053 291.301 166.296C289.859 166.926 289.081 169.607 288.653 170.955C287.39 174.934 286.646 179.055 285.504 183.067C284.385 186.999 282.582 190.988 280.798 194.665C276.83 202.847 271.314 209.691 265.18 216.34ZM297.715 171.17C296.734 182.311 293.641 192.926 286.705 201.898C283.409 206.162 279.532 209.873 275.33 213.243C270.991 216.723 266.56 220.001 261.637 222.596C260.326 223.287 259.015 223.976 257.688 224.635C256.953 225 255.097 226.345 254.249 226.133C253.569 225.962 253.392 225.436 253.286 224.752C253.048 223.217 254.045 222.451 255.053 221.465C259.104 217.505 263.168 213.531 266.955 209.318C274.435 200.998 280.054 191.035 283.178 180.284C284.14 176.975 284.999 173.628 286.037 170.341C286.67 168.339 287.567 164.775 289.669 163.777C290.796 163.241 292.11 163.762 293.295 163.441C294.407 163.14 295.144 162.527 296.091 163.556C297.754 165.363 297.828 168.906 297.715 171.17Z" fill="black"/>
<path fill-rule="evenodd" clip-rule="evenodd" d="M1.382 235.452C0.551714 235.746 0.517072 236.038 0.136759 235.184C-0.0547025 234.753 -0.00292609 234.164 0.0421457 233.716C0.150169 232.645 0.714121 231.655 1.1775 230.705C5.53864 234.303 10.067 237.545 14.7433 240.724C19.7444 244.123 24.5194 247.902 29.2493 251.667C33.4849 255.039 37.7715 258.312 41.9628 261.726C43.9843 263.373 46.289 264.649 48.2107 266.346C49.7636 267.718 52.339 268.332 53.6628 269.945C51.565 271.199 48.7642 272.209 46.4394 271.124C43.8748 269.927 41.9077 268.368 39.6254 266.746C38.4495 265.911 37.2266 265.153 36.032 264.344C34.982 263.633 34.2403 262.595 33.1772 261.929C30.943 260.527 28.6511 258.983 26.5312 257.382C24.3536 255.738 21.9466 254.43 19.8457 252.683C17.692 250.892 15.2812 249.705 13.0325 248.074C8.26678 244.619 4.07027 240.732 1.382 235.452Z" fill="black"/>
<path fill-rule="evenodd" clip-rule="evenodd" d="M129.96 51.9528C129.901 52.2709 129.842 52.589 129.783 52.9075C129.819 52.9157 132.67 47.4065 133.143 46.7413C134.745 44.4858 136.83 42.6092 138.841 40.7255C143.099 36.7354 148.083 33.5148 152.256 29.4535C153.629 28.1174 156.089 26.0929 155.546 23.8337C155.006 21.5883 150.45 22.0446 148.89 22.6942C146.443 23.713 144.457 25.8437 142.634 27.7002C140.645 29.7254 138.641 31.7279 136.956 34.0199C135.139 36.4914 133.414 39.1681 132.3 42.0363C131.053 45.2494 130.566 48.5747 129.96 51.9528ZM130.897 61.8105C128.962 62.4072 131.388 62.8103 130.63 63.8443C129.798 64.9782 128.401 61.4845 128.192 60.8249C126.96 56.9275 127.511 52.1927 128.183 48.2357C128.523 46.2395 128.743 44.2106 129.201 42.236C129.648 40.3106 130.621 38.4809 131.52 36.7294C133.32 33.225 135.704 29.9601 138.41 27.1027C141.123 24.236 144.148 21.3678 147.729 19.6029C150.688 18.1454 155.377 19.1567 156.762 22.3404C158.177 25.5937 156.263 29.1376 154 31.4251C151.048 34.4084 147.831 37.3716 144.515 39.944C142.81 41.2664 141.382 42.8655 139.726 44.2452C137.964 45.7139 136.439 47.1912 135.136 49.0906C133.874 50.9311 132.575 52.7701 131.755 54.8594C130.857 57.1472 130.897 59.39 130.897 61.8105Z" fill="black"/>
<path fill-rule="evenodd" clip-rule="evenodd" d="M53.4941 202.107C49.0472 199.244 44.5855 196.73 40.7131 193.078C36.8897 189.473 33.5491 185.407 29.2938 182.279C27.1706 180.718 24.9792 179.253 22.8936 177.642C20.9142 176.112 18.639 174.801 16.8499 173.057C14.4652 170.73 10.0005 166.407 13.0471 162.939C16.8287 167.436 22.0171 170.981 26.7474 174.395C31.7351 177.996 36.313 182.195 41.0442 186.118C45.6017 189.896 50.1439 193.709 54.591 197.588C55.7588 198.606 56.8852 199.676 58.0668 200.679C58.2113 200.801 59.4361 201.577 59.4361 201.784C59.4364 202.279 58.487 202.588 58.1487 202.726C57.6149 202.944 56.1712 203.484 55.5659 203.302C55.2485 203.205 55.2429 202.947 55.0142 202.793C54.8827 202.545 54.7292 202.312 54.5549 202.092C54.201 202.098 53.8475 202.103 53.4941 202.107Z" fill="black"/>
<path fill-rule="evenodd" clip-rule="evenodd" d="M315.275 152.183C312.106 152.102 307.28 152.092 307.458 156.421C307.546 158.564 308.708 160.139 309.663 161.972C310.665 163.899 311.408 165.889 311.703 168.048C312.893 176.79 309.7 185.33 306.812 193.41C313.014 188.404 317.493 181.439 319.845 173.804C320.985 170.101 321.429 165.342 321.061 161.487C320.876 159.558 320.165 157.828 319.308 156.11C318.878 155.246 318.448 154.26 317.762 153.561C317.074 152.861 316.121 152.628 315.275 152.183ZM304.218 198.417C302.17 195.049 305.394 190.091 306.448 186.807C307.709 182.881 308.872 178.793 309.41 174.698C309.975 170.409 309.246 167.074 307.258 163.285C305.48 159.898 304.425 155.387 306.401 151.804C307.197 150.361 308.372 150.184 309.77 149.609C311.485 148.903 311.957 147.708 314.062 147.898C317.817 148.235 319.554 151.796 320.951 154.831C324.208 161.904 323.322 171.033 320.545 178.136C318.946 182.223 317.123 186.467 314.408 189.947C313.077 191.653 311.513 193.133 309.89 194.556C308.133 196.096 306.56 197.951 304.218 198.417Z" fill="black"/>
<path fill-rule="evenodd" clip-rule="evenodd" d="M89.782 75.6061C84.8316 76.6011 80.314 78.8323 79.5209 84.3959C78.8002 89.4521 82.2442 94.1298 86.4735 96.4967C91.0477 99.0572 96.7793 99.4826 101.337 96.6449C106.135 93.6575 107.224 87.6708 104.303 82.9741C101.045 77.7327 95.5858 76.1857 89.782 75.6061ZM92.9635 73.1805C98.8585 74.0443 104.331 78.2397 106.317 83.89C108.364 89.7147 106.483 96.1186 101.063 99.3101C90.1098 105.761 75.4704 95.0108 78.114 82.6552C78.7853 79.5181 80.6913 77.0887 83.2809 75.2519C86.1398 73.2237 89.5969 73.1685 92.9635 73.1805Z" fill="black"/>
<path fill-rule="evenodd" clip-rule="evenodd" d="M302.559 14.0299C295.455 10.8183 288.352 7.60668 281.249 4.39504C280.958 7.61487 280.666 10.8343 280.375 14.0542C280.296 14.9254 279.973 16.1107 280.111 16.9704C280.258 17.8879 279.944 17.7899 281.14 17.6595C282.669 17.4923 284.204 17.1146 285.718 16.8445C288.439 16.3588 291.333 16.2202 293.997 15.5058C295.356 15.1411 296.658 15.0953 298.038 14.8748C299.553 14.6326 301.028 14.1842 302.559 14.0299ZM278.531 20.2543C278.531 16.6273 278.934 13.0492 279.265 9.43897C279.564 6.19083 279.679 3.09467 280.739 0C281.73 1.79877 284.473 2.51768 286.17 3.44333C288.508 4.71874 290.999 5.6578 293.392 6.8196C295.743 7.96055 298.008 9.27061 300.362 10.4089C301.555 10.9863 302.767 11.5249 303.958 12.1068C304.704 12.4711 306.473 13.0574 306.936 13.7338C308.345 15.787 303.524 15.9855 302.594 16.1666C299.804 16.7108 296.981 17.0173 294.196 17.5768C291.599 18.0991 288.998 18.5837 286.392 19.0571C283.812 19.5257 281.155 20.2543 278.531 20.2543Z" fill="black"/>
<path fill-rule="evenodd" clip-rule="evenodd" d="M59.5118 110.043C62.3084 109.753 65.0936 109.334 67.8873 109.057C70.5327 108.796 72.8727 108.517 75.2895 107.305C71.9888 106.31 68.6807 105.367 65.3521 104.468C63.7012 104.022 62.0537 103.55 60.3953 103.134C59.1125 102.811 57.9942 102.626 57.501 101.225C56.927 99.5954 58.5232 99.8424 59.5181 100.257C60.8904 100.828 62.3852 101.183 63.8074 101.658C66.9817 102.717 70.1755 103.692 73.3797 104.656C74.3757 104.955 80.1471 106.063 78.0675 107.988C77.1776 108.813 75.1919 109.265 74.1038 109.857C72.7081 110.616 71.1887 110.919 69.6361 111.221C66.4003 111.85 63.0423 112.092 59.7666 112.638C58.0937 112.917 56.4212 113.196 54.7487 113.475C53.7687 113.638 53.3913 113.622 53.1354 112.529C52.9492 111.735 53.192 110.941 53.3708 110.172C53.8245 108.217 54.3293 106.273 54.8288 104.33C55.0188 103.589 55.3551 100.33 56.0163 99.9735C57.5163 99.1648 56.359 103.676 56.2476 104.228C55.8267 106.312 55.3268 108.381 55.1018 110.496C56.575 110.363 58.0441 110.225 59.5118 110.043Z" fill="black"/>
<path fill-rule="evenodd" clip-rule="evenodd" d="M99.1665 126.633C99.7216 128.026 98.8 128.338 97.6818 128.821C96.2313 129.447 94.8046 130.108 93.3277 130.672C90.2207 131.857 87.0914 132.958 84.0586 134.33C78.2742 136.946 72.4115 139.458 66.7168 142.26C65.3017 142.956 63.8855 143.649 62.4577 144.32C60.9812 145.013 59.2878 146.181 57.7081 146.577C56.3302 146.923 56.1864 145.941 57.0029 145.038C58.0556 143.872 59.683 143.002 61.005 142.192C66.4456 138.857 72.3836 136.142 78.3259 133.848C85.1943 131.196 92.0814 128.651 99.1665 126.633Z" fill="black"/>
<path fill-rule="evenodd" clip-rule="evenodd" d="M114.269 47.5797C114.07 43.343 114.637 39.0947 114.299 34.8692C108.49 40.0192 111.352 47.9783 114.694 53.5664L114.269 47.5797ZM116.784 47.3376C116.821 49.4072 116.938 51.4756 116.737 53.5348C116.526 55.6964 117.54 56.8097 118.861 58.4018C117.739 59.5409 115.164 56.885 114.453 56.102C112.988 54.4899 111.899 52.348 110.929 50.4122C108.864 46.2883 107.442 41.8731 109.095 37.3455C109.707 35.6674 110.457 33.3859 112.079 32.4088C113.86 31.3361 115.223 32.8491 115.962 34.4054C117.766 38.2026 116.391 43.2618 116.784 47.3376Z" fill="black"/>
<path fill-rule="evenodd" clip-rule="evenodd" d="M178.327 257.937C181.006 258.15 183.645 258.359 186.324 258.529C185.861 254.856 185.399 251.184 184.937 247.512C183.387 247.871 181.837 248.229 180.287 248.588C179.554 248.757 178.43 248.802 177.782 249.168C177.539 249.224 177.296 249.28 177.054 249.336C177.047 249.813 177.042 250.289 177.038 250.766C177.02 252.176 176.979 253.585 176.92 254.994C176.896 255.585 176.69 256.449 176.831 257.034C176.58 257.626 176.74 257.877 177.311 257.788C177.65 257.838 177.988 257.888 178.327 257.937ZM176.483 260.592C174.383 259.547 174.957 256.352 174.961 254.319C174.963 253.025 175.055 251.74 175.089 250.448C175.112 249.56 174.909 248.461 175.214 247.603C175.758 246.077 178.417 246.119 179.785 246.225C180.798 246.304 181.647 246.253 182.686 246.187C183.198 246.154 183.77 246.252 184.273 246.1C184.382 246.067 185.406 245.353 185.36 245.352C187.197 245.422 187.222 249.826 187.341 250.943C187.636 253.698 187.902 256.457 188.142 259.218C188.206 259.948 188.477 260.774 187.783 261.191C187.158 261.567 185.499 261.195 184.807 261.174C182.017 261.09 179.243 260.655 176.483 260.592Z" fill="black"/>
<path fill-rule="evenodd" clip-rule="evenodd" d="M307.557 96.9503C308.771 98.0428 308.188 99.17 307.79 100.535C307.551 101.354 306.238 104.043 306.6 104.81C307.019 105.695 308.987 105.913 309.828 106.193C311.294 106.68 312.766 107.17 314.152 107.857C314.768 108.162 316.988 108.863 317.404 109.432C317.642 109.758 317.729 110.014 317.55 110.434C317.235 111.172 316.786 110.782 316.019 110.623C312.514 109.899 309.039 108.973 305.789 107.446C304.883 109.55 304.115 111.698 303.349 113.856C303.124 114.488 302.909 115.925 302.056 116.028C301.015 116.152 301.001 114.758 301.071 114.006C301.171 112.908 301.74 111.738 302.084 110.698C302.367 109.84 303.361 108.053 303.239 107.169C303.155 106.56 302.784 106.602 302.123 106.363C301.498 106.137 300.873 105.913 300.249 105.685C299.248 105.318 298.251 104.951 297.277 104.517C296.742 104.278 295.624 104 295.237 103.505C295.012 103.218 294.762 102.185 295.045 101.899C295.708 101.228 300.115 103.032 301.022 103.278C301.623 103.442 302.227 103.567 302.81 103.781C303.031 103.862 303.293 104.193 303.532 104.205C304.545 104.257 304.626 103.477 304.94 102.641C305.671 100.698 306.464 98.7152 307.557 96.9503Z" fill="black"/>
<path fill-rule="evenodd" clip-rule="evenodd" d="M54.8649 135.613C54.3244 134.288 60.0612 132.688 61.1262 132.241C63.7254 131.153 66.5102 130.495 69.2014 129.664C71.848 128.847 74.483 127.967 77.086 127.021C77.891 126.729 83.6877 123.906 83.9909 124.319C84.9955 125.684 72.8314 129.974 71.6461 130.401C66.1422 132.383 60.459 133.904 54.8649 135.613Z" fill="black"/>
<path fill-rule="evenodd" clip-rule="evenodd" d="M301.603 31.9984C300.116 32.0133 297.972 32.435 296.607 31.8315C298.273 31.887 299.938 31.9429 301.603 31.9984Z" fill="black"/>
<path fill-rule="evenodd" clip-rule="evenodd" d="M92.9635 73.1804L89.6569 73.1685C90.7602 72.9126 91.8628 72.758 92.9635 73.1804Z" fill="black"/>
<path fill-rule="evenodd" clip-rule="evenodd" d="M265.157 72.2973C265.937 72.2932 266.717 72.2891 267.491 72.2846C266.71 72.2891 265.934 72.2932 265.157 72.2973Z" fill="black"/>
<path fill-rule="evenodd" clip-rule="evenodd" d="M333.327 92.4934C333.321 93.3275 333.316 94.1615 333.309 94.9921C333.314 94.157 333.32 93.3252 333.327 92.4934Z" fill="black"/>
<path fill-rule="evenodd" clip-rule="evenodd" d="M179.785 246.225C178.957 246.285 178.129 246.345 177.302 246.405C178.13 246.345 178.957 246.285 179.785 246.225Z" fill="black"/>
<path fill-rule="evenodd" clip-rule="evenodd" d="M184.451 87.2711C183.61 87.3393 182.769 87.4078 181.929 87.476C182.77 87.4075 183.61 87.3393 184.451 87.2711Z" fill="black"/>
<path fill-rule="evenodd" clip-rule="evenodd" d="M271.475 72.0227C272.07 72.0216 272.665 72.0205 273.256 72.0194C272.659 72.0209 272.067 72.022 271.475 72.0227Z" fill="black"/>
<path fill-rule="evenodd" clip-rule="evenodd" d="M151.734 88.8985C150.995 88.9652 150.254 89.0319 149.515 89.0986C150.255 89.0319 150.995 88.9652 151.734 88.8985Z" fill="black"/>
<path fill-rule="evenodd" clip-rule="evenodd" d="M184.4 36.1073C183.66 36.1118 182.92 36.1163 182.181 36.1207C182.918 35.7296 183.658 35.8306 184.4 36.1073Z" fill="black"/>
<path fill-rule="evenodd" clip-rule="evenodd" d="M49.3821 164.04C48.7668 164.007 48.2654 164.306 47.9182 163.719C48.4863 163.276 48.8141 163.786 49.3821 164.04Z" fill="black"/>
<path fill-rule="evenodd" clip-rule="evenodd" d="M163.508 114.642L161.588 114.426L163.508 114.642Z" fill="black"/>
<path fill-rule="evenodd" clip-rule="evenodd" d="M176.483 260.592C176.907 260.602 177.331 260.611 177.751 260.621C177.325 260.611 176.904 260.602 176.483 260.592Z" fill="black"/>
<path fill-rule="evenodd" clip-rule="evenodd" d="M275.036 33.206C274.376 33.2652 273.714 33.3244 273.053 33.3836C273.715 33.324 274.376 33.2652 275.036 33.206Z" fill="black"/>
<path fill-rule="evenodd" clip-rule="evenodd" d="M65.51 233.771C64.8749 233.774 64.2402 233.777 63.6055 233.779C64.2406 233.777 64.8753 233.774 65.51 233.771Z" fill="black"/>
<path fill-rule="evenodd" clip-rule="evenodd" d="M14.4637 222.514C13.8226 222.515 13.1819 222.517 12.5413 222.518C13.1823 222.517 13.8226 222.515 14.4637 222.514Z" fill="black"/>
<path fill-rule="evenodd" clip-rule="evenodd" d="M176.433 87.8C175.782 87.8641 175.132 87.9278 174.481 87.9919C175.132 87.9278 175.782 87.8641 176.433 87.8Z" fill="black"/>
<path fill-rule="evenodd" clip-rule="evenodd" d="M158.276 88.8561C157.636 88.7823 156.996 88.7086 156.356 88.6348C156.991 88.7588 157.695 88.269 158.276 88.8561Z" fill="black"/>
<path fill-rule="evenodd" clip-rule="evenodd" d="M216.264 114.557C216.662 114.512 217.222 114.372 217.632 114.437C217.579 114.672 216.417 114.556 216.264 114.557Z" fill="black"/>
<path fill-rule="evenodd" clip-rule="evenodd" d="M175.649 164.783C176.079 164.791 176.508 164.799 176.933 164.806C176.502 164.798 176.076 164.791 175.649 164.783Z" fill="black"/>
<path fill-rule="evenodd" clip-rule="evenodd" d="M136.856 113.632C136.229 113.692 135.602 113.753 134.974 113.813C135.602 113.753 136.229 113.692 136.856 113.632Z" fill="black"/>
<path fill-rule="evenodd" clip-rule="evenodd" d="M66.6274 111.494C66.9694 111.503 67.3113 111.513 67.6488 111.522C67.3054 111.513 66.9664 111.503 66.6274 111.494Z" fill="black"/>
<path fill-rule="evenodd" clip-rule="evenodd" d="M159.069 114.104C158.533 114.093 157.996 114.082 157.46 114.072C157.997 114.082 158.533 114.093 159.069 114.104Z" fill="black"/>
<path fill-rule="evenodd" clip-rule="evenodd" d="M59.5117 110.043C58.9693 110.111 58.427 110.177 57.8854 110.244C58.4281 110.177 58.9697 110.11 59.5117 110.043Z" fill="black"/>
<path fill-rule="evenodd" clip-rule="evenodd" d="M133.908 105.436C134.243 105.45 134.578 105.463 134.908 105.477C134.572 105.465 134.24 105.451 133.908 105.436Z" fill="black"/>
<path fill-rule="evenodd" clip-rule="evenodd" d="M159.46 161.768C159.8 161.746 160.14 161.724 160.476 161.701C160.134 161.723 159.797 161.746 159.46 161.768Z" fill="black"/>
<path fill-rule="evenodd" clip-rule="evenodd" d="M185.476 117.657C184.929 117.589 184.382 117.521 183.836 117.453C184.382 117.521 184.929 117.589 185.476 117.657Z" fill="black"/>
<path fill-rule="evenodd" clip-rule="evenodd" d="M53.4941 202.107C53.8491 202.103 54.2041 202.098 54.555 202.092C54.1989 202.097 53.8461 202.102 53.4941 202.107Z" fill="black"/>
<path fill-rule="evenodd" clip-rule="evenodd" d="M24.3478 157.997C23.7824 157.94 23.2169 157.883 22.6511 157.826C23.2166 157.883 23.782 157.94 24.3478 157.997Z" fill="black"/>
<path fill-rule="evenodd" clip-rule="evenodd" d="M12.2825 222.592C11.7268 222.656 11.171 222.72 10.6149 222.784C11.1714 222.72 11.7268 222.656 12.2825 222.592Z" fill="black"/>
<path fill-rule="evenodd" clip-rule="evenodd" d="M315.247 72.2067C315.204 72.6872 315.16 73.1678 315.115 73.6464C315.159 73.1652 315.203 72.6861 315.247 72.2067Z" fill="black"/>
<path fill-rule="evenodd" clip-rule="evenodd" d="M68.8315 233.291C68.2724 233.355 67.7133 233.42 67.1545 233.484C67.7137 233.419 68.2728 233.355 68.8315 233.291Z" fill="black"/>
<path fill-rule="evenodd" clip-rule="evenodd" d="M63.3461 233.846C62.7803 234.241 62.2149 234.263 61.6487 233.847C62.2145 233.846 62.7803 233.846 63.3461 233.846Z" fill="black"/>
<path fill-rule="evenodd" clip-rule="evenodd" d="M52.6183 234.318C52.0696 234.319 51.5213 234.319 50.973 234.319C51.5217 234.319 52.07 234.319 52.6183 234.318Z" fill="black"/>
<path fill-rule="evenodd" clip-rule="evenodd" d="M116.784 47.3376C116.737 46.8508 116.69 46.3643 116.643 45.8793C116.69 46.3669 116.737 46.8523 116.784 47.3376Z" fill="black"/>
<path fill-rule="evenodd" clip-rule="evenodd" d="M176.702 36.4664C176.151 36.5346 175.6 36.6024 175.049 36.6702C175.6 36.6024 176.151 36.5346 176.702 36.4664Z" fill="black"/>
<path fill-rule="evenodd" clip-rule="evenodd" d="M178.656 36.2087C178.096 36.2713 177.535 36.3342 176.975 36.3972C177.535 36.3342 178.096 36.2713 178.656 36.2087Z" fill="black"/>
<path fill-rule="evenodd" clip-rule="evenodd" d="M91.6418 101.08C91.9868 101.075 92.3317 101.07 92.6718 101.065C92.3254 101.07 91.9838 101.075 91.6418 101.08Z" fill="black"/>
<path fill-rule="evenodd" clip-rule="evenodd" d="M141.555 95.6883C143.384 95.3866 145.214 95.286 147.043 95.6872L141.555 95.6883Z" fill="black"/>
<path fill-rule="evenodd" clip-rule="evenodd" d="M190.347 75.1092C190.727 74.1146 190.822 73.7414 191.752 73.2266C191.365 74.1932 191.304 74.7103 190.347 75.1092Z" fill="black"/>
<path fill-rule="evenodd" clip-rule="evenodd" d="M234.959 173.537C234.996 174.571 235.032 175.605 235.069 176.638C235.032 175.603 234.995 174.57 234.959 173.537Z" fill="black"/>
<path fill-rule="evenodd" clip-rule="evenodd" d="M301.304 34.3868C300.476 34.4054 299.649 34.4244 298.825 34.443C299.654 34.4244 300.479 34.4054 301.304 34.3868Z" fill="black"/>
<path fill-rule="evenodd" clip-rule="evenodd" d="M191.055 191.915C191.084 192.777 191.112 193.639 191.141 194.501C191.112 193.638 191.083 192.777 191.055 191.915Z" fill="black"/>
<path fill-rule="evenodd" clip-rule="evenodd" d="M89.6396 164.297C90.4755 164.303 91.3118 164.309 92.1476 164.315C91.3114 164.309 90.4755 164.303 89.6396 164.297Z" fill="black"/>
<path fill-rule="evenodd" clip-rule="evenodd" d="M160.699 120.018C160.195 120.023 159.692 120.027 159.193 120.033C159.699 120.029 160.199 120.023 160.699 120.018Z" fill="black"/>
<path fill-rule="evenodd" clip-rule="evenodd" d="M159.059 92.616C158.644 92.6019 158.23 92.5877 157.82 92.575C158.236 92.5896 158.647 92.6026 159.059 92.616Z" fill="black"/>
<path fill-rule="evenodd" clip-rule="evenodd" d="M99.8196 164.036C100.473 163.973 101.127 163.909 101.78 163.844C101.127 163.909 100.473 163.973 99.8196 164.036Z" fill="black"/>
<path fill-rule="evenodd" clip-rule="evenodd" d="M85.5773 164.33C86.2176 164.32 86.8579 164.31 87.4978 164.3C86.8579 164.31 86.2176 164.32 85.5773 164.33Z" fill="black"/>
<path fill-rule="evenodd" clip-rule="evenodd" d="M92.4132 164.313C93.0762 164.256 93.7393 164.198 94.4027 164.14C93.7397 164.198 93.0762 164.256 92.4132 164.313Z" fill="black"/>
<path fill-rule="evenodd" clip-rule="evenodd" d="M94.8312 165.365C94.5015 165.363 94.1719 165.361 93.8467 165.359C94.1778 165.361 94.5045 165.363 94.8312 165.365Z" fill="black"/>
<path fill-rule="evenodd" clip-rule="evenodd" d="M234.669 150.55C234.719 150.064 234.768 149.578 234.817 149.094C234.768 149.58 234.719 150.065 234.669 150.55Z" fill="black"/>
<path fill-rule="evenodd" clip-rule="evenodd" d="M135.672 101.429C136.087 101.465 136.503 101.5 136.92 101.536C136.455 101.56 135.99 101.583 135.526 101.607C135.529 101.512 135.577 101.452 135.672 101.429Z" fill="black"/>
<path fill-rule="evenodd" clip-rule="evenodd" d="M242.512 183.16C242.485 182.718 242.458 182.275 242.433 181.835C242.459 182.279 242.486 182.72 242.512 183.16Z" fill="black"/>
<path fill-rule="evenodd" clip-rule="evenodd" d="M143.136 99.7407C142.802 99.7474 142.468 99.7537 142.138 99.7601C142.474 99.7533 142.805 99.747 143.136 99.7407Z" fill="black"/>
<path fill-rule="evenodd" clip-rule="evenodd" d="M265.347 155.602C265.903 155.668 266.46 155.733 267.016 155.798C266.46 155.733 265.903 155.668 265.347 155.602Z" fill="black"/>
<path fill-rule="evenodd" clip-rule="evenodd" d="M149.766 118.936C149.423 118.941 149.081 118.946 148.743 118.952C149.087 118.947 149.426 118.941 149.766 118.936Z" fill="black"/>
<path fill-rule="evenodd" clip-rule="evenodd" d="M129.96 51.9528C130.32 52.1447 130.133 52.988 129.782 52.9075C129.842 52.589 129.901 52.2709 129.96 51.9528Z" fill="black"/>
<path fill-rule="evenodd" clip-rule="evenodd" d="M315.275 152.183C314.945 152.175 314.615 152.166 314.289 152.158C314.621 152.166 314.948 152.175 315.275 152.183Z" fill="black"/>
<path fill-rule="evenodd" clip-rule="evenodd" d="M114.269 47.5797C114.234 46.8366 114.2 46.0939 114.165 45.353C114.2 46.0968 114.235 46.8381 114.269 47.5797Z" fill="black"/>
<path fill-rule="evenodd" clip-rule="evenodd" d="M176.802 257.714C177.311 257.788 177.82 257.863 178.328 257.937C177.819 257.863 177.311 257.788 176.802 257.714Z" fill="black"/>
<path fill-rule="evenodd" clip-rule="evenodd" d="M173.44 66.407C171.646 66.7762 169.804 66.9691 168.053 67.5126C167.616 67.6482 166.182 68.4811 165.658 68.2617C164.863 67.9276 165.265 67.0704 165.6 66.613C166.497 65.3898 168.1 64.7044 169.57 64.7196C171.037 64.7353 173.052 64.6816 173.44 66.407Z" fill="black"/>
<path fill-rule="evenodd" clip-rule="evenodd" d="M168.457 69.6891C170.432 71.0714 171.94 71.7523 172.107 68.6453C174.248 68.937 173.289 72.384 171.669 72.644C169.906 72.9268 168.73 71.166 168.457 69.6891Z" fill="black"/>
</svg>
