<svg width="10" height="8" viewBox="0 0 10 8" fill="none" xmlns="http://www.w3.org/2000/svg">
<path d="M4.58829 7.7696C4.63416 7.84066 4.69555 7.89875 4.76715 7.93889C4.83875 7.97903 4.91843 8 4.99932 8C5.08021 8 5.15989 7.97903 5.2315 7.93889C5.3031 7.89875 5.36448 7.84066 5.41035 7.7696L9.91071 0.836743C9.9628 0.756778 9.99335 0.663118 9.99903 0.565938C10.0047 0.468757 9.98532 0.371773 9.94295 0.285524C9.90058 0.199274 9.83686 0.127057 9.75871 0.0767191C9.68056 0.0263811 9.59097 -0.000152706 9.49967 6.61103e-07H0.49897C0.407885 0.000401918 0.318625 0.027277 0.24079 0.0777355C0.162955 0.128194 0.0994899 0.200327 0.0572196 0.286377C0.0149493 0.372427 -0.00452694 0.469139 0.000885468 0.566112C0.00629787 0.663084 0.0363941 0.756648 0.0879376 0.836743L4.58829 7.7696Z" fill="#131313"/>
</svg>
