<svg xmlns="http://www.w3.org/2000/svg" width="1024" height="768" fill-rule="evenodd" fill="#000" xmlns:v="https://vecta.io/nano"><path d="M738.321 566.027c-4.517 5.224-11.187 9.101-16.305 13.877-5.374 5.017-11.207 9.401-16.56 14.357-23.614-28.861-55.962-46.558-83.985-70.507-13.285-11.355-23.073-26.756-30.236-42.562-3.672-8.103-6.385-16.443-8.508-25.075-.956-3.888-1.891-7.763-2.516-11.704-.757-4.773-.953-5.18-4.173-8.905-1.386-1.603-4.071-6.287-6.786-5.771-2.285.435-6.464 7.39-7.908 9.108-6.944 8.263-13.676 16.777-20.987 24.72-11.185 12.154-21.368 24.114-31.753 36.996-21.244 26.355-44.16 51.164-67.284 75.963-1.715 1.839-5.714 7.232-8.178 7.957-2.996.881-7.865-2.794-10.882-4.848-7.283-4.958-13.023-11.095-19.249-17.24-12.149-11.992-20.376-28.825-25.91-44.841-3.313-9.587-5.467-19.525-8.886-29.079-1.425-3.982-4.655-8.876-3.015-12.344.488-1.034 3.596-3.781 4.692-3.991 1.296-.249 3.457 1.528 3.907 1.405 4.3-1.177 1.914-5.678 4.472-8.1 1.45-1.374 8.825-1.173 11.027-1.928 8.051-2.762 15.274-8.03 22.885-11.175 31.863-13.164 64.114-25.969 91.621-47.466 7.134-5.574 11.874-9.763 20.386-13.366 8.602-3.641 17.249-6.889 26.026-10.066 7.744-2.803 15.53-5.431 23.53-7.44 8.65-2.173 20.921-4.928 29.564-2.129 16.973 5.495 22.454 19.48 29.213 34.233 9.145 19.96 20.202 38.848 32.189 57.22 23.06 35.348 51.106 67.067 73.609 102.701"/><path d="M227.16 253.53c-.934-.474-8.226 2.494-9.45 2.948-4.889 1.814-9.494 4.828-14.1 7.28l10.59 12.89c3.46-8.487 7.907-15.49 12.96-23.118h0zm2.407 52.805c-1.201.135 8.939 24.502 10.123 27.238l13.199 29.731c4.23 9.619 9.596 18.468 15.002 27.454 4.624 7.685 9.38 19.611 16.355 25.303-4.404-19.538-3.824-42.003-16.456-58.408-13.094-17.007-26.04-33.614-38.223-51.318h0zm508.754 260.56c-19.567-30.985-44.061-58.396-64.465-88.828-11.425-17.04-22.545-34.298-32.162-52.436-6.995-13.194-11.343-32.019-22.147-42.106-4.761-4.444-9.848-8.794-16.237-10.785-8.743-2.724-20.781-.024-29.564 2.13-16.367 4.013-32.356 10.245-47.859 16.79-15.725 6.638-29.141 18.562-43.349 28.142-15.241 10.278-31.739 17.765-48.815 24.319-14.868 5.707-28.095 13.9-42.884 19.644-2.947 1.145-8.961.977-11.433 2.47-2.664 1.607-1.615 6.353-4.849 8.104-1.459.79-1.945-2.074-3.065-2.027-1.37.057-2.619 1.665-3.939 2.683-5.375 4.147-2.082 6.912.046 12.618 6.937 18.592 10.665 37.508 20.405 55.06 8.008 14.427 19.469 27.355 32.963 36.906 2.053 1.454 8.744 7.086 11.153 6.711 2.169-.336 6.582-6.102 8.08-7.668 6.795-7.106 13.006-14.75 19.797-21.867 10.494-10.999 20.596-22.293 30.78-33.442 11.822-12.943 22.285-27.608 32.933-41.437 4.898-6.362 11.203-11.544 16.647-17.443 7.321-7.932 14.043-16.459 20.988-24.72 2.1-2.5 5.62-8.895 8.885-8.82 2.288.053 6.322 5.44 7.519 7.128 4.448 6.275 4.428 17.607 6.64 25.44 5.398 19.1 15.131 37.755 28.48 52.494 13.274 14.657 30.278 25.08 45.978 36.861 17.008 12.764 33.121 25.826 46.609 42.313 5.353-4.956 11.186-9.341 16.56-14.357 5.119-4.777 11.789-8.653 16.305-13.877h0zm-251.869 87.66c3.804.039 10.246 2.379 13.649.97-10.094-11.169-19.364-20.752-32.135-28.937-13.253-8.494-26.462-16.912-39.334-25.972-25.941-18.258-45.021-39.911-55.857-70.317-2.79-7.83-4.659-16.042-6.704-24.091-1.1-4.335-3.29-24.615-7.009-26.366-2.203-1.038-18.783 10.615-21.41 12.067-6.142 3.397-12.307 6.031-18.657 8.689-13.649 5.715-27.72 10.074-42.194 13.713-17.353 4.363-29.173-2.856-39.923-16.495-12.196-15.474-22.331-32.933-33.482-49.183-5.071-7.391-9.272-14.77-13.017-22.922-2.451-5.334-12.172-19.725-8.813-25.408 9.583 7.296 13.031 21.803 19.559 31.572 8.136 12.175 17.305 23.654 25.483 35.818 6.877 10.228 13.893 22.623 24.053 29.976 8.937 6.467 17.427 4.479 27.045 1.572 11.657-3.522 23.74-5.258 35.164-9.627 12.363-4.727 24.06-11.433 36.122-16.901 5.623-2.55 12.356-3.999 17.655-7.178 4.567-2.738 3.886-4.184 4.221-10.015l1.144-20.42c.202-4.575-2.272-10.778-.593-14.193-13.694 2.374-27.078 5.554-40.676 8.367-7.445 1.54-14.624 3.444-22.145 4.654-2.867.461-6.786.448-9.353 1.697-2.048-.588-3.092-.214-3.132 1.121a13.72 13.72 0 0 1-.466 2.143c-4.199 1.91-6.641-2.187-10.283-6.117-4.494-4.85-7.859-10.312-11.156-16.011-7.372-12.742-15.869-24.726-22.691-37.827-6.953-13.355-12.6-27.654-18.495-41.51-5.408-12.712-8.871-26.46-14.847-38.871-2.667-5.54-6.047-10.121-9.994-14.801-3.257-3.862-8.268-12.193-13.132-13.967-1.286-.469-4.654.319-6.115.215-2.912-.208-5.507-1.277-8.487-1.043-6.452.505-13.486 4.585-18.642 8.172 3.332 2.97 11.667 6.58 5.68 11.93-5.81 5.194-9.019-4.123-11.236-8.205-10.44 8.573-8.931 20.394-10.137 32.507-.63 6.324-2.287 12.552-3.356 18.781-.77 4.483-.23 9.12-.45 13.697-.561 11.631-1.73 22.764-1.675 34.232.062 12.258.897 24.096 1.878 36.265 1.651 20.488 5.434 40.983 8.678 61.308 1.825 11.425 4.323 22.525 6.748 33.765 2.752 12.757 7.843 24.84 10.698 37.564 2.909-3.698 5.097-3.716 9.802-3.226 3.619.377 6.05-.484 5.838 4.539-.137 3.258-3.011 5.746-6.191 6.315-4.147.741-5.556-1.328-7.693-4.469-.5 5.948 3.5 12.167 5.082 17.976 1.497 5.505 2.489 10.901 5.005 16.17l7.041 15.301 3.371 7.057c.585 1.183 1.274 2.813 2.147 3.81 2.048 2.337 1.722 1.205 4.119 2.536 5.222 2.901 3.261 2.178 3.383 8.168.119 5.909 3.149 10.25 8.008 13.571 10.309 7.048 20.477 9.008 32.197 12.569 10.92 3.318 22.422 6.165 33.985 6.1 14.162-.079 28.136-1.936 42.298-2.124 15.624-.207 31.398-.122 46.99.418 6.423.222 12.388.508 18.589 2.148 7.201 1.906 14.167 1.15 21.589.861 15.834-.616 32.214-1.841 47.841-1.951 11.252-.08 23.124-.865 34.418-.187h0zm410.588 6.138c2.815 1.487 9.125.877 11.955.464 4.985-.727 5.519-2.703 8.682-7.148 5.444-7.655 9.864-14.986 13.067-23.853 6.13-16.971 8.633-34.333 11.324-52.086 2.991-19.726-2.471-40.173-4.425-59.765-.449-4.495-1.063-8.949-1.773-13.41-.425-2.667-.536-11.74-2.291-14.049-3.372-4.436-19.052-.858-25.217-.456-17.208 1.124-34.529 1.387-51.729 1.582l-27.473.559c-4.17.033-8.247-.174-12.432-.58-1.4-.135-2.767-.457-4.177-.535-4.828-.267-4.465-.967-5.713 3.308-2.186 7.49-.504 17.019-1.078 24.793-.768 10.388-1.183 20.923-.993 31.333l.207 28.859c.15 3.993.586 7.248 1.639 11.061 1.191 4.311 2.501 14.383 5.467 17.366.337.34 2.858-.452 3.527.394 1.031 1.303.842 4.06 1.55 4.902 2.291 2.726 7.026 2.942 10.461 4.167 9.425 3.361 18.071 7.01 26.954 11.542 7.937 4.049 20.734 7.495 25.506 15.483 2.188 3.662 2.483 8.491 4.495 12.269 2.291 4.304-2.293 2.054 3.32 3.8 2.528.786 6.556 0 9.147 0h0zM60.285 612.015c-.714 9.939-6.313 19.406-8.262 29.178-.912 4.576-2.459 9.074-3.531 13.623-1.028 4.364-4.742 9.532-4.366 13.85 13.708-4.884 27.593-6.112 41.92-7.429 13.579-1.249 27.924-1.746 41.389-1.752 13.721-.007 28.392-1.347 42.52-1.555 14.775-.217 29.773-.6 44.334-2.132-7.614-5.639-17.141-10.935-22.763-18.781-6.112-8.529-9.286-19.215-14.664-28.215-10.792-18.061-17.653-40.472-23.31-60.763-11.421-40.962-24.184-81.168-27.26-123.656-5.854 2.998-10.501 14.629-13.432 20.421-3.741 7.395-5.7 15.411-8.132 23.271-5.008 16.189-8.474 32.975-14.606 49.01-11.72 30.652-19.253 63.68-29.837 94.93h0zm744.112-238.737c2.535 18.32 7.851 36.877 8.055 55.418.045 4.079-.646 8.609.204 12.631.908 4.294 3.861 8.09 5.566 12.171 2.706 6.478 9.559 19.756 2.95 25.245-.134-5.209-4.901-11.824-7.302-16.379-3.619-6.863-8.374-13.138-12.297-19.831-8.212-14.009-17.414-27.718-27.997-40.068-10.308-12.03-22.188-22.701-33.119-34.156-3.284-3.442-29.63-36.569-30.677-36.106 8.172 31.514 22.064 58.934 41.075 85.32 9.321 12.935 20.508 21.447 31.855 32.405 9.449 9.126 27.258 18.884 23.991 33.837 14.771-1.42 29.445-3.689 44.35-3.689-2.451-18.865-4.328-37.431-8.704-55.986-4.968-21.069-8.333-42.768-12.537-64.024-4.29-21.7-11.567-42.708-16.094-64.367a1136.68 1136.68 0 0 1-11.237-62.414c-2.626 11.62-1.657 24.383-2.589 36.239-.952 12.113-.86 24.003-.543 36.187.587 22.631 2.999 44.989 5.05 67.567h0zm64.006-107.898c.083-9.687 1.96-19.243 2.539-28.907.178-2.965 3.131-23.194.377-24.25-2.265 4.938-2.793 11.257-4.85 16.438s-4.804 10.107-6.776 15.319c-4.272 11.291-5.746 24.067-6.206 36.071-1.041 27.152-1.579 54.243.246 81.395.782 11.638 1.382 23.296 1.168 34.957-.235 12.831-2.2 23.968.186 36.694 2.362 12.602 3.846 25.152 4.633 37.938.552 8.974.774 8.339 9.336 7.708 6.181-.456 12.423.031 18.613-.252-2.894-34.976-3.367-70.024-7.99-104.866-2.359-17.775-2.422-35.807-5.352-53.516-1.456-8.797-3.899-17.417-5.303-26.224-1.507-9.456-.765-18.976-.621-28.505h0zm-626.108-22.011c16.483 1.428 34.016 6.356 50.911 3.102-2.785-1.128-10.073-2.684-6.793-7.136 3.335-4.527 8.955 1.215 12.281.622 2.051-.366 6.583-8.939 7.847-10.714 2.869-4.034 3.215-4.737 8.374-5.771 4.998-1 6.131.083 6.764-4.886.727-5.714-1.25-12.138-1.054-17.981.421-12.579 4.479-23.61 8.256-35.445-16.047 3.491-31.738 7.631-48.146 9.881-7.014.962-17.926 3.181-24.298-1.587-1.657-1.24-1.392-2.914-2.748-4.351-2.274-2.411-6.492-4.905-9.717-5.592-19.847-4.225-21.783 24.068-11.837 34.655 2.491 2.653 5.957 3.963 8.508 6.394 3.405 3.242 3.684 6.657 4.181 11.606.932 9.28-.334 18.596-4.293 27.085l1.764.118zm240.845 133.57c5.859 1.112 11.974.858 17.848 1.807 2.087.337 8.344 1.513 10.179.293 2.802-1.863 3.798-8.696 5.123-11.878 2.33-5.597 5.627-10.479 7.849-16.178 9.08-23.278 17.547-46.649 28.529-69.132-4.209-1.094-7.441-1.137-11.683-1.702-4.419-.589-8.425-3.202-12.641-4.325-4.007-1.067-8.205-.795-12.175-2.036-2.187-.683-4.064-2.202-6.22-2.733-3.437-.845-7.448-1.339-9.492.917-2.095 2.314-2.83 8.659-3.97 11.648-3.036 7.963-6.563 15.648-9.106 23.794-2.295 7.347-4.475 14.616-6.495 22.03-2.134 7.827-6.34 14.278-8.902 21.755-1.949 5.691-3.788 11.509-4.079 17.577-.283 5.921-1.145 6.298 4.776 7.244 2.989.477 7.647 2.253 10.459.919h0zm385.49 277.116c1.526.711 2.965.617 4.315-.284-13.23-5.588-26.099-13.338-39.901-17.172-12.947-3.595-25.531-7.891-38.004-12.319-10.135-3.598-19.247-6.399-28.41-12.731-5.562-3.844-10.503-8.166-14.325-13.783-4.255-6.254-5.202-15.154-9.81-20.786-6.22 6.831-13.527 12.004-20.886 17.432-2.546 1.878-8.653 5.972-9.524 8.878-1.099 3.667 1.845 7.175 3.301 10.886 3.729 9.504 5.551 19.003 7.574 28.884.811 3.96 2.562 9.913 5.815 11.572 2.962 1.509 11.54.412 15.226.132 19.23-1.457 38.119-2.949 57.465-1.622 21.892 1.501 45.329 2.538 67.164.913h0zm38.409-176.112c3.495.012 6.909-.425 10.391-.425-2.01-9.385 2.689-21.529 4.355-30.897 1.864-10.479 3.283-21.315 4.526-31.878 2.62-22.249 3.807-44.228 3.841-66.64.032-21.687 3.98-41.505 9.51-62.353 5.938-22.39 15.662-42.525 23.702-64.118-8.819 4.662-13.701 15.571-18.335 23.911-5.858 10.545-9.76 22.221-12.152 34.059-4.615 22.837-9.677 45.743-15.002 68.542-5.545 23.739-8.805 47.696-15.157 71.241-3.098 11.482-7.31 25.608-7.544 37.449-.097 4.898-1.573 15.156.647 19.41 2.076 3.98 6.666 2.105 11.218 1.699h0zm-527.551-29.454c-.184 2.438-.358 4.757-.791 7.165 4.841-.046 10.972-5.069 15.124-7.324 5.058-2.747 10.122-5.777 15.069-8.538 9.55-5.332 20.392-8.845 30.589-13.225 11.714-5.032 22.481-11.112 33.683-17.17 3.913-2.116 32.035-14.306 31.563-17.636l-18.523-.616c-5.293-.176-13.491 1.02-18.56-.616-2.776-.897-5.893-4.198-6.941-6.783-1.037-2.558 1.294-14.323-.061-15.073-6.91 7.055-11.255 16.432-17.433 24.043-6.827 8.412-15.649 13.324-25.372 17.794-10.737 4.937-21.85 8.76-32.823 12.991-4.628 1.784-4.536 2.805-4.939 7.879-.451 5.671-.402 11.423-.585 17.109h0zm557.947 213.36c11.639 1.249 23.567.537 35.297 1.511 4.268.354 10.185.882 5.891 6.61-2.704 3.608-11.366 2.451-15.295 2.701-10.549.671-21.718.31-32.291.154-2.226-.032-4.686-.694-6.936-.545-2.597.171-5.707 2.039-8.074 2.025-1.459-.009-1.982-1.548-3.24-1.689-2.741-.308-5.481-.533-8.245-.532-41.79.009-83.006-.831-124.692-.876-19.933-.021-40.186-.365-60.111-1.301-4.184-.197-28.012.659-27.352-6.875.339-3.88 8.116-4.427 10.954-4.839 2.103-.305 4.285-.257 6.392-.37 5.598-.3 8.05 1.047 6.869-5.078-4.479-23.232-12.505-42.432-29.653-59.136-14.022-13.659-30.906-26.049-46.788-37.455-19.284-13.85-34.928-28.416-46.377-49.609-6.686-12.376-12.283-25.029-15.718-38.713-1.236-4.923-1.265-10.522-2.78-15.268-1.165-3.654-3.821-6.211-5.385-9.996-19.186 32.046-44.615 58.857-67.931 87.751-11.141 13.804-23.85 26.915-37.161 38.924-3.95 3.564-7.636 7.285-11.323 11.12-3.084 3.21-7.98 6.063-10.584 9.624-2.498 3.416-1.883 3.253 1.919 5.966 5.026 3.585 10.565 6.564 15.67 10.06 8.16 5.589 17.067 10.311 24.363 17.037 7.891 7.274 14.785 15.7 21.682 23.902 4.597 5.467 10.629 12.482 11.785 19.394.383 2.287 1.837 7.943-.082 9.618-1.64 1.431-1.475.888-3.511.015-2.668-1.144-3.453-3.769-6.712-5.02-8.339-3.2-18.43-2.101-27.107-2.14s-17.432.936-26.108.9c-19.812-.081-39.202 1.523-59.008 2.384-21.036.914-42.33-1.28-63.296-.969-15.534.23-31.482-.931-47.445-.068-8.211.443-16.275-.584-24.281-.699-10.482-.151-21.247 1.275-31.819 1.478l-51.95.75-112.475 2.422c-5.012.079-10.499-.091-15.452.473-5.257.6-2.543 1.717-6.15 3.61-10.098 5.297-7.766-14.339-7.524-18.201 1.298-20.696 6.552-40.994 12.866-60.642 5.99-18.635 10.853-38.139 15.926-57.177 5.553-20.837 12.788-40.821 19.358-61.453 6.732-21.142 12.213-43.108 24.44-61.849 2.785-4.268 5.663-8.861 10.143-11.552 5.022-3.017 5.238-1.255 5.234-6.776-.003-5.2.317-12.147-.91-17.109-1.109-4.483-.938-1.825-3.435-5.045-2.032-2.619-4.158-4.409-5.616-7.589-8.956 9.081-29.457 4.289-38.11-2.25-10.591-8.004-18.658-21.507-21.614-34.367-2.374-10.327.539-30.012 11.969-34.978 5.572-2.421 26.038-4.251 26.857-12.141.422-4.073-6.781-9.8-8.443-13.302-3.08-6.488-6.038-15.118-6.894-22.23-1.672-13.882 4.63-29.405 14.669-38.782 18.416-17.202 50.819-26.03 74.508-15.116-5.006-19.123-8.028-35.62-5.507-55.512 2.172-17.137 12.283-26.725 26.196-35.261C210.78 93.2 243.066 87.45 270.213 91.686c6.169.963 12.089 3.028 17.801 4.671 8.298 2.387 18.232 1.592 26.067 5.47 5.681 2.811 9.995 8.411 14.984 12.15 5.825 4.365 10.665 10.88 14.712 16.905 8.655 12.884 5.273 36.796-1.971 49.729-1.553 2.774-3.472 5.109-6.042 7.002-2.676 1.97-6.755 2.583-8.134 5.138-3.532 6.545-.125 20.714.346 27.788.549 8.214-3.604 14.384-12.918 15.039-5.388.38-5.56-2.746-8.14 3.686-1.672 4.169-3.191 8.711-5.604 12.533-4.975 7.877-14.087 7.108-22.387 6.895-9.608-.248-19.072-1.766-28.685-2.724 2.539 8.135 9.489 14.449 13.829 21.696 5.868 9.802 9.4 17.927 10.354 29.347.732 8.774-.848 15.703-6.852 22.233-2.485 2.703-4.688 2.836-4.071 5.954.376 1.902 3.665 5.04 4.829 6.558 3.079 4.016 6.654 7.702 9.364 11.991 10.428 16.502 13.508 41.658 13.534 60.868.001.881.471 2.754.082 3.665-.288.673-2.476 2.804-2.508 2.987-.428 2.47 1.98 6.704 5.759 7.123 3.969.439 11.238-2.873 14.93-3.961 5.908-1.742 11.93-3.028 17.825-4.817 9.521-2.889 18.998-5.193 28.677-7.457 4.374-1.022 8.772-1.874 13.16-2.83 4.998-1.088 7.32-3.191 9.9 1.894 2.213 4.364.837 5.155 6.198 2.956 5.323-2.185 10.524-4.893 15.721-7.359 9.166-4.348 20.082-8.224 27.989-14.643 13.189-10.709 18.073-27.763 30.696-39.126 3.515-3.164 5.612-3.22 7.834-7.603 2.379-4.691 3.606-10.707 4.856-15.753 2.191-8.836 3.75-17.703 5.737-26.531 2.475-10.998 7.824-20.958 11.727-31.448 1.521-4.087 2.309-9.282 4.762-12.955.65-.974 1.892-1.523 2.399-2.329 1.745-2.767 1.727-3.527 2.179-6.856 2.115-15.555 11.4-7.372 21.546-3.805 4.275 1.503 24.574 11.25 16.823 17.732 9.24 2.681 24.039 1.224 23.915 14.466-.064 6.785-4.122 14.043-6.3 20.394l-5.77 16.93c-4.305 12.333-9.528 24.297-13.729 36.668-1.915 5.638-3.495 11.408-6.161 16.729-2.351 4.694-8.044 9.868-8.982 15.001 24.623-10.505 47.402-25.693 74.963-24.725 12.068.423 23.02 5.496 29.685 16.107 8.356 13.3 13.854 28.191 22.021 41.614 29.711 48.829 65.147 93.189 97.763 139.997 2.505 3.597 5.727 6.998 6.596 11.443.567 2.9-.533 5.801.147 8.587 1.411 5.79 8.54 13.019 13.374 16.346 9.266 6.378 24.329 15.374 35.892 14.578-7.257-17.44-7.16-36.549-6.823-55.152.321-17.671 2.231-35.2 4.498-52.689.513-3.957.96-7.625 2.097-11.46 1.305-4.4 3.097-3.983-.812-7.938-6.016-6.09-13.172-11.101-19.237-17.267-13.117-13.334-26.561-23.785-36.885-39.708-9.818-15.145-20.176-30.728-27.444-47.313-7.482-17.073-10.473-35.306-14.187-53.387-1.507-7.337-7.003-15.528-5.899-23.19 1.396-9.683 5.886-2.632 7.714 2.579 5.578 15.907 18.639 30.144 29.457 42.937 11.688 13.82 25.983 25.383 38.183 38.801 13.285 14.614 22.385 31.409 34.199 47.009 0-19.36-6.61-39.074-9.314-58.226-2.379-16.857-3.126-33.767-4.63-50.697-3.415-38.458-.464-78.049 4.329-116.232 2.278-18.134.986-35.841 1.055-54.037.022-5.791-2.375-19.138.68-24.277 5.851-9.843 9.264 11.68 9.56 14.889 1.769 19.116-1.404 38.019.217 57.053 1.694 19.877 5.37 39.196 8.498 58.843 3.389 21.273 8.906 42.066 14.188 62.931 5.546 21.907 10.21 44.271 16.376 66.003 1.663-6.831-.67-15.223-1.131-22.18-.658-9.956-1.943-19.914-2.054-29.896-.178-15.909-.302-32.113.598-47.948.887-15.608.619-31.963 5.406-47 2.272-7.137 5.604-14.1 8.864-20.823 4.022-8.29 5.444-16.328 7.671-25.145 1.908-7.551 4.7-14.903 5.971-22.605.79-4.79 2.995-18.93 8.479-8.217 3.184 6.218 1.808 15.436 1.897 22.116.114 8.564-1.197 16.891-1.398 25.419-.391 16.732-.672 33.444-1.92 50.148-1.309 17.525-.166 33.231 3.168 50.499 3.649 18.902 4.717 37.845 6.608 56.978.975 9.879 2.619 19.703 3.413 29.596.42 5.239-1.734 20.262 2.02 23.993.363-9.074 2.963-18.156 4.934-26.998 2.335-10.475 3.278-21.487 4.999-32.112 2.787-17.214 8.195-33.653 11.773-50.674 7.375-35.087 13.503-80.182 44.411-103.148 4.044-3.005 8.488-5.223 12.86-7.696 2.475-1.4 6.152-5.022 8.984-5.654 3.091-.69 4.38-.154 5.633 3.432 1.747 4.999-1.448 7.334-4.431 10.965-10.323 12.564-14.733 28.67-21.107 43.405-14.596 33.741-21.054 69.329-21.128 105.801-.039 19.093-1.356 37.508-3.392 56.485-2.191 20.423-5.076 42.023-11.281 61.67 6.223 1.395 12.975-.685 14.664 6.549.415 1.777-.335 3.878.124 6.191.446 2.248 1.519 4.484 2.154 6.695 1.312 4.573 2.006 9.085 2.644 13.781 2.467 18.148 6.703 35.409 7.154 53.81.415 17.009-2.915 34.242-5.983 50.924-3.091 16.802-11.956 31.125-18.935 46.32l9.011.062h0zm-395.001-38.624c-3.31.936-19.289 2.702-19.286 7.716.002 3.007 15.96 2.948 18.784 3.275l.502-10.991m35.271 34.599c9.208 1.751 21.707-.711 27.594-8.829 2.751-3.793 4.055-9.562 4.951-14.089.856-4.314 3.495-15.079 1.699-19.123-2.205-4.966-23.362.224-29.523.794-10.749.992-21.864 1.109-32.62.408 0 11.106-.568 21.93 5.964 31.489 4.713 6.897 13.563 8.525 21.935 9.35m-1.851 13.718c-10.005-3.662-20.509-1.282-27.024-12.023-1.653-2.725-3.045-5.655-4.045-8.682a26.17 26.17 0 0 1-1.139-4.075c.509-2.994-.588-3.838-3.29-2.533-5.303-1.031-11.118 2.609-16.704 1.536-13.548-2.602-11.087-22.009-1.995-28.727 1.796-1.328 3.59-1.697 5.646-2.353 4.532-1.444 6.985.169 11.13-.241 3.35-.331 4.271-3.844 7.871-5.391 2.357-1.012 5.629-.934 8.107-1.036 12.968-.533 25.977-.528 39.028-1.373 6.087-.394 12.659.57 18.622-.47 2.792-.488 2.391-2.346 5.035-.716 2.737 1.688 1.555 7.93 1.417 10.419-.799 14.393-1.656 29.829-9.366 42.412-7.054 11.513-20.935 12.691-33.293 13.253"/><path d="M47.467 675.508l9.645-.102-9.645.102m893.828-306.877l-.02-9.27.02 9.27"/><path d="M122.468 381.329l-.03 9.029.03-9.029m267.569 290.764l7.671.014-7.671-.014m-155.497-.614l7.67.026-7.67-.026m559.91-125.091l-.338 6.094.338-6.094m142.985 115.46l-5.937-.062c1.988-.829 3.967-.792 5.937.062m-175.706 9.002l4.248-.068-4.248.068m178.795-277.131l.105-4.604-.105 4.604m-132.831-194.39l-.352-4.75.352 4.75m133.533 175.355l.057-4.76-.057 4.76M494.541 668.88l3.778.053-3.778-.053m325.306 2.591l3.692.075-3.692-.075M953.2 559.761l-.265-4.178.265 4.178m-22.163 113.064l3.003-.014-3.003.014m-136.918-1.291l2.975-.072-2.975.072m-223.688-.76l3.276-.02-3.276.02m-252.609-.004l3.113.024-3.113-.024m-61.451.168l3.174-.177-3.174.177M550.576 266.32l-4.74-.409c1.582.111 3.255-.825 4.74.409M953.35 662.449l-4.674-.473 4.674.473M844.678 275.913l-.314 4.092.314-4.092m96.939 56.912l.318-3.877-.318 3.877m-97.559-35.738l-.336 4.083.336-4.083m96.899 87.976l-.029-3.947c.85 1.313.816 2.627.029 3.947M794.473 574.195l-.037 3.955c-.872-1.331-.698-2.646.037-3.955m99.302-152.723l-.457-4.005.457 4.005M71.51 298.843c-1.033 1.365-2.44.43-3.668.596l3.668-.596m510.792 308.748l-3.915.005 3.915-.005m208.497-303.14l.365 3.326-.365-3.326M145.851 194.21l-3.936.078c1.298-.764 2.606-.985 3.936-.078m698.174 122.078l-.254 3.486.254-3.486m-35.979-142.882l.304-3.177-.304 3.177m-10.31-3.324l-.308 3.45.308-3.45M227.843 93.19l-4.004.485 4.004-.485m-96.424 101.936l-4.109.42 4.109-.42m750.733 3.374l.25-3.208-.25 3.208M86.453 375.256l2.354.035-2.354-.035m711.323 132.186l-.237 3.554.237-3.554m80.486-230.802l-.096-3.425.096 3.425M261.449 90.486l-3.649.001c1.217-.836 2.433-.815 3.649-.001M586.36 359.509l-3.997.102c1.309-.926 2.643-.949 3.997-.102m116.49 309.324l2.361.052-2.361-.052m29.756 1.389l2.356-.083-2.356.083m-465.695.549l2.458.062-2.458-.062m685.606-124.235l-.352-3.386.352 3.386M845.033 356.038l.279 3.224-.279-3.224m41.363-18.49l-.383-3.422.383 3.422M273.588 671.452l2.482-.037-2.482.037m302.266.09l2.412-.109-2.412.109m303.791-417.383l-.109-3.469.109 3.469m-684.76 418.049l2.418-.018-2.418.018m684.422-.011l2.487.026-2.487-.026m17.975-.1l2.401.17-2.401-.17m7.26-.014l2.445.067-2.445-.067m37.275-329.949l-.16-3.412.16 3.412M392.484 657.166l7.469-.389-7.469.389M242.295 243.369l6.481.562-6.481-.562m610.147 93.952l.203 6.18-.203-6.18m44.598 323.371l6.767.41c-2.27.103-4.574.75-6.767-.41"/><path d="M883.69 416.786l.05-5.896-.05 5.896m-5.774 61.801l5.938.079-5.938-.079m-498.284-34.581l-.146 4.49.146-4.49m531.227-63.474l-.241 4.467.241-4.467M868.63 654.055l4.317-.288c-1.083.867-2.172.939-4.317.288m-9.637-194.999l.296 4.819-.296-4.819M320.578 205.252l.046-4.653-.046 4.653m540.158 273.659l5.367-.117a6.21 6.21 0 0 1-5.367.117m49.515 11.461l-3.788.034 3.788-.034M446.779 654.673l5.256.068c-1.765.885-3.519 1.01-5.256-.068m-330.03 5.162l5.335-.477-5.335.477m736.31-309.271l.261 4.837-.261-4.837M285.517 247.158c1.499-.739 3.01-.863 4.536-.08l-4.536.08m518.509 122.043l.372 4.08-.372-4.08m126.627-31.767c-.77-1.332-.743-2.657.038-3.97l-.038 3.97m-77.348-46.24l.001 4.038-.001-4.038"/><path d="M907.039 477.943c1.543-.473 3.086-1.142 4.622.016l-4.622-.016M408.434 656.557l4.657-.434-4.657.434m-212.845.003c1.422-.625 2.841-.953 4.242.048l-4.242-.048m290.863-2.005c1.521-.664 3.038-1.029 4.539.047l-4.539-.047M147.964 457.829l.342 4.115-.342-4.115m353.024-79.084c1.496-.544 2.987-.828 4.456.081l-4.456-.081m352.048 40.87l.248 4.023-.248-4.023M146.997 298.523l-.371 3.238.371-3.238M60.285 612.014l-.229 3.151.229-3.151m824.068-185.297l-.252-3.259.252 3.259M775.404 652.523l3.998.028-3.998-.028M379.127 453.264l.747 2.378c-1.663.402-1.912-.391-.747-2.378m99.952-76.309l4.062-.017c-1.352.642-2.705 1.083-4.062.017m-330.356 87.374l.136 3.597-.136-3.597m14.324 193.544l3.92-.003-3.92.003m644.266-180.891l.146 3.309-.146-3.309M135.301 659.22c1.285-.853 2.573-.779 3.863-.014l-3.863.014m33.838-376.134l.211 3.378-.211-3.378m-40.524 376.25l4.007.017c-1.34.912-2.675.955-4.007-.017m739.788-393.957l.031-3.434-.031 3.434m-613.349-20.04l3.833.5-3.833-.5m-112.776 98.899l.054 3.206-.054-3.206m734.729-.154l-.21-3.265.21 3.265M578.934 658.058l4.73.428-4.73-.428m-5.268-40.823l-2.549.045 2.549-.045m.072 40.199l3.968.391-3.968-.391m-238.021-89.068c1.721 9.724-13.391 19.234-14.589 5.411-.438-5.055 2.942-8.609 6.727-11.699 5.372-4.385 8.373-.186 7.862 6.288M169.144 449.728c3.56 1.457 30.759 10.32 16.631 14.778-3.74 1.18-9.393 1.356-12.635-.723-3.9-2.502-7.834-9.885-3.996-14.055m6.694-131.684c9.232-1.072 17.738 14.091 6.356 13.599-8.285-.359-19.427-13.599-6.356-13.599m33.025 37.178c7.709 6.726-6.58 21.779-12.253 15.953-2.897-2.976-.225-9.387 2.166-11.877 2.454-2.555 6.82-3.035 10.087-4.076m22.95 174.369c-4.551.723-24.565 7.263-20.391-4.616 1.592-4.53 6.032-3.186 10.091-2.978 6.542.334 10.3.021 10.3 7.594m-13.183 30.597c6.813 3.645-3.146 24.043-8.793 19.703-7.835-6.022 2.881-17.871 8.793-19.703"/><path d="M248.344 543.791c3.313-1.353 18.93 13.669 12.985 17.848-3.047 2.142-8.82-1.53-10.657-3.744-3.444-4.152-3.756-9.274-2.328-14.104m-90.103-122.785c3.386.556 9.232.732 9.451 5.49.192 4.182-5.051 5.537-8.742 5.865-3.83.34-8.9-.741-8.973-5.556-.077-5.195 8.144-4.882 8.264-5.799m83.498 207.052c3.606 2.189 20.426 10.071 13.216 15.765-2.698 2.131-10.877-2.27-12.718-4.507-2.197-2.67-4.344-8.925-.498-11.258m46.758-57.194c-.521-8.7 14.157-12.163 11.114.186-.858 3.482-1.688 8.767-5.993 8.969-5.088.239-5.272-5.781-5.121-9.155m-45.342-151.29c.102 6.6-12.544 12.42-12.642 1.959-.087-9.348 13.114-12.084 12.642-1.959m-8.35-34.374c3.116 1.004 7.257 1.521 7.531 5.48.291 4.19-3.601 6.055-7.103 5.82-2.872-.193-7.122-2.319-7.644-5.435-.765-4.574 3.699-4.873 7.216-5.865m-57.943 120.833c-.053-5.446 10.861-11.991 12.871-5.672.643 2.022-4.501 11.089-6.212 11.768-4.527 1.797-5.159-2.391-6.659-6.096m89.435 90.643c-3.688 3.301-14.751 12.574-13.924.126.528-7.952 14.897-7.537 13.924-.126m180.243 35.577c1.209-5.234 18.517 3.846 12.741 10.457-1.938 2.219-7.007.211-8.956-1.104-3.857-2.603-3.941-5.006-3.785-9.353m-96.435-112.037c.675-2.333 1.425-6.459 3.651-7.948 4.028-2.694 7.535 1.37 7.536 5.653.001 7.99-9.094 10.51-11.187 2.295m-42.897 93.418c4.494 1.03 14.5 11.954 8.697 16.41-5.585 4.289-13.013-13.147-8.697-16.41m4.278-82.688c5.778.461 13.72 9.818 4.739 11.305-7.025 1.164-15.195-9.013-4.739-11.305m52.31 43.057c1.449-4.881 15.779.349 14.974 5.723-.428 2.857-6.287 3.528-9.367 2.773-4.534-1.113-5.711-4.087-5.607-8.496M194.879 301.397c.104-6.31 12.229-8.882 13.117-2.523.803 5.745-13.269 11.858-13.117 2.523M359.79 639.022c.874-3.173 1.251-6.992 5.214-7.41 4.538-.479 4.404 3.001 3.871 6.607-1.452 9.811-6.996 10.301-9.085.803m-191.476-262.55c-6.321 1.426-17.898-10.748-10.822-13.36 4.986-1.843 10.822 9.687 10.822 13.36m80.622 94.564c-3.217 1.515-3.958 2.434-6.429-.052-2.152-2.165-2.057-8.197-.21-10.449 7.074-8.624 6.908 7.011 6.639 10.501m26.247-17.491c3.355.427 13.324 9.883 8.133 13.641-6.361 4.604-9.96-9.819-8.133-13.641m72.587 2.49c-2.439 9.391-8.526 3.072-8.181-4.034.554-11.382 6.862-1.469 8.181 4.034m37.012 150.826c4.126 1.707 9.726 17.479 3.833 18.325-6.619.949-4.415-15.041-3.833-18.325M333.257 598c4.721-1.593 6.451 8.366 3.707 10.216-6.037 4.07-4.764-7.866-3.707-10.216m-44.76-27.136l-.181 3.958.181-3.958m158.043 61.389l-.149 4.06.149-4.06m-82.744-58.25l-.084 3.443.084-3.443m522.197-19.791c9.788-.314 20.707-3.998 30.325-2.826 2.648.323 8.743.99 4.501 4.917-2.029 1.878-11.742.907-14.682 1.53-17.971 3.805-38.371 6.259-56.798 5.942-8.626-.148-17.316-.839-25.938-1.295-8.616-.456-9.463-3.957.232-5.071 10.069-1.156 20.401-.727 30.52-.739 10.638-.014 21.223-1.748 31.84-2.458m21.488-23.582c-.942 2.682-1.769 8.838-5.379 9.242-5.056.565-5.893-8.116-5.707-11.291.226-3.832 1.605-10.198 6.368-8.87 4.023 1.12 4.426 7.852 4.718 10.919m-30.609-1.964c.739-2.872 1.102-9.348 5.164-9.568 4.54-.245 5.837 6.502 5.807 9.735-.03 3.069-1.165 8.866-4.78 9.575-4.901.961-5.339-6.46-6.191-9.742m-50.976 5.152c-1.471 3.452-2.444 8.207-6.996 5.853-3.52-1.82-4.011-9.161-3.347-12.522.688-3.482 2.145-7.476 6.146-5.91 4.614 1.807 4.148 8.778 4.197 12.579m38.603-3.188c-4.339 13.153-12.253 4.254-9.248-5.566 3.142-10.264 8.849-.295 9.248 5.566m-21.141.651c-1.205 2.316-2.487 7.312-5.735 6.786-3.982-.646-4.11-8.309-3.673-11.163.381-2.498 1.503-6.661 4.836-6.607 4.816.078 4.493 7.986 4.572 10.984"/><path d="M929.91 533.806c-3.23 7.247-7.673 1.004-6.251-4.143 2.109-7.633 6.068-.87 6.251 4.143m-79.104 22.873l-10.583-.04c3.53-.665 7.06-.924 10.583.04m70.101-5.323l-9.177.059a15.99 15.99 0 0 1 9.177-.059m-34.914 2.856l-7.345.492 7.345-.492m-60.097-20.394l-.067-5.27c.905 1.748.842 3.504.067 5.27m19.195 29.92l4.248.038-4.248-.038m-23.846-1.258h4.305m7.487-5.649l-5.999.492 5.999-.492m27.04-.174l-5.924.012c1.974-.832 3.948-.856 5.924-.012m-16.719-25.376l-.143-5.494.143 5.494m-27.804-4.132l-.036 5.354.036-5.354m81.66 26.398l-5.235.473 5.235-.473"/><path d="M929.91 533.806l-.169-4.681.169 4.681m-74.269 29.984l3.633-.067-3.633.067"/><path d="M907.481 530.63l-.32-3.363.32 3.363m-42.982 0l-.235-3.454.235 3.454M237.863 192.1c-4.779-1.254-5.675-7.97-4.907-12.095l2.613-5.963-1.021-2.205c.437-4.094-.68-5.873 4.025-4.215 8.74 3.082 10.137 24.162-.71 24.478m70.741-12.985c3.937-.31 11.088 4.275 7.169 8.711-2.428 2.748-10.429 1.448-13.693 2.022-4.329.761-8.844 1.802-6.502-4.682 1.839-5.092 8.407-6.184 13.026-6.051"/><path d="M304.462 209.614c-3.999-3.207-2.214-17.814 3.872-15.186 6.261 2.705-.535 13.078-3.872 15.186m-71.506-29.609l-.004 4.605c-.834-1.54-.808-3.073.004-4.605"/><path d="M237.863 192.1l2.436-.068-2.436.068m493.782 420.667c-.374 6.644-7.509 1.732-7.003-2.713.919-8.066 5.48-.095 7.003 2.713"/></svg>