<svg width="2031" height="1024" viewBox="0 0 2031 1024" fill="none" xmlns="http://www.w3.org/2000/svg">
<path d="M-32.9999 -41.9999L-33 1023L-32 1023L-31.9999 -41.9999L-32.9999 -41.9999ZM614.111 -41.9999L614.111 1023L615.111 1023L615.111 -41.9999L614.111 -41.9999ZM290.556 -41.9999L290.556 1023L291.556 1023L291.556 -41.9999L290.556 -41.9999ZM937.667 -41.9999L937.667 1023L938.667 1023L938.667 -41.9999L937.667 -41.9999ZM1423 -40.9999V1024H1424V-40.9999H1423ZM1261.22 -41.9999V1023H1262.22V-41.9999H1261.22ZM1746.56 -40.9999V1024H1747.56V-40.9999H1746.56ZM1949 -40.9999V1024H1950V-40.9999H1949ZM128.778 -41.9999L128.778 1023L129.778 1023L129.778 -41.9999L128.778 -41.9999ZM775.889 -41.9999L775.889 1023L776.889 1023L776.889 -41.9999L775.889 -41.9999ZM452.333 -41.9999L452.333 1023L453.333 1023L453.333 -41.9999L452.333 -41.9999ZM1099.44 -41.9999V1023H1100.44V-41.9999H1099.44ZM1584.78 -40.9999V1024H1585.78V-40.9999H1584.78ZM1423 -41.9999V1023H1424V-41.9999H1423ZM1908.33 -40.9999V1024H1909.33V-40.9999H1908.33ZM7.44458 -41.9999L7.44452 1023L8.44452 1023L8.44458 -41.9999L7.44458 -41.9999ZM654.556 -41.9999L654.556 1023L655.556 1023L655.556 -41.9999L654.556 -41.9999ZM331 -41.9999L331 1023L332 1023L332 -41.9999L331 -41.9999ZM978.111 -41.9999L978.111 1023L979.111 1023L979.111 -41.9999L978.111 -41.9999ZM1463.44 -40.9999V1024H1464.44V-40.9999H1463.44ZM1301.67 -41.9999V1023H1302.67V-41.9999H1301.67ZM1787 -40.9999V1024H1788V-40.9999H1787ZM1989.44 -40.9999V1024H1990.44V-40.9999H1989.44ZM169.222 -41.9999L169.222 1023L170.222 1023L170.222 -41.9999L169.222 -41.9999ZM816.334 -41.9999L816.334 1023L817.334 1023L817.334 -41.9999L816.334 -41.9999ZM492.778 -41.9999L492.778 1023L493.778 1023L493.778 -41.9999L492.778 -41.9999ZM1139.89 -41.9999V1023H1140.89V-41.9999H1139.89ZM1625.22 -40.9999V1024H1626.22V-40.9999H1625.22ZM47.889 -41.9999L47.8889 1023L48.8889 1023L48.889 -41.9999L47.889 -41.9999ZM695 -41.9999L695 1023L696 1023L696 -41.9999L695 -41.9999ZM371.445 -41.9999L371.445 1023L372.445 1023L372.445 -41.9999L371.445 -41.9999ZM1018.56 -41.9999V1023H1019.56V-41.9999H1018.56ZM1503.89 -40.9999V1024H1504.89V-40.9999H1503.89ZM1342.11 -41.9999V1023H1343.11V-41.9999H1342.11ZM1827.44 -40.9999V1024H1828.44V-40.9999H1827.44ZM2029.89 -40.9999V1024H2030.89V-40.9999H2029.89ZM209.667 -41.9999L209.667 1023L210.667 1023L210.667 -41.9999L209.667 -41.9999ZM856.778 -41.9999L856.778 1023L857.778 1023L857.778 -41.9999L856.778 -41.9999ZM533.222 -41.9999L533.222 1023L534.222 1023L534.222 -41.9999L533.222 -41.9999ZM1180.33 -41.9999V1023H1181.33V-41.9999H1180.33ZM1665.67 -40.9999V1024H1666.67V-40.9999H1665.67ZM88.3334 -41.9999L88.3334 1023L89.3334 1023L89.3334 -41.9999L88.3334 -41.9999ZM735.445 -41.9999L735.445 1023L736.445 1023L736.445 -41.9999L735.445 -41.9999ZM411.889 -41.9999L411.889 1023L412.889 1023L412.889 -41.9999L411.889 -41.9999ZM1059 -41.9999V1023H1060V-41.9999H1059ZM1544.33 -40.9999V1024H1545.33V-40.9999H1544.33ZM1382.56 -41.9999V1023H1383.56V-41.9999H1382.56ZM1867.89 -40.9999V1024H1868.89V-40.9999H1867.89ZM250.111 -41.9999L250.111 1023L251.111 1023L251.111 -41.9999L250.111 -41.9999ZM897.222 -41.9999L897.222 1023L898.222 1023L898.222 -41.9999L897.222 -41.9999ZM573.667 -41.9999L573.667 1023L574.667 1023L574.667 -41.9999L573.667 -41.9999ZM1220.78 -41.9999V1023H1221.78V-41.9999H1220.78ZM1706.11 -40.9999V1024H1707.11V-40.9999H1706.11ZM2030 327L-33 327L-33 328L2030 328L2030 327ZM2030 -0.999878L-33 -0.999977L-33 2.28882e-05L2030 0.00012207L2030 -0.999878ZM2030 654L-33 654L-33 655L2030 655L2030 654ZM2030 982L-33 982L-33 983L2030 983L2030 982ZM2030 491L-33 491L-33 492L2030 492L2030 491ZM2030 163L-33 163L-33 164L2030 164L2030 163ZM2030 818L-33 818L-33 819L2030 819L2030 818ZM2030 368L-33 368L-33 369L2030 369L2030 368ZM2030 40.0001L-33 40L-33 41L2030 41.0001L2030 40.0001ZM2030 695L-33 695L-33 696L2030 696L2030 695ZM2030 1023L-17 1023L-17 1024L2030 1024L2030 1023ZM2030 531L-33 531L-33 532L2030 532L2030 531ZM2030 204L-33 204L-33 205L2030 205L2030 204ZM2030 859L-33 859L-33 860L2030 860L2030 859ZM2030 409L-33 409L-33 410L2030 410L2030 409ZM2030 81.0001L-33 81L-33 82L2030 82.0001L2030 81.0001ZM2030 736L-33 736L-33 737L2030 737L2030 736ZM2030 572L-33 572L-33 573L2030 573L2030 572ZM2030 245L-33 245L-33 246L2030 246L2030 245ZM2030 900L-33 900L-33 901L2030 901L2030 900ZM2030 450L-33 450L-33 451L2030 451L2030 450ZM2030 122L-33 122L-33 123L2030 123L2030 122ZM2030 777L-33 777L-33 778L2030 778L2030 777ZM2030 -41.9999L-33 -42L-33 -41L2030 -40.9999L2030 -41.9999ZM2030 613L-33 613L-33 614L2030 614L2030 613ZM2030 286L-33 286L-33 287L2030 287L2030 286ZM2030 941L-33 941L-33 942L2030 942L2030 941Z" fill="#AEAEAE" fill-opacity="0.29"/>
</svg>
