<svg width="267" height="216" viewBox="0 0 267 216" fill="none" xmlns="http://www.w3.org/2000/svg">
<path fill-rule="evenodd" clip-rule="evenodd" d="M133.58 141.619C129.474 141.566 125.369 141.513 121.263 141.459C122.784 142.452 124.305 143.445 125.826 144.437C136.569 151.448 147.312 158.459 158.055 165.469C155.495 167.177 152.936 168.884 150.376 170.592C147.817 172.299 145.257 174.007 142.698 175.714C143.604 176.674 144.511 177.635 145.417 178.595C146.324 179.556 147.23 180.516 148.137 181.476L146.454 182.435C145.319 183.081 144.184 183.727 143.049 184.373C141.688 185.148 140.326 185.923 138.965 186.698C137.217 187.693 135.468 188.689 133.72 189.684L130.414 191.567C130.349 191.604 130.277 191.651 130.202 191.7C129.977 191.848 129.72 192.017 129.515 191.999C129.226 191.972 128.77 191.609 128.411 191.323C128.263 191.206 128.132 191.102 128.035 191.039C126.984 190.354 125.935 189.668 124.887 188.979C121.662 186.861 118.448 184.726 115.247 182.571C107.399 177.288 99.5682 171.941 92.0554 166.187C88.5841 163.529 85.3618 160.773 82.6501 157.315C79.6665 153.509 77.2024 149.308 75.0362 144.992C73.2119 141.359 71.5969 137.618 70.1646 133.814C70.0261 133.446 69.8303 133.017 69.6207 132.557C69.0852 131.382 68.4597 130.009 68.4757 128.977C68.4837 128.446 68.8036 127.754 69.0871 127.142C69.2154 126.864 69.3366 126.602 69.4176 126.379C69.7253 125.532 70.0331 124.685 70.3409 123.838C70.6487 122.991 70.9567 122.144 71.2645 121.297C71.3663 121.017 71.5 120.714 71.6382 120.402C71.9274 119.747 72.2355 119.05 72.3088 118.423C72.3983 117.66 72.1741 116.704 71.9674 115.824C71.8714 115.415 71.779 115.022 71.7239 114.672C71.7025 114.537 71.6875 114.341 71.6702 114.118C71.619 113.452 71.5489 112.546 71.244 112.318C71.0495 112.173 70.4682 112.185 70.0354 112.194C69.8652 112.198 69.7183 112.201 69.6265 112.194C67.8848 112.06 66.1434 111.926 64.4021 111.791C63.5021 111.722 62.6018 111.653 61.7019 111.584L40.4513 109.948C39.8086 109.898 39.1399 109.877 38.4636 109.855C37.0879 109.81 35.6802 109.764 34.3973 109.482C32.9515 109.165 32.0477 108.005 31.6155 106.648C30.3182 102.574 29.0916 98.4363 28.3017 94.2303C27.5377 90.1652 28.2755 87.0022 29.9413 83.2409C31.3996 79.9486 33.1217 76.6836 35.08 73.6573C35.5551 72.9229 35.6284 72.9386 36.243 73.0698C36.3591 73.0945 36.4944 73.1233 36.6557 73.1521C40.8154 73.8939 44.9751 74.636 49.1348 75.378C56.1742 76.6339 63.2139 77.8895 70.2532 79.1451C77.2929 80.4007 84.3323 81.6566 91.372 82.9122C96.336 83.7977 101.3 84.6832 106.264 85.5683C106.487 85.6084 106.775 85.6327 107.087 85.6596C107.789 85.7194 108.607 85.7892 109.05 86.0655C109.285 86.2128 109.478 86.5672 109.646 86.8774C109.713 86.999 109.775 87.1136 109.835 87.2065L109.945 87.3778C110.827 88.7463 111.71 90.1146 112.592 91.4835C116.544 97.6135 120.587 103.685 124.629 109.756C125.864 111.61 127.099 113.464 128.331 115.32C131.748 120.467 135.165 125.614 138.582 130.762C141.021 134.434 143.459 138.107 145.897 141.779C141.791 141.726 137.686 141.673 133.58 141.619ZM167.013 126.093C177.961 126.066 189.251 125.565 199.965 123.211C208.127 121.419 216.323 117.724 223 112.647C221.6 117.985 219.644 124.662 215.51 128.53C214.06 129.887 212.162 130.81 210.375 131.679C210.226 131.751 210.077 131.824 209.929 131.896C207.118 133.27 204.234 134.498 201.332 135.666C200.911 135.835 200.487 136.006 200.063 136.178C195.323 138.093 190.378 140.091 185.369 141.009C183.854 141.286 183.082 141.014 181.82 140.104C179.799 138.646 177.961 136.907 176.152 135.194C176.065 135.112 175.979 135.03 175.892 134.948C172.856 132.076 169.903 129.111 167.013 126.093Z" fill="#DEF348"/>
<path fill-rule="evenodd" clip-rule="evenodd" d="M111.383 0.635919C114.014 1.8081 115.403 5.05128 116.784 7.39659C118.443 10.2111 119.945 13.1586 120.792 16.3278C121.66 19.5752 121.78 23.1357 121.395 26.4676C121.226 27.9335 120.829 29.2677 120.41 30.6702C119.961 32.1693 120.66 33.0267 121.723 34.0837C123.933 36.2794 126.715 37.9642 128.355 40.6693C129.744 42.9613 131.359 43.3855 133.979 43.4838C140.483 43.7278 146.858 43.5265 153.302 44.7702C154.938 45.0859 156.564 45.4725 158.174 45.9041C158.703 46.0457 159.256 46.2932 159.801 46.3429C160.587 46.4144 160.721 46.1021 161.307 45.8001C163.89 44.4716 167.167 45.7478 169.748 46.4766C176.264 48.3167 182.412 50.8215 188.317 54.1402C194.694 57.7241 201.493 60.506 207.811 64.1964C213.915 67.7614 219.398 72.2482 225.092 76.41C230.881 80.6429 236.373 85.2232 241.727 89.9923C246.902 94.6016 252.252 99.1257 256.881 104.298C261.101 109.013 264.435 114.595 266.671 120.527C267.418 122.506 266.958 123.754 264.625 123.1C264.418 125.103 262.924 125.94 261.031 125.512C261.612 127.192 262.94 129.468 262.18 131.277C261.17 133.681 258.275 131.931 256.855 130.994C257.01 132.927 257.832 136.064 256.235 137.624C253.76 140.04 249.584 136.96 247.831 135.154C243.364 130.552 240.508 124.857 236.542 119.893C231.627 113.739 226.091 107.938 220.534 102.367C220.096 101.927 215.15 96.6235 214.441 97.3443C216.599 100.916 218.324 104.847 221.341 107.814C222.773 105.803 223.81 106.794 224.079 108.813C224.402 111.239 224.762 113.795 224.315 116.227C223.434 121.014 220.411 125.567 217.234 129.152C213.911 132.901 209.785 135.756 205.358 138.054C202.852 139.355 200.338 140.574 197.643 141.428C196.436 141.811 195.226 142.255 193.986 142.521C192.794 142.776 191.505 142.758 190.401 143.336C200.286 148.053 211.222 150.04 221.131 154.636C223.522 155.745 228.325 158.627 225.898 161.868C224.021 164.375 219.755 164.463 216.955 164.964C219.015 166.907 218.708 168.711 216 169.769C214.912 170.194 213.778 170.391 212.618 170.422C211.831 170.442 210.47 170.162 209.833 170.781C212.288 171.905 215.635 171.837 217.653 173.812C219.712 175.827 217.253 177.449 215.413 178.226C212.993 179.248 209.666 180.326 207.204 179.093C205.258 178.119 203.462 178.33 201.31 178.074C199.092 177.81 196.899 177.336 194.759 176.697C186.61 174.267 179.106 169.77 171.91 165.346C164.721 160.926 158.015 155.905 151.815 150.175C150.285 148.761 149.011 147.079 147.448 145.71C145.802 144.27 144.08 144.141 141.975 144.164C137.19 144.219 132.414 143.368 127.631 143.929C134.505 149.107 141.769 153.668 149.001 158.319C151.752 160.089 154.645 162.449 157.88 163.221C159.299 163.559 162.344 163.784 162.815 165.533C163.16 166.809 162.068 167.023 161.414 167.716C160.466 168.719 161.8 169.054 162.778 169.469C164.01 169.993 165.135 170.162 166.477 170.023C168.532 169.811 170.144 169.882 172.058 170.761C175.067 172.143 178.296 172.887 181.312 174.238C182.562 174.798 182.89 176.466 183.493 177.599C184.441 179.379 185.536 181.074 186.611 182.779C188.637 185.993 190.385 189.298 193.26 191.862C195.78 194.109 198.585 196.099 201.322 198.074C205.595 201.16 211.032 204.975 209.658 211.028C208.3 217.012 202.095 216.369 197.367 215.3C195.377 214.85 192.657 213.593 190.651 214.184C188.92 214.694 187.728 214.77 185.932 214.363C183.849 213.89 181.753 213.583 179.643 213.257C175.221 212.573 170.761 211.446 166.535 209.967C164.508 209.258 162.815 208.312 161.218 206.863C160.744 206.433 160.399 205.823 159.769 205.828C159.233 205.833 158.403 206.784 157.988 207.114C156.679 208.156 155.23 209.027 153.735 207.787C152.781 206.995 151.932 205.273 153.312 204.458C154.37 203.833 156.302 204.549 157.06 203.367C157.855 202.129 156.079 200.334 155.523 199.328C153.845 200.466 151.376 202.769 149.43 200.863C147.871 199.337 149.605 198.411 151.043 197.922C152.82 197.318 154.876 197.396 153.971 195.021C153.456 193.672 152.633 192.463 152.5 190.991C152.4 189.871 152.723 188.794 152.731 187.684C152.745 185.699 150.61 183.99 148.75 183.52C147.614 183.233 147.277 184.203 146.579 184.946C145.554 186.039 144.244 186.857 142.939 187.569C140.797 188.739 138.549 189.667 136.304 190.61C134.817 191.236 132.187 192.055 133.249 193.949C134.803 196.723 131.161 195.395 129.847 194.766C126.792 193.302 123.707 191.904 120.69 190.36C114.502 187.193 108.809 183.281 103.344 179C97.9787 174.797 92.7403 170.333 87.8656 165.567C85.5044 163.257 83.2472 160.829 81.2367 158.206C79.0772 155.389 77.2589 152.334 75.0585 149.545C72.7755 146.651 70.5189 143.843 69.0481 140.428C67.6854 137.264 66.1386 133.733 66.114 130.257C66.0869 126.417 66.1022 122.968 67.3727 119.285C67.9027 117.748 68.5394 116.148 69.4633 114.804C69.7288 114.418 71.1227 113.097 70.8371 112.57C70.8531 112.6 67.6701 113.086 67.3373 113.118C65.2243 113.319 63.0986 112.957 60.9937 112.761C54.7695 112.18 48.4865 112.398 42.2853 111.544C39.9474 111.222 37.4107 111.56 35.1286 110.966C34.0506 110.686 33.7851 110.069 32.993 109.564C32.6314 109.334 32.2447 109.41 31.9083 109.09C31.5145 108.715 31.4293 108.173 31.2551 107.684C30.3242 105.072 28.7557 102.739 27.834 100.122C26.7978 97.1778 26.8447 94.127 26.9201 91.0497C25.3809 91.1721 23.7642 91.1823 22.3202 90.5597C21.1547 94.2204 16.1352 94.1544 13.0496 93.8766C9.19617 93.5299 4.67799 93.1672 2.72495 89.3018C0.429767 84.7588 0.58135 79.2437 0.303711 74.2857C-0.0224349 68.4631 -0.1153 62.5534 0.170955 56.7273C0.414447 51.772 1.54415 46.6281 4.7498 42.6953C7.5782 39.2254 12.4713 37.1945 16.3203 40.4326C19.2132 42.8669 20.4763 47.251 20.6655 50.9022C20.7619 52.7601 20.6751 54.4289 22.9635 53.9138C23.8434 53.7157 24.6431 53.3955 25.2919 54.2975C25.8641 55.092 25.6014 56.2406 24.877 56.8348C24.2206 57.3739 22.9434 57.2826 22.4938 58.0839C22.0483 58.8784 22.7529 60.151 23.5973 60.3127C24.5588 60.4968 25.2992 59.2621 26.2674 59.8349C27.1546 60.3603 26.6912 61.3417 26.0967 61.9165C25.3934 62.5971 24.7159 62.7391 25.2188 63.8162C25.6043 64.6426 26.3759 65.1928 26.7222 66.069C27.5768 68.2306 27.8589 71.3366 26.9086 73.5107C28.5578 73.6941 32.5453 75.6439 33.8425 74.0666C34.3132 73.4944 34.3694 72.654 34.8781 72.0703C35.4764 71.3832 36.3129 71.091 37.1984 70.9804C39.0918 70.7437 41.0289 71.3194 42.868 71.6904C45.9169 72.306 48.9844 72.845 52.0467 73.3888C58.2087 74.4832 64.4278 75.2449 70.5745 76.4205C76.708 77.594 82.7784 79.0778 88.8444 80.5555C92.0254 81.3303 95.1918 82.2011 98.3964 82.8722C101.391 83.4989 104.512 83.9611 107.3 85.287C106.749 81.8799 105.211 78.7489 104.252 75.4554C103.266 72.0677 102.989 68.6861 103.546 65.1976C104.056 62.0013 104.812 58.895 106.443 56.0703C107.103 54.9281 107.829 53.7903 108.779 52.8692C109.455 52.214 110.406 51.6693 110.941 50.8881C111.467 50.1172 111.355 49.9383 110.407 49.5833C109.879 49.3855 109.4 49.3259 108.9 49.049C108.44 48.7945 108.045 48.3323 107.504 48.2443C106.257 48.0408 104.434 49.249 103.291 49.6789C101.732 50.2655 100.12 50.7937 98.4558 50.9723C92.9927 51.5586 86.5138 48.3913 82.7685 44.5542C81.5185 43.2736 78.6499 40.329 79.8157 38.376C80.431 37.3451 81.531 37.59 82.4545 37.1218C83.9008 36.3885 82.9843 35.172 82.2915 34.2065C80.4042 31.5764 79.1385 28.5663 77.7873 25.6399C76.4119 22.6614 74.5265 19.9988 72.9807 17.1156C71.8711 15.0468 70.585 12.7328 70.075 10.4305C69.4521 7.61891 71.356 7.22148 73.6837 6.81864C81.0459 5.54407 88.2948 3.83158 95.591 2.2371C98.4995 1.60173 101.422 0.955835 104.349 0.413922C106.631 -0.00838125 109.192 -0.339461 111.383 0.635919ZM176.003 176.037C172.206 176.232 168.386 177.075 168.265 181.503C168.725 189.905 174.192 196.185 179.968 201.758C181.425 203.164 182.851 204.655 184.434 205.922C185.365 206.667 186.38 207.008 187.387 207.599C187.634 207.744 188.061 208.229 188.29 208.303C188.835 208.479 188.882 208.281 189.413 208.225C190.571 208.103 190.785 208.909 191.665 209.569C193.335 210.82 196.332 210.637 198.293 211.028C200.104 211.39 207.313 214 206.989 210.241C206.672 206.567 202.753 204.783 199.991 203.142C196.141 200.856 192.173 198.381 188.931 195.265C185.85 192.303 183.838 188.249 181.768 184.559C180.479 182.259 180.121 180.31 179.749 177.74C179.591 176.653 179.575 176.297 178.512 176.114C177.689 175.972 176.833 175.994 176.003 176.037ZM162.794 175.427C160.6 176.137 158.944 177.895 157.852 179.883C157.293 180.901 156.973 181.928 156.788 183.066C156.553 184.514 156.012 186.061 156.417 187.517C157.151 190.16 159.079 193.045 160.593 195.313C162.296 197.863 164.507 200.725 167.193 202.289C169.779 203.793 172.902 204.194 175.3 206.052C175.086 205.03 174.127 204.276 173.375 203.639C172.279 202.711 171.32 201.789 170.388 200.684C168.328 198.239 166.615 195.592 165.518 192.576C164.455 189.654 163.846 186.364 163.981 183.249C164.046 181.767 164.301 180.192 164.941 178.839C165.369 177.935 166.128 177.167 166.455 176.216C167.205 174.037 163.888 175.072 162.794 175.427ZM114.698 103.199C111.636 103.546 108.6 104.134 105.515 104.419C99.2801 104.994 92.8079 105.335 87.1575 108.311C78.9359 112.644 69.4674 122.257 72.3188 132.383C75.6872 144.345 82.8882 155.162 91.9041 163.627C97.6599 169.031 103.964 173.9 110.287 178.618C116.403 183.181 123.478 186.174 129.784 190.44C130.211 184.154 134.163 178.389 138.836 174.389C141.347 172.241 143.983 170.182 146.799 168.446C148.182 167.593 149.615 166.873 151.074 166.161C152.181 165.62 153.405 164.816 154.671 164.756C154.65 163.829 152.324 163.486 151.682 163.268C149.468 162.516 147.342 161.363 145.291 160.246C140.825 157.814 136.698 154.846 132.565 151.898C130.545 150.457 128.493 149.059 126.495 147.587C124.696 146.262 123.1 144.539 121.167 143.41C119.178 142.25 116.826 142.008 114.607 141.58C111.941 141.066 109.318 140.455 106.639 140.004C102.166 139.251 97.9436 136.618 93.8199 134.824C92.4336 134.221 90.3181 133.697 89.2599 132.555C88.3009 131.52 88.5514 129.921 89.7807 129.212C91.8949 127.992 95.4184 129.583 97.4174 130.37C101.115 131.826 104.788 133.129 108.712 133.875C114.087 134.897 119.196 136.81 124.578 137.811C130.383 138.891 136.201 140.072 142.103 140.47C140.657 137.606 138.259 135.227 136.392 132.636C134.25 129.665 132.111 126.691 129.987 123.706C126.244 118.443 122.07 113.155 119.225 107.338C118.249 105.344 117.289 102.904 114.698 103.199ZM142.494 179.878C141.642 180.015 140.999 180.866 140.42 181.429C138.627 183.171 136.871 184.896 135.411 186.939C137.671 185.985 139.513 184.323 141.691 183.231C142.475 182.837 145.247 181.959 144.688 180.862C144.374 180.246 143.121 179.778 142.494 179.878ZM152.862 172.862C150.65 174.37 148.347 175.719 146.015 177.031C147.651 177.652 149.284 178.509 150.627 179.636C151.241 180.151 152.503 181.659 153.391 181.28C154.216 180.927 154.664 178.887 155.064 178.15C156.087 176.265 157.518 174.484 159.056 172.997C156.745 171.45 155.196 171.27 152.862 172.862ZM134.192 90.7339C132.422 91.2263 130.665 91.7644 128.896 92.2607C125.365 93.2518 121.755 94.0801 118.067 94.0801C117.565 95.0032 119.003 96.5087 119.445 97.2126C120.604 99.061 121.594 101.043 122.645 102.957C124.874 107.013 127.305 110.911 129.928 114.723C132.578 118.574 134.972 122.608 137.686 126.412C140.312 130.095 143.202 133.672 146.047 137.188C157.133 150.888 172.583 160.336 187.769 168.823C192.026 171.202 196.46 173.298 201.174 174.597C203.12 175.133 205.105 175.587 207.085 175.987C208.416 176.255 210.63 176.857 211.855 175.996C208.008 174.473 202.968 173.885 199.861 170.938C197.938 169.113 200.047 167.752 202.008 167.413C205.803 166.757 209.736 168.409 213.46 167.337C212.465 165.511 209.603 165.598 207.862 165.13C205.661 164.537 205.58 163.425 207.675 162.669C210.255 161.739 213.228 162.243 215.916 162.072C217.228 161.989 222.726 161.769 221.066 159.251C219.758 157.269 216.576 156.713 214.494 155.982C211.572 154.957 208.734 153.356 205.758 152.562C202.847 151.784 199.881 151.307 196.971 150.486C193.933 149.63 190.942 148.678 188.055 147.393C182.489 144.915 177.329 141.552 172.629 137.69C167.786 133.711 163.541 129.151 159.634 124.26C157.579 121.688 155.623 119.04 153.624 116.425C151.692 113.899 149.508 111.492 147.962 108.704C146.253 105.62 144.037 102.806 142.267 99.7327C141.307 98.0674 140.275 96.434 139.38 94.733C138.745 93.5235 138.312 91.7501 137.452 90.6991C136.644 89.7113 135.23 90.4452 134.192 90.7339ZM52.4249 129.812C53.0181 130.354 52.9195 130.577 52.8052 131.265C52.5713 132.676 52.3132 134.06 52.2047 135.491C51.8326 140.386 52.5231 145.462 53.2862 150.296C54.0479 155.12 55.8791 159.577 58.7011 163.566C61.4354 167.432 64.7357 170.511 69.0838 172.408C69.8303 172.734 72.7863 173.929 72.5952 175.031C72.4515 175.86 70.9169 175.391 70.3651 175.273C62.5494 173.599 55.9257 166.535 51.9758 159.959C50.3406 157.237 49.2888 154.469 48.3857 151.461C48.2536 151.021 46.3608 144.796 47 144.718C46.4483 140.407 46.2833 135.166 48.3215 131.176C49.083 129.686 50.8672 128.39 52.4249 129.812ZM38.789 130.739C38.0757 133.988 38.3115 137.304 38.4689 140.596C38.4976 141.195 38.8403 143.043 37.8482 143.008C37.1471 142.983 36.5883 141.194 36.4163 140.735C35.3743 137.95 35.0041 134.813 35.5246 131.877C35.689 130.947 35.9373 129.82 36.9597 129.497C37.8491 129.216 38.8678 129.718 38.789 130.739ZM221.431 115.736C220.991 115.948 220.798 116.352 220.666 116.795C217.228 119.725 213.183 122.56 209.163 124.627C205.571 126.473 201.413 127.252 197.493 128.087C188.528 129.997 179.602 130.768 170.661 128.296C174.315 131.666 177.628 136.143 182.234 138.29C184.522 139.356 187.055 138.713 189.362 138.037C192.193 137.208 195.042 136.361 197.781 135.262C202.958 133.186 208.495 130.888 212.847 127.329C214.777 125.751 216.35 123.8 217.735 121.74C218.528 120.559 219.199 119.297 220.002 118.125C220.464 117.449 221.477 116.617 221.431 115.736ZM183.234 55.8157C183.102 57.4823 182.12 58.8822 181.254 60.2506C180.665 61.181 179.518 62.3031 180.062 63.3585C180.708 64.6111 182.767 65.4113 183.834 66.2681C185.414 67.5366 186.894 68.9224 188.349 70.3306C190.959 72.8578 193.662 75.3074 196.217 77.8884C198.644 80.3406 201 82.839 204.062 84.511C210.784 88.1819 216.702 93.3111 222.576 98.1883C228.564 103.161 234.479 108.387 239.676 114.196C242.457 117.304 244.768 120.716 246.75 124.378C247.77 126.263 248.862 128.105 249.884 129.989C250.335 130.822 250.846 131.631 251.257 132.486C251.562 133.121 251.761 134.149 252.325 134.62C253.442 132.143 251.7 128.867 250.69 126.636C249.999 125.111 249.322 123.58 248.641 122.05C248.162 120.978 247.168 119.683 247.114 118.486C246.981 115.575 250.731 117.669 251.759 118.602C254.304 120.911 255.772 124.383 257.574 127.248C257.998 124.967 253.454 121.445 255.335 119.457C256.827 117.88 259.577 121.573 260.412 122.574C260.985 119.753 259.517 116.994 257.984 114.737C256.275 112.221 254.299 109.829 252.275 107.563C247.543 102.267 242.136 97.5536 236.786 92.8977C231.464 88.2658 225.985 83.8223 220.529 79.3502C215.231 75.0076 209.853 70.6652 203.931 67.1886C200.61 65.2391 197.127 63.6082 193.738 61.7886C190.188 59.8831 186.822 57.6513 183.234 55.8157ZM136.951 49.3916C136.796 49.4302 135.9 49.5376 135.833 49.6164C135.541 49.9603 135.93 51.0722 136.275 51.2718C135.087 52.1595 133.752 52.9674 132.242 53.1055C133.192 54.0372 134.997 55.6671 134.716 57.1697C134.33 59.2369 131.845 57.7872 130.838 57.1617C129.223 56.1573 127.572 55.092 126.39 53.5776C125.639 52.6166 125.383 51.5975 124.821 50.5625C124.516 50.0001 124.694 49.8984 124.018 49.8595C123.245 49.8158 121.924 50.5478 121.208 50.8387C120.103 51.2884 119.025 51.8074 117.985 52.3936C116.067 53.4758 114.272 54.789 112.699 56.3318C109.442 59.5252 107.236 63.7208 106.957 68.3148C109.268 68.0408 111.529 67.0447 113.477 65.8021C114.864 64.9173 116.279 63.8774 116.524 66.3743C116.619 67.3468 116.347 69.6114 115.763 70.3638C115.218 71.0665 114.982 70.4968 114.416 70.9182C113.761 71.4062 114.107 72.1085 114.107 72.7936C113.791 72.5289 113.476 72.2645 113.161 71.9998C112.59 72.7449 113.236 72.3458 113.451 72.7965C113.577 73.0593 112.717 73.8159 112.546 73.9499C112.191 74.2274 111.994 73.9977 111.588 74.3964C111.327 74.6529 111.046 75.2283 110.763 75.5485C109.299 77.2033 111.237 79.7964 112.003 81.551C112.57 82.8505 113.189 84.1241 113.779 85.4124C114.211 86.3552 114.444 87.4744 115.018 88.3433C116.157 90.0679 118.766 89.1257 120.469 88.9145C122.779 88.6278 125.048 88.3343 127.361 88.1171C128.716 87.9899 130.248 87.2014 128.507 86.181C126.779 85.1687 120.811 84.977 120.772 82.3727C120.731 79.6041 124.58 79.1438 126.51 79.3818C129.333 79.7294 131.158 80.4417 133.089 82.5714C132.656 78.5101 129.773 75.1511 129.13 71.0764C128.955 69.9696 128.418 63.1477 131.079 66.0949C132.505 67.6734 133.633 70.0624 134.687 71.8878C136.281 74.6513 137.671 77.5229 139.134 80.3556C140.531 83.0591 142.577 85.6567 143.555 88.5327C144.105 90.1505 144.873 93.5506 146.62 94.3761C147.74 94.9052 149.629 94.2128 150.785 94.0441C151.499 93.9398 152.196 93.8377 152.809 93.4256C153.126 93.2122 153.439 92.6591 153.84 92.5972C154.994 92.4189 155.291 94.1809 155.213 94.992C155.092 96.243 154.517 96.5673 153.349 96.7128C155.317 97.6764 152.285 100.691 151.754 101.892C151.726 101.831 151.38 100.986 151.124 100.987C150.614 100.989 152.686 105.067 152.843 105.35C153.93 107.319 155.295 109.088 156.615 110.902C157.374 111.945 158.466 114.412 160.009 114.178C160.864 114.05 162.64 112.29 163.312 113.496C163.918 114.584 162.046 115.752 161.764 116.617C161.292 118.067 163.07 119.593 164.118 120.354C166.895 122.37 170.495 122.846 173.782 123.454C173.154 122.608 171.786 122.147 171.759 120.936C171.74 120.112 172.323 119.662 171.929 118.765C171.605 118.027 170.792 117.598 170.55 116.807C170.284 115.934 170.704 114.943 171.184 114.222C173.218 111.166 177.761 112.438 180.425 113.826C180.228 113.912 180.065 114.037 179.935 114.201L179.904 114.243L179.911 114.238C180.253 114.028 181.735 114.684 181.92 114.817C182.503 115.238 183.291 116.218 183.694 116.824C184.991 118.779 185.177 121.161 184.503 123.376C192.627 123.376 200.28 121.212 207.551 117.762C209.211 116.975 210.842 116.47 212.415 115.479C214.031 114.461 215.566 113.331 217.153 112.272C218.644 111.276 218.509 110.678 217.511 109.263C216.295 107.541 215.224 105.705 213.874 104.08C213.667 104.53 213.586 105.431 213.143 105.707C212.654 106.013 212.204 105.406 211.874 105.635C211.904 105.615 210.861 107.234 210.693 106.831C211.128 107.874 209.388 107.208 209.08 107.015C209.151 107.992 208.338 108.834 207.882 107.527C206.641 108.662 203.7 107.623 205.286 105.874C206.069 105.01 206.922 104.551 207.414 103.423C207.965 102.162 208.158 100.733 208.227 99.3691C208.39 96.153 206.649 94.6513 204.466 92.566C203.248 91.4015 201.975 90.2963 200.721 89.1703C199.619 88.1809 198.665 86.9555 197.509 86.0382C196.678 85.3795 196.015 85.19 195.209 85.7619C194.877 85.9976 194.769 86.2971 194.342 86.5242C193.795 86.8155 192.984 86.9957 192.374 87.0716C189.306 87.4534 185.756 86.4024 182.945 85.2701C182.175 84.9601 181.807 84.4555 181.14 84.0718C180.719 83.829 180.36 83.9761 179.913 83.6861C178.744 82.9286 178.803 81.7127 179.653 80.7661C181.643 78.5477 184.502 80.5431 186.536 78.7518C189.071 76.5197 184.845 73.4335 183.138 72.0674C181.772 70.9737 180.598 70.737 178.929 70.4499C178.579 70.3896 176.259 69.7205 177.071 70.6825C175.269 70.6359 174.383 70.6432 172.932 71.7676C172.551 72.0623 172.045 72.341 171.94 72.844C171.885 73.1094 172.432 73.1627 172.433 73.1601C172.36 73.3384 171.809 73.6622 171.73 73.7189C172.658 73.829 172.417 75.6496 172.178 75.6598L172.163 75.6582L172.191 75.6818C172.596 76.0652 171.682 76.6559 171.371 76.7551C170.491 77.0368 169.655 76.4247 169.067 75.8132C167.749 74.4446 166.792 72.1162 166.876 70.219C166.995 67.5563 168.744 66.0126 170.187 64.0165C171.267 62.5231 169.662 61.7289 168.546 60.7918C167.178 59.6458 165.319 58.2366 164.87 56.4109C164.46 54.7479 165.595 54.1788 167.05 54.679C169.016 55.3545 170.606 57.0932 172.349 58.1811C173.895 59.1466 175.846 61.1181 177.736 61.2307C177.389 59.9979 175.673 60.1287 175.008 59.213C174.132 58.0032 175.494 57.4638 176.525 57.6025C177.325 57.71 179.607 59.4031 179.548 57.451C179.516 56.4052 177.771 56.055 177.011 55.7526C173.15 54.2165 169.195 53.1687 165.1 52.4571C163.773 52.2268 163.433 52.3882 162.792 53.5859C162.574 53.9926 161.792 55.8636 161.363 54.6231C160.802 55.6397 160.639 56.7229 159.419 57.1318C157.867 57.6517 155.871 56.882 154.441 56.2852C153.214 55.773 152.047 55.0547 151.26 53.9594C150.868 53.4149 150.582 52.8105 150.397 52.1662C150.24 51.6192 150.315 50.7226 150.031 50.2256C149.556 49.3947 148.425 49.574 147.551 49.4911C145.601 49.3058 143.676 49.1383 141.716 49.1153C140.088 49.0965 138.533 48.9976 136.951 49.3916ZM179.343 122.398C178.719 122.622 179.827 123.368 180.193 123.28C180.043 123.038 179.794 122.237 179.343 122.398ZM179.904 114.243L179.887 114.256C179.866 114.275 179.851 114.3 179.845 114.331C179.859 114.308 179.874 114.286 179.889 114.264L179.904 114.243ZM192.378 94.6482C192.942 95.1221 192.714 96.2197 193.101 96.894C194.135 98.6993 195.999 100.48 197.756 101.571C199.647 102.745 200.543 104.268 201.006 106.395C201.102 106.835 201.391 107.445 201.25 107.9C201.118 108.325 200.64 108.466 200.493 108.845C200.426 109.019 200.708 110.359 200.673 110.363C200.51 110.383 200.034 109.708 200.037 109.712C199.849 110.18 199.914 110.711 199.406 110.961L199.344 110.989L199.352 110.995C199.478 111.093 200.057 111.572 199.919 111.678C199.726 111.825 199.256 111.724 199.016 111.81C198.637 111.945 198.364 112.282 198 112.439C197.022 112.86 195.895 112.73 194.863 112.582C192.69 112.27 190.244 111.493 188.673 109.884C186.77 107.934 187.222 105.915 187.05 103.728C186.858 101.276 188.628 97.5574 190.05 95.6557C190.535 95.0063 191.507 93.9187 192.378 94.6482ZM36.0531 75.5641C35.9302 75.8544 36.0528 76.3073 35.9807 76.626C35.8351 77.2715 35.4605 77.8367 35.0999 78.3786C34.4249 79.3929 33.7458 80.3224 33.2853 81.4668C32.1547 84.2759 31.106 87.3035 30.5645 90.2819C29.4028 96.6764 33.2812 101.95 33.4924 108.178C35.2735 106.304 37.9819 106.215 40.3951 106.209C43.6065 106.202 46.7882 106.337 49.9874 106.618C56.1076 107.156 62.364 107.374 68.1644 109.61C68.803 109.856 69.282 109.963 69.9231 110.097C70.6274 110.245 70.2544 109.915 70.7694 110.332C70.9079 110.444 70.9632 110.849 71.108 110.991C71.8573 111.723 72.306 111.225 72.9408 110.44C74.687 108.276 76.4294 106.31 78.6761 104.629C83.462 101.046 88.8227 99.3924 94.7223 98.8597C98.1038 98.5545 101.405 98.3784 104.802 98.4112C108.044 98.4425 111.468 98.5018 114.54 99.6616C113.776 97.4761 112.471 95.5176 111.419 93.4674C110.908 92.4719 110.434 91.4254 109.784 90.5093C109.213 89.704 108.351 89.0459 107.956 88.1264C107.885 88.3111 107.815 88.4957 107.744 88.6801C101.506 86.8942 95.0734 85.9323 88.6778 84.9109C82.2535 83.8849 75.909 82.4629 69.4984 81.3692C66.2797 80.82 63.0492 80.4898 59.8072 80.1218C56.6865 79.7677 53.6777 79.0753 50.6007 78.4868C47.4845 77.8906 44.4515 77.1685 41.3873 76.3475C40.1025 76.0033 38.8863 75.5284 37.636 75.1141C36.6387 74.784 36.4121 74.7132 36.0531 75.5641ZM173.997 86.9013C174.184 87.6658 173.588 88.652 173.397 89.378C173.181 90.2012 172.711 90.531 172.467 91.2796C172.254 91.93 172.637 95.3779 170.974 94.3483C171.025 94.5958 171.299 94.9352 171.327 95.1559C171.362 95.4306 171.095 95.851 171.173 96.0879C171.242 96.3013 171.973 96.9262 172.15 97.2824C172.849 98.682 173.343 100.293 173.687 101.818C174.046 103.407 174.482 105.609 173.165 106.706C172.848 106.97 172.572 107.041 172.247 107.357C172.209 107.65 172.076 107.892 171.846 108.083C171.721 108.119 171.619 108.088 171.544 107.99C171.142 108.207 171.276 107.293 170.804 108.181C170.69 108.396 170.896 109.131 170.794 109.055C170.609 108.919 170.051 108.337 169.87 108.326C169.465 108.877 169.474 108.316 169.047 108.394C169.03 108.623 168.906 108.748 168.675 108.771C168.494 108.73 168.315 108.688 168.135 108.647C167.045 108.653 165.437 108.196 164.391 107.908C162.395 107.357 160.97 105.984 160.537 103.904C159.636 99.5713 163.282 94.155 165.888 91.0047C166.779 89.9285 173.032 82.943 173.997 86.9013ZM191.405 100.86C191.377 101.224 191.49 101.767 191.081 101.808C191.099 101.397 190.926 100.871 191.405 100.86ZM163.003 100.243C163.189 101.292 163.232 100.693 162.81 101.414C162.668 100.989 162.732 100.599 163.003 100.243ZM193.227 98.89C193.389 99.0916 194.01 99.6357 193.476 99.7751C193.008 99.8966 193.208 99.1385 193.227 98.89ZM170.739 91.6177C170.526 92.7465 171.167 92.4764 172.048 92.2713C171.612 92.0534 171.175 91.8356 170.739 91.6177ZM7.4263 46.0798C3.20555 49.6997 3.07822 56.0294 3.21129 61.1245C3.39224 68.0475 3.81252 74.9897 4.48205 81.8821C4.78458 84.9964 5.67334 86.5823 8.74907 87.6259C12.0811 88.7563 15.6699 88.5375 19.1261 88.3369C18.4652 83.2013 17.1717 76.4448 22.3259 73.0268C22.7976 72.7142 23.2291 72.4833 23.8032 72.4536C24.1823 72.4342 24.7261 72.7777 25.086 72.602C25.814 72.2463 25.3975 71.239 25.1591 70.6691C24.4344 68.9365 23.0513 67.55 21.9293 66.0799C20.52 64.2344 19.3092 64.2841 17.2049 64.5119C16.3659 64.6031 13.0656 64.9788 13.7153 63.1885C14.1873 61.8868 16.7802 62.2128 17.8307 61.9114C18.6269 61.6827 18.7894 61.5819 18.7552 60.7685C18.7013 59.4975 17.9721 59.1524 16.8408 59.1871C15.3856 59.2315 12.8661 60.0046 11.6544 58.8608C9.92409 57.2271 12.4902 56.0833 13.7912 55.8613C15.1533 55.6291 16.9748 55.8406 17.2892 54.1555C17.5885 52.5483 16.7403 50.6033 16.0775 49.1881C15.436 47.8191 14.5594 46.0744 13.221 45.2524C11.3324 44.093 9.00246 44.7277 7.4263 46.0798ZM23.8083 76.3229C22.0939 76.7073 21.1075 78.9384 20.9084 80.4984C20.7159 82.0074 20.8471 84.1611 21.9541 85.3208C23.4071 86.8426 25.94 86.7402 27.5037 88.1685C28.1966 84.7314 29.4775 81.4238 31.1603 78.3525C29.8314 77.9866 28.5364 77.5136 27.2261 77.0891C26.2674 76.7787 24.8378 76.092 23.8083 76.3229ZM133.853 83.7276C134.237 84.0561 134.359 84.156 134.458 84.6717C133.546 84.7295 133.82 84.4363 133.853 83.7276ZM142.905 59.2793C144.332 59.3163 144.999 59.7779 146.143 60.4611C146.959 60.9481 147.949 60.4241 147.949 61.6613C150.277 59.8321 154.62 64.5552 156.252 65.7925C157.974 67.0974 159.67 68.6335 159.86 70.9622C159.917 71.6518 159.774 72.3586 159.877 73.0453C159.956 73.5627 160.283 74.0797 160.228 74.6162C160.162 75.2382 159.636 75.6018 159.514 76.1864C159.466 76.418 159.63 76.883 159.529 77.0703C158.485 78.9831 157.147 80.5524 154.857 80.7415C152.862 80.9064 150.658 80.1948 149.204 78.8035C147.914 77.5694 147.145 75.7201 146.811 73.9907C146.753 73.6915 146.863 73.0061 146.764 72.7531C146.621 72.3844 146.405 72.3781 146.228 72.0798C145.756 71.2888 145.08 69.798 145.691 68.9288C144.183 69.2691 143.037 66.0394 142.474 65.0975C142.052 64.3923 141.034 63.8401 140.752 63.154C140.365 62.2131 141.757 61.8093 141.274 61.1539C141.016 60.803 139.631 61.0419 139.767 60.1628C139.893 59.3498 142.36 59.265 142.905 59.2793ZM172.122 75.6273C172.135 75.6445 172.149 75.6547 172.163 75.6586V75.6582L172.159 75.6541L172.122 75.6273ZM168.14 68.5847C168.271 68.4724 168.972 67.7633 169.054 68.295C169.121 68.7307 168.35 68.5847 168.14 68.5847ZM102.743 13.3509C101.222 13.4438 99.866 15.0848 98.7331 15.9463C97.0414 17.2324 95.0424 18.1765 93.0489 18.8904C90.7282 19.7206 88.3427 20.4597 85.9601 21.0896C83.5434 21.7288 81.0261 21.8596 78.617 22.5237C79.809 24.7041 81.0012 26.8848 82.1935 29.0655C82.7162 28.3463 82.5375 27.5342 83.3979 27.0172C83.9949 26.6583 84.8591 26.6092 85.5341 26.4765C87.4131 26.1068 89.475 25.7796 91.3824 26.162C92.6129 26.4089 93.9823 27.3559 92.8168 28.6783C92.0813 29.5127 90.4981 29.2984 90.3688 30.6236C90.245 31.8934 91.5423 32.9843 91.242 34.3194C90.8198 36.1962 88.9436 35.6342 88.1094 34.4209C87.3655 33.3389 87.6477 31.415 86.4991 30.6348C85.814 30.1694 83.9825 30.0017 83.2447 30.4C84.6006 32.9013 87.236 35.9854 85.6901 38.9756C85.215 39.8942 84.1772 40.2444 84.8729 41.1471C85.6751 42.1882 87.9901 43.0459 89.2225 42.7272C90.3765 42.429 91.6986 41.1295 92.9965 41.7726C94.222 42.3795 93.3536 43.4101 93.4618 44.3635C93.7879 47.2351 99.6803 45.5972 101.28 45.2161C102.885 44.8339 104.559 43.9093 106.216 43.8713C107.778 43.8353 109.229 44.588 110.467 45.4696C111.394 46.1299 112.937 48.0615 114.113 48.1259C115.293 48.1907 116.965 46.4447 118.007 45.9162C119.875 44.9676 121.917 44.6933 123.897 44.0611C124.211 43.9609 125.584 43.6787 125.609 43.2203C125.632 42.7798 124.009 41.8163 123.734 41.6058C121.215 39.6834 119.37 37.0331 116.75 35.2329C115.581 34.4301 114.319 33.8643 112.954 33.5029C112.197 33.3026 110.134 33.0324 110.08 31.9527C113.714 31.3442 113.805 26.8121 112.272 24.2422C111.297 22.6079 109.785 21.8306 107.874 22.182C105.106 22.6917 104.6 24.7168 103.966 27.1199C101.704 25.89 99.2386 22.878 99.1042 20.2239C98.9552 17.2733 102.125 16.0044 102.743 13.3509ZM170.268 33.1814C174.081 33.8885 177.812 34.831 181.484 36.0836C183.746 36.8552 187.037 37.5186 188.993 38.966C189.564 39.389 190.284 40.3191 189.763 41.0622C189.314 41.703 188.214 41.5305 187.564 41.4306C184.612 40.9768 181.719 39.7417 178.798 39.0758C171.035 37.3062 163.071 36.4746 155.139 35.9082C152.952 35.7522 150.763 35.6173 148.576 35.4635C146.754 35.336 144.752 35.3937 142.969 34.9816C141.562 34.6566 141.212 33.6235 142.265 32.4602C143.292 31.3266 145.015 31.5033 146.39 31.2963C154.395 30.7739 162.406 31.7234 170.268 33.1814ZM157.001 23.9223C159.596 24.816 156.563 25.2421 155.428 25.1484C155.043 25.1168 149.967 24.6135 149.967 24.7694C148.954 24.7694 146.273 25.5439 145.546 24.52C144.764 23.4206 148.11 23.0346 148.786 22.9858C151.386 22.7986 154.502 23.0621 157.001 23.9223Z" fill="black"/>
</svg>
