<svg width="131" height="44" viewBox="0 0 131 44" fill="none" xmlns="http://www.w3.org/2000/svg">
<rect width="131" height="44" rx="6" fill="#242424"/>
<path d="M16.3169 33V11.9376H23.8091C25.4239 11.9376 26.7879 12.1783 27.9012 12.6597C29.0145 13.1411 29.857 13.8833 30.4287 14.8863C31.0104 15.8893 31.3013 17.1731 31.3013 18.7377C31.3013 20.3224 31.0154 21.6313 30.4437 22.6644C29.872 23.6874 29.0346 24.4497 27.9313 24.9511C26.828 25.4426 25.484 25.6883 23.8993 25.6883H20.1683V33H16.3169ZM20.1683 22.4688H23.448C24.7619 22.4688 25.7448 22.1729 26.3967 21.5812C27.0587 20.9894 27.3897 20.0616 27.3897 18.7979C27.3897 17.5342 27.0537 16.6114 26.3817 16.0297C25.7197 15.448 24.7118 15.1571 23.3577 15.1571H20.1683V22.4688ZM33.4343 33V17.9554H36.9247L37.0149 19.5501C37.3961 19.1289 37.9327 18.7076 38.6247 18.2864C39.3168 17.8651 40.074 17.6545 40.8964 17.6545C41.1372 17.6545 41.3578 17.6746 41.5584 17.7147L41.2876 21.3856C41.0669 21.3254 40.8463 21.2853 40.6256 21.2652C40.415 21.2452 40.2044 21.2351 39.9938 21.2351C39.3619 21.2351 38.7852 21.3806 38.2636 21.6714C37.7421 21.9623 37.376 22.3183 37.1654 22.7396V33H33.4343ZM49.9319 33.3009C48.297 33.3009 46.9029 32.9448 45.7495 32.2327C44.5961 31.5206 43.7135 30.5728 43.1016 29.3893C42.4999 28.2058 42.199 26.912 42.199 25.5078C42.199 24.0936 42.4999 22.7897 43.1016 21.5962C43.7135 20.4027 44.5961 19.4498 45.7495 18.7377C46.9029 18.0156 48.297 17.6545 49.9319 17.6545C51.5667 17.6545 52.9609 18.0156 54.1143 18.7377C55.2677 19.4498 56.1453 20.4027 56.7471 21.5962C57.3589 22.7897 57.6648 24.0936 57.6648 25.5078C57.6648 26.912 57.3589 28.2058 56.7471 29.3893C56.1453 30.5728 55.2677 31.5206 54.1143 32.2327C52.9609 32.9448 51.5667 33.3009 49.9319 33.3009ZM49.9319 30.2318C51.1856 30.2318 52.1485 29.7955 52.8205 28.9229C53.5025 28.0403 53.8435 26.9019 53.8435 25.5078C53.8435 24.0936 53.5025 22.9452 52.8205 22.0626C52.1485 21.1699 51.1856 20.7236 49.9319 20.7236C48.6882 20.7236 47.7254 21.1699 47.0433 22.0626C46.3613 22.9452 46.0203 24.0936 46.0203 25.5078C46.0203 26.9019 46.3613 28.0403 47.0433 28.9229C47.7254 29.7955 48.6882 30.2318 49.9319 30.2318ZM84.9675 33.3009C83.1521 33.3009 81.6376 32.9398 80.424 32.2177C79.2204 31.4855 78.3178 30.5227 77.716 29.3291C77.1142 28.1256 76.8133 26.8117 76.8133 25.3874C76.8133 24.0134 77.0941 22.7446 77.6558 21.5812C78.2275 20.4177 79.06 19.4849 80.1532 18.7829C81.2464 18.0707 82.5804 17.7147 84.1551 17.7147C85.5993 17.7147 86.8029 18.0106 87.7658 18.6023C88.7286 19.1941 89.4508 19.9864 89.9322 20.9794C90.4136 21.9623 90.6543 23.0505 90.6543 24.244C90.6543 24.575 90.6343 24.911 90.5941 25.252C90.554 25.583 90.4938 25.929 90.4136 26.2901H80.6948C80.8352 27.2229 81.1261 27.9801 81.5674 28.5618C82.0187 29.1335 82.5653 29.5548 83.2072 29.8256C83.8592 30.0964 84.5562 30.2318 85.2984 30.2318C86.171 30.2318 86.9834 30.1215 87.7357 29.9008C88.4879 29.6701 89.1799 29.3692 89.8118 28.9981L89.9924 32.1575C89.4207 32.4584 88.7086 32.7242 87.856 32.9549C87.0035 33.1855 86.0406 33.3009 84.9675 33.3009ZM80.7851 23.7626H86.8631C86.8631 23.3113 86.7778 22.8599 86.6073 22.4086C86.4368 21.9472 86.151 21.5611 85.7498 21.2502C85.3586 20.9393 84.827 20.7838 84.1551 20.7838C83.1922 20.7838 82.435 21.0646 81.8833 21.6263C81.3317 22.188 80.9656 22.9001 80.7851 23.7626ZM93.2013 33V17.9554H96.6917L96.7819 19.5501C97.1631 19.1289 97.6997 18.7076 98.3917 18.2864C99.0838 17.8651 99.841 17.6545 100.663 17.6545C100.904 17.6545 101.125 17.6746 101.325 17.7147L101.055 21.3856C100.834 21.3254 100.613 21.2853 100.393 21.2652C100.182 21.2452 99.9714 21.2351 99.7608 21.2351C99.1289 21.2351 98.5522 21.3806 98.0306 21.6714C97.5091 21.9623 97.143 22.3183 96.9324 22.7396V33H93.2013ZM107.255 33L101.478 17.9554H105.149L108.85 28.3663L112.551 17.9554H116.222L110.445 33H107.255Z" fill="white"/>
<path d="M66.9417 33.4212C66.0892 33.4212 65.2116 33.336 64.3089 33.1655C63.4062 33.005 62.5687 32.8094 61.7964 32.5788C61.0241 32.338 60.4123 32.1074 59.961 31.8867L60.4123 27.7946C61.1144 28.1356 61.8466 28.4515 62.6088 28.7424C63.3711 29.0332 64.1534 29.2689 64.9558 29.4495C65.7582 29.63 66.5706 29.7203 67.393 29.7203C68.4161 29.7203 69.2385 29.5197 69.8603 29.1185C70.4822 28.7173 70.7931 28.1055 70.7931 27.2831C70.7931 26.6512 70.6176 26.1447 70.2665 25.7636C69.9155 25.3724 69.3789 25.0264 68.6568 24.7255C67.9346 24.4146 67.0119 24.0635 65.8886 23.6724C64.7652 23.2812 63.7572 22.8399 62.8646 22.3484C61.972 21.8469 61.2649 21.2151 60.7433 20.4528C60.2218 19.6905 59.961 18.7177 59.961 17.5342C59.961 16.3707 60.2468 15.3376 60.8185 14.435C61.3902 13.5223 62.2428 12.8102 63.3761 12.2986C64.5195 11.7771 65.9387 11.5163 67.6337 11.5163C68.9175 11.5163 70.1412 11.6618 71.3046 11.9526C72.4681 12.2334 73.461 12.5394 74.2835 12.8703L73.8923 16.812C72.7088 16.2804 71.5955 15.8793 70.5524 15.6085C69.5193 15.3276 68.4662 15.1872 67.393 15.1872C66.2697 15.1872 65.4021 15.3728 64.7903 15.7439C64.1785 16.115 63.8726 16.6716 63.8726 17.4138C63.8726 18.0056 64.0431 18.482 64.3841 18.843C64.7251 19.2041 65.2116 19.515 65.8434 19.7758C66.4753 20.0265 67.2326 20.2923 68.1152 20.5732C69.6397 21.0546 70.9185 21.5862 71.9515 22.1679C72.9946 22.7396 73.7769 23.4367 74.2985 24.2591C74.8301 25.0715 75.0959 26.0795 75.0959 27.2831C75.0959 27.8848 75.0006 28.5418 74.81 29.2539C74.6194 29.956 74.2433 30.623 73.6817 31.2548C73.12 31.8867 72.2976 32.4082 71.2144 32.8195C70.1412 33.2207 68.717 33.4212 66.9417 33.4212Z" fill="#DEF348"/>
</svg>
