<svg width="38" height="38" viewBox="0 0 38 38" fill="none" xmlns="http://www.w3.org/2000/svg">
<circle cx="19.5" cy="19.5" r="18.5" transform="rotate(90 19.5 19.5)" fill="black"/>
<circle cx="18.5" cy="18.5" r="18" transform="rotate(90 18.5 18.5)" fill="#DEF348" stroke="black"/>
<path fill-rule="evenodd" clip-rule="evenodd" d="M18.7739 8.09958C18.6675 7.98543 18.5233 7.92129 18.3728 7.92129C18.2224 7.92129 18.0781 7.98543 17.9717 8.09958L13.1583 13.2647C13.052 13.3789 12.9922 13.5337 12.9922 13.6952C12.9922 13.8566 13.052 14.0114 13.1583 14.1256C13.2647 14.2398 13.409 14.3039 13.5595 14.3039C13.7099 14.3039 13.8542 14.2398 13.9606 14.1256L17.8056 9.9995L17.8048 27.4689C17.8048 27.6305 17.8647 27.7856 17.9712 27.8999C18.0777 28.0142 18.2222 28.0784 18.3728 28.0784C18.5234 28.0784 18.6679 28.0142 18.7744 27.8999C18.8809 27.7856 18.9408 27.6305 18.9408 27.4689L18.94 9.9995L22.785 14.1256C22.8914 14.2398 23.0357 14.3039 23.1861 14.3039C23.3366 14.3039 23.4809 14.2398 23.5873 14.1256C23.6936 14.0114 23.7534 13.8566 23.7534 13.6952C23.7534 13.5337 23.6936 13.3789 23.5873 13.2647L18.7739 8.09958Z" fill="black"/>
</svg>
