<svg width="7" height="7" viewBox="0 0 7 7" fill="none" xmlns="http://www.w3.org/2000/svg">
<path d="M6.4512 2.68084L4.45266 2.37668L3.55926 0.480036C3.53486 0.428107 3.49472 0.386069 3.44513 0.360517C3.32076 0.296224 3.16963 0.349801 3.10744 0.480036L2.21404 2.37668L0.215506 2.68084C0.160406 2.68908 0.110029 2.71628 0.0714597 2.75749C0.0248311 2.80768 -0.000863416 2.8752 2.21547e-05 2.94522C0.000907726 3.01523 0.0283009 3.08201 0.0761825 3.13089L1.52215 4.60716L1.18053 6.69174C1.17252 6.74023 1.17765 6.7901 1.19533 6.8357C1.21301 6.8813 1.24253 6.92079 1.28055 6.94971C1.31858 6.97863 1.36358 6.99582 1.41046 6.99932C1.45733 7.00282 1.50421 6.99249 1.54577 6.96952L3.33335 5.98534L5.12094 6.96952C5.16974 6.99672 5.22642 7.00578 5.28073 6.99589C5.41769 6.97116 5.50978 6.83516 5.48617 6.69174L5.14455 4.60716L6.59052 3.13089C6.62988 3.0905 6.65585 3.03775 6.66373 2.98005C6.68498 2.8358 6.58895 2.70227 6.4512 2.68084Z" fill="#DEF348"/>
</svg>
