<svg width="198" height="67" viewBox="0 0 198 67" fill="none" xmlns="http://www.w3.org/2000/svg">
<rect width="198" height="66.5038" rx="9.0687" fill="#242424"/>
<path d="M24.6621 50.0458V18.211H35.9862C38.4269 18.211 40.4886 18.5748 42.1713 19.3025C43.854 20.0301 45.1274 21.1519 45.9915 22.6679C46.8707 24.1838 47.3103 26.1242 47.3103 28.4891C47.3103 30.8843 46.8783 32.8626 46.0142 34.424C45.1501 35.9703 43.8843 37.1224 42.2168 37.8804C40.5492 38.6232 38.5179 38.9946 36.1227 38.9946H30.4834V50.0458H24.6621ZM30.4834 34.1284H35.4405C37.4264 34.1284 38.912 33.6812 39.8974 32.7868C40.8979 31.8924 41.3982 30.4901 41.3982 28.58C41.3982 26.67 40.8903 25.2753 39.8746 24.396C38.8741 23.5168 37.3506 23.0772 35.3041 23.0772H30.4834V34.1284ZM50.5343 50.0458V27.3067H55.8098L55.9462 29.717C56.5223 29.0803 57.3333 28.4436 58.3793 27.8069C59.4253 27.1702 60.5699 26.8519 61.8129 26.8519C62.1768 26.8519 62.5103 26.8822 62.8135 26.9428L62.4042 32.4912C62.0707 32.4002 61.7372 32.3396 61.4036 32.3093C61.0853 32.2789 60.7669 32.2638 60.4486 32.2638C59.4936 32.2638 58.6219 32.4836 57.8336 32.9232C57.0453 33.3628 56.492 33.901 56.1736 34.5377V50.0458H50.5343ZM75.4696 50.5006C72.9986 50.5006 70.8914 49.9624 69.1481 48.8861C67.4048 47.8098 66.0707 46.3772 65.146 44.5884C64.2364 42.7996 63.7817 40.844 63.7817 38.7217C63.7817 36.5842 64.2364 34.6135 65.146 32.8095C66.0707 31.0056 67.4048 29.5654 69.1481 28.4891C70.8914 27.3976 72.9986 26.8519 75.4696 26.8519C77.9406 26.8519 80.0477 27.3976 81.7911 28.4891C83.5344 29.5654 84.8609 31.0056 85.7704 32.8095C86.6952 34.6135 87.1575 36.5842 87.1575 38.7217C87.1575 40.844 86.6952 42.7996 85.7704 44.5884C84.8609 46.3772 83.5344 47.8098 81.7911 48.8861C80.0477 49.9624 77.9406 50.5006 75.4696 50.5006ZM75.4696 45.8618C77.3645 45.8618 78.8198 45.2024 79.8355 43.8835C80.8664 42.5495 81.3818 40.8289 81.3818 38.7217C81.3818 36.5842 80.8664 34.8485 79.8355 33.5144C78.8198 32.1652 77.3645 31.4907 75.4696 31.4907C73.5898 31.4907 72.1345 32.1652 71.1037 33.5144C70.0728 34.8485 69.5574 36.5842 69.5574 38.7217C69.5574 40.8289 70.0728 42.5495 71.1037 43.8835C72.1345 45.2024 73.5898 45.8618 75.4696 45.8618ZM128.424 50.5006C125.68 50.5006 123.391 49.9549 121.557 48.8634C119.738 47.7567 118.373 46.3014 117.464 44.4975C116.554 42.6783 116.099 40.6924 116.099 38.5398C116.099 36.463 116.524 34.5453 117.373 32.7868C118.237 31.0283 119.495 29.6185 121.148 28.5573C122.8 27.481 124.816 26.9428 127.196 26.9428C129.379 26.9428 131.198 27.39 132.654 28.2844C134.109 29.1788 135.2 30.3764 135.928 31.8772C136.656 33.3628 137.02 35.0076 137.02 36.8116C137.02 37.3119 136.989 37.8197 136.929 38.3351C136.868 38.8354 136.777 39.3584 136.656 39.9041H121.966C122.178 41.314 122.618 42.4585 123.285 43.3378C123.967 44.2018 124.793 44.8385 125.764 45.2478C126.749 45.6571 127.803 45.8618 128.924 45.8618C130.243 45.8618 131.471 45.695 132.608 45.3615C133.745 45.0129 134.791 44.5581 135.746 43.9972L136.019 48.7724C135.155 49.2272 134.079 49.6289 132.79 49.9776C131.501 50.3263 130.046 50.5006 128.424 50.5006ZM122.103 36.084H131.289C131.289 35.4018 131.16 34.7196 130.903 34.0374C130.645 33.3401 130.213 32.7565 129.607 32.2865C129.015 31.8166 128.212 31.5816 127.196 31.5816C125.741 31.5816 124.596 32.0061 123.763 32.855C122.929 33.7039 122.375 34.7803 122.103 36.084ZM140.869 50.0458V27.3067H146.145L146.281 29.717C146.857 29.0803 147.668 28.4436 148.714 27.8069C149.76 27.1702 150.905 26.8519 152.148 26.8519C152.512 26.8519 152.845 26.8822 153.148 26.9428L152.739 32.4912C152.406 32.4002 152.072 32.3396 151.738 32.3093C151.42 32.2789 151.102 32.2638 150.783 32.2638C149.828 32.2638 148.957 32.4836 148.168 32.9232C147.38 33.3628 146.827 33.901 146.508 34.5377V50.0458H140.869ZM162.111 50.0458L153.379 27.3067H158.928L164.521 43.0421L170.115 27.3067H175.664L166.932 50.0458H162.111Z" fill="white"/>
<path d="M101.179 50.6825C99.8905 50.6825 98.564 50.5536 97.1997 50.2959C95.8353 50.0534 94.5695 49.7578 93.4023 49.4091C92.235 49.0453 91.3103 48.6966 90.6281 48.3631L91.3103 42.1781C92.3714 42.6935 93.4781 43.171 94.6302 43.6106C95.7823 44.0502 96.9647 44.4065 98.1775 44.6794C99.3902 44.9522 100.618 45.0887 101.861 45.0887C103.407 45.0887 104.651 44.7855 105.59 44.1791C106.53 43.5727 107 42.648 107 41.4049C107 40.4499 106.735 39.6843 106.204 39.1083C105.674 38.5171 104.863 37.9941 103.771 37.5393C102.68 37.0693 101.285 36.5387 99.5873 35.9475C97.8895 35.3563 96.3659 34.6893 95.0167 33.9465C93.6675 33.1885 92.5988 32.2335 91.8105 31.0813C91.0222 29.9292 90.6281 28.4588 90.6281 26.67C90.6281 24.9115 91.0601 23.35 91.9242 21.9857C92.7883 20.6062 94.0769 19.5299 95.7899 18.7567C97.518 17.9684 99.6631 17.5743 102.225 17.5743C104.165 17.5743 106.015 17.7941 107.773 18.2337C109.532 18.6582 111.033 19.1206 112.276 19.6208L111.685 25.5785C109.896 24.775 108.213 24.1686 106.636 23.7593C105.075 23.3349 103.483 23.1226 101.861 23.1226C100.163 23.1226 98.8521 23.4031 97.9274 23.964C97.0026 24.5249 96.5403 25.3662 96.5403 26.488C96.5403 27.3824 96.798 28.1025 97.3134 28.6483C97.8288 29.194 98.564 29.6639 99.5191 30.0581C100.474 30.4371 101.619 30.8388 102.953 31.2633C105.257 31.9909 107.19 32.7944 108.751 33.6736C110.328 34.5377 111.51 35.5913 112.298 36.8344C113.102 38.0623 113.504 39.5858 113.504 41.4049C113.504 42.3145 113.36 43.3074 113.072 44.3838C112.784 45.4449 112.215 46.453 111.366 47.4081C110.517 48.3631 109.274 49.1514 107.637 49.7729C106.015 50.3793 103.862 50.6825 101.179 50.6825Z" fill="#DEF348"/>
</svg>
